M48
METRIC,LZ,000.000
;FILE_FORMAT=3:3
;TYPE=PLATED
;Layer: Drill PTH
;EasyEDA v6.4.19.4, 2021-05-27T12:50:32+05:30
;10
;Gerber Generator version 0.2
;Holesize 1 = 1.000 mm
T01C1.000
;Holesize 2 = 1.021 mm
T02C1.021
;Holesize 3 = 1.101 mm
T03C1.101
%
G05
G90
T01
X036703Y030607
X036830Y025527
X040386Y031115
X040386Y022606
X031242Y010668
X036830Y013462
X026543Y020701
X026543Y027813
X044069Y030861
X038354Y017018
X071501Y022098
X071501Y019558
X071501Y024638
X071501Y017145
X071501Y014732
X068961Y014605
X066421Y014605
X039878Y050419
X071247Y029210
X071120Y038989
X095631Y010795
X090551Y012319
X059817Y013208
X059690Y022987
X036830Y052705
X038354Y044704
X050038Y036703
X049657Y043561
X067818Y022733
X067818Y044577
X023749Y016637
X024257Y035306
X023876Y055245
X062103Y054356
X062103Y043688
X056007Y053213
X087249Y055372
X066802Y052959
X064008Y051181
X064008Y048641
X066802Y051181
X066802Y048641
X068326Y036576
X058326Y036576
X080772Y023368
X080772Y033368
X062373Y017399
X064373Y017399
X060325Y050911
X060325Y048911
X053467Y036830
X053467Y034290
X053467Y031750
X095885Y029083
X095885Y031623
X095885Y034163
X095885Y036703
X095885Y039243
X095885Y041783
X012827Y012192
X012827Y017272
X012827Y034798
X012827Y039878
X047752Y031750
X047752Y034290
X071120Y052070
X071120Y049530
X071120Y046990
X053975Y014351
X053975Y019431
X080899Y018923
X083439Y018923
X020447Y030734
X033147Y012954
X020447Y028194
X033147Y015494
X020447Y025654
X033147Y018034
X020447Y023114
X033147Y020574
X020447Y020574
X033147Y023114
X020447Y018034
X033147Y025654
X020447Y015494
X033147Y028194
X020447Y012954
X033147Y030734
X043053Y046228
X048133Y046228
X012827Y052705
X012827Y050165
X012827Y047625
X012827Y045085
X012700Y029591
X012700Y027051
X012700Y024511
X012700Y021971
X090932Y051943
X090932Y049403
X090932Y046863
X090932Y044323
X090932Y041783
X090932Y039243
X090932Y036703
X090932Y034163
X090932Y031623
X090932Y029083
X090932Y026543
X090932Y024003
X090932Y021463
X090932Y018923
X090932Y016383
X075692Y016383
X075692Y018923
X075692Y021463
X075692Y024003
X075692Y026543
X075692Y029083
X075692Y031623
X075692Y034163
X075692Y036703
X075692Y039243
X075692Y041783
X075692Y044323
X075692Y046863
X075692Y049403
X075692Y051943
X049784Y050927
X052324Y050927
X047244Y050927
X020574Y053086
X033274Y035306
X020574Y050546
X033274Y037846
X020574Y048006
X033274Y040386
X020574Y045466
X033274Y042926
X020574Y042926
X033274Y045466
X020574Y040386
X033274Y048006
X020574Y037846
X033274Y050546
X020574Y035306
X033274Y053086
T02
X085979Y018923
T03
X043885Y019210
X043885Y014196
M30
