G04 Layer: TopSilkLayer*
G04 EasyEDA v6.4.19.4, 2021-05-27T12:50:32+05:30*
G04 Gerber Generator version 0.2*
G04 Scale: 100 percent, Rotated: No, Reflected: No *
G04 Dimensions in millimeters *
G04 leading zeros omitted , absolute positions ,4 integer and 5 decimal *
%FSLAX45Y45*%
%MOMM*%

%ADD10C,0.2540*%
%ADD22C,0.2032*%
%ADD23C,0.2030*%
%ADD24C,0.1200*%
%ADD25C,0.1778*%
%ADD26C,0.3000*%
%ADD27C,0.4000*%
%ADD28C,0.1524*%

%LPD*%
D28*
X6452615Y4629657D02*
G01*
X6447536Y4640071D01*
X6437122Y4650486D01*
X6426708Y4655820D01*
X6410959Y4660900D01*
X6385052Y4660900D01*
X6369558Y4655820D01*
X6359143Y4650486D01*
X6348729Y4640071D01*
X6343650Y4629657D01*
X6343650Y4608829D01*
X6348729Y4598670D01*
X6359143Y4588255D01*
X6369558Y4582921D01*
X6385052Y4577842D01*
X6410959Y4577842D01*
X6426708Y4582921D01*
X6437122Y4588255D01*
X6447536Y4598670D01*
X6452615Y4608829D01*
X6452615Y4629657D01*
X6452615Y4543552D02*
G01*
X6374638Y4543552D01*
X6359143Y4538218D01*
X6348729Y4527804D01*
X6343650Y4512310D01*
X6343650Y4501895D01*
X6348729Y4486402D01*
X6359143Y4475987D01*
X6374638Y4470654D01*
X6452615Y4470654D01*
X6452615Y4400042D02*
G01*
X6343650Y4400042D01*
X6452615Y4436363D02*
G01*
X6452615Y4363720D01*
X6431788Y4329429D02*
G01*
X6437122Y4319015D01*
X6452615Y4303521D01*
X6343650Y4303521D01*
X6795515Y4616957D02*
G01*
X6790436Y4627371D01*
X6780022Y4637786D01*
X6769608Y4643120D01*
X6753859Y4648200D01*
X6727952Y4648200D01*
X6712458Y4643120D01*
X6702043Y4637786D01*
X6691629Y4627371D01*
X6686550Y4616957D01*
X6686550Y4596129D01*
X6691629Y4585970D01*
X6702043Y4575555D01*
X6712458Y4570221D01*
X6727952Y4565142D01*
X6753859Y4565142D01*
X6769608Y4570221D01*
X6780022Y4575555D01*
X6790436Y4585970D01*
X6795515Y4596129D01*
X6795515Y4616957D01*
X6795515Y4530852D02*
G01*
X6717538Y4530852D01*
X6702043Y4525518D01*
X6691629Y4515104D01*
X6686550Y4499610D01*
X6686550Y4489195D01*
X6691629Y4473702D01*
X6702043Y4463287D01*
X6717538Y4457954D01*
X6795515Y4457954D01*
X6795515Y4387342D02*
G01*
X6686550Y4387342D01*
X6795515Y4423663D02*
G01*
X6795515Y4351020D01*
X6769608Y4311650D02*
G01*
X6774688Y4311650D01*
X6785102Y4306315D01*
X6790436Y4301236D01*
X6795515Y4290821D01*
X6795515Y4269994D01*
X6790436Y4259579D01*
X6785102Y4254500D01*
X6774688Y4249165D01*
X6764274Y4249165D01*
X6753859Y4254500D01*
X6738365Y4264660D01*
X6686550Y4316729D01*
X6686550Y4244086D01*
X6324600Y3423412D02*
G01*
X6314186Y3418078D01*
X6298691Y3402584D01*
X6298691Y3511550D01*
X6233159Y3402584D02*
G01*
X6248654Y3407663D01*
X6259068Y3423412D01*
X6264402Y3449320D01*
X6264402Y3464813D01*
X6259068Y3490976D01*
X6248654Y3506470D01*
X6233159Y3511550D01*
X6222745Y3511550D01*
X6207252Y3506470D01*
X6196838Y3490976D01*
X6191504Y3464813D01*
X6191504Y3449320D01*
X6196838Y3423412D01*
X6207252Y3407663D01*
X6222745Y3402584D01*
X6233159Y3402584D01*
X6157213Y3402584D02*
G01*
X6157213Y3511550D01*
X6084570Y3402584D02*
G01*
X6157213Y3475228D01*
X6131306Y3449320D02*
G01*
X6084570Y3511550D01*
X6050279Y3548126D02*
G01*
X5956808Y3548126D01*
X5922518Y3402584D02*
G01*
X5922518Y3511550D01*
X5922518Y3402584D02*
G01*
X5875781Y3402584D01*
X5860034Y3407663D01*
X5854954Y3412997D01*
X5849620Y3423412D01*
X5849620Y3433826D01*
X5854954Y3444239D01*
X5860034Y3449320D01*
X5875781Y3454400D01*
X5922518Y3454400D02*
G01*
X5875781Y3454400D01*
X5860034Y3459734D01*
X5854954Y3464813D01*
X5849620Y3475228D01*
X5849620Y3490976D01*
X5854954Y3501389D01*
X5860034Y3506470D01*
X5875781Y3511550D01*
X5922518Y3511550D01*
X5815329Y3402584D02*
G01*
X5815329Y3480562D01*
X5810250Y3496055D01*
X5799836Y3506470D01*
X5784341Y3511550D01*
X5773927Y3511550D01*
X5758179Y3506470D01*
X5748020Y3496055D01*
X5742686Y3480562D01*
X5742686Y3402584D01*
X5635752Y3402584D02*
G01*
X5708395Y3511550D01*
X5708395Y3402584D02*
G01*
X5635752Y3402584D01*
X5708395Y3511550D02*
G01*
X5635752Y3511550D01*
X5528563Y3402584D02*
G01*
X5601461Y3511550D01*
X5601461Y3402584D02*
G01*
X5528563Y3402584D01*
X5601461Y3511550D02*
G01*
X5528563Y3511550D01*
X5494274Y3402584D02*
G01*
X5494274Y3511550D01*
X5494274Y3402584D02*
G01*
X5426709Y3402584D01*
X5494274Y3454400D02*
G01*
X5452872Y3454400D01*
X5494274Y3511550D02*
G01*
X5426709Y3511550D01*
X5392420Y3402584D02*
G01*
X5392420Y3511550D01*
X5392420Y3402584D02*
G01*
X5345684Y3402584D01*
X5330190Y3407663D01*
X5325109Y3412997D01*
X5319775Y3423412D01*
X5319775Y3433826D01*
X5325109Y3444239D01*
X5330190Y3449320D01*
X5345684Y3454400D01*
X5392420Y3454400D01*
X5356097Y3454400D02*
G01*
X5319775Y3511550D01*
X7792211Y2641600D02*
G01*
X7786877Y2652013D01*
X7771384Y2667507D01*
X7880350Y2667507D01*
X7771384Y2733039D02*
G01*
X7776463Y2717545D01*
X7792211Y2707131D01*
X7818120Y2701797D01*
X7833613Y2701797D01*
X7859775Y2707131D01*
X7875270Y2717545D01*
X7880350Y2733039D01*
X7880350Y2743454D01*
X7875270Y2758947D01*
X7859775Y2769362D01*
X7833613Y2774695D01*
X7818120Y2774695D01*
X7792211Y2769362D01*
X7776463Y2758947D01*
X7771384Y2743454D01*
X7771384Y2733039D01*
X7771384Y2808986D02*
G01*
X7880350Y2808986D01*
X7771384Y2881629D02*
G01*
X7844027Y2808986D01*
X7818120Y2834894D02*
G01*
X7880350Y2881629D01*
X7916925Y2915920D02*
G01*
X7916925Y3009392D01*
X7771384Y3043681D02*
G01*
X7880350Y3043681D01*
X7771384Y3077971D02*
G01*
X7880350Y3077971D01*
X7771384Y3077971D02*
G01*
X7771384Y3124707D01*
X7776463Y3140455D01*
X7781797Y3145536D01*
X7792211Y3150870D01*
X7802625Y3150870D01*
X7813040Y3145536D01*
X7818120Y3140455D01*
X7823200Y3124707D01*
X7823200Y3077971D01*
X7823200Y3114294D02*
G01*
X7880350Y3150870D01*
X6315100Y2139187D02*
G01*
X6325514Y2144521D01*
X6341008Y2160015D01*
X6341008Y2051050D01*
X6375298Y2160015D02*
G01*
X6375298Y2082037D01*
X6380632Y2066544D01*
X6391046Y2056129D01*
X6406540Y2051050D01*
X6416954Y2051050D01*
X6432448Y2056129D01*
X6442862Y2066544D01*
X6448196Y2082037D01*
X6448196Y2160015D01*
X6482486Y2160015D02*
G01*
X6482486Y2051050D01*
X6482486Y2160015D02*
G01*
X6550050Y2160015D01*
X6482486Y2108200D02*
G01*
X6523888Y2108200D01*
X6063488Y4648200D02*
G01*
X6068822Y4637786D01*
X6084315Y4622292D01*
X5975350Y4622292D01*
X6084315Y4556760D02*
G01*
X6079236Y4572254D01*
X6063488Y4582668D01*
X6037579Y4588002D01*
X6022086Y4588002D01*
X5995924Y4582668D01*
X5980429Y4572254D01*
X5975350Y4556760D01*
X5975350Y4546345D01*
X5980429Y4530852D01*
X5995924Y4520437D01*
X6022086Y4515104D01*
X6037579Y4515104D01*
X6063488Y4520437D01*
X6079236Y4530852D01*
X6084315Y4546345D01*
X6084315Y4556760D01*
X6084315Y4449826D02*
G01*
X6079236Y4465320D01*
X6063488Y4475734D01*
X6037579Y4480813D01*
X6022086Y4480813D01*
X5995924Y4475734D01*
X5980429Y4465320D01*
X5975350Y4449826D01*
X5975350Y4439412D01*
X5980429Y4423663D01*
X5995924Y4413250D01*
X6022086Y4408170D01*
X6037579Y4408170D01*
X6063488Y4413250D01*
X6079236Y4423663D01*
X6084315Y4439412D01*
X6084315Y4449826D01*
X6084315Y4373879D02*
G01*
X6006338Y4373879D01*
X5990843Y4368800D01*
X5980429Y4358386D01*
X5975350Y4342637D01*
X5975350Y4332223D01*
X5980429Y4316729D01*
X5990843Y4306315D01*
X6006338Y4301236D01*
X6084315Y4301236D01*
X6084315Y4266945D02*
G01*
X5975350Y4266945D01*
X6084315Y4266945D02*
G01*
X6084315Y4199381D01*
X6032500Y4266945D02*
G01*
X6032500Y4225289D01*
X4901184Y3340100D02*
G01*
X5010150Y3340100D01*
X4901184Y3340100D02*
G01*
X4901184Y3386836D01*
X4906263Y3402329D01*
X4911597Y3407663D01*
X4922011Y3412744D01*
X4932425Y3412744D01*
X4942840Y3407663D01*
X4947920Y3402329D01*
X4953000Y3386836D01*
X4953000Y3340100D02*
G01*
X4953000Y3386836D01*
X4958334Y3402329D01*
X4963413Y3407663D01*
X4973827Y3412744D01*
X4989575Y3412744D01*
X4999990Y3407663D01*
X5005070Y3402329D01*
X5010150Y3386836D01*
X5010150Y3340100D01*
X4927091Y3525012D02*
G01*
X4916677Y3519931D01*
X4906263Y3509518D01*
X4901184Y3499104D01*
X4901184Y3478276D01*
X4906263Y3467862D01*
X4916677Y3457447D01*
X4927091Y3452368D01*
X4942840Y3447034D01*
X4968747Y3447034D01*
X4984241Y3452368D01*
X4994656Y3457447D01*
X5005070Y3467862D01*
X5010150Y3478276D01*
X5010150Y3499104D01*
X5005070Y3509518D01*
X4994656Y3519931D01*
X4984241Y3525012D01*
X4901184Y3621786D02*
G01*
X4901184Y3569715D01*
X4947920Y3564636D01*
X4942840Y3569715D01*
X4937506Y3585210D01*
X4937506Y3600957D01*
X4942840Y3616452D01*
X4953000Y3626865D01*
X4968747Y3632200D01*
X4979161Y3632200D01*
X4994656Y3626865D01*
X5005070Y3616452D01*
X5010150Y3600957D01*
X5010150Y3585210D01*
X5005070Y3569715D01*
X4999990Y3564636D01*
X4989575Y3559302D01*
X4901184Y3718305D02*
G01*
X4973827Y3666489D01*
X4973827Y3744213D01*
X4901184Y3718305D02*
G01*
X5010150Y3718305D01*
X4901184Y3851402D02*
G01*
X5010150Y3799331D01*
X4901184Y3778504D02*
G01*
X4901184Y3851402D01*
X5046725Y3885692D02*
G01*
X5046725Y3979163D01*
X4927091Y4018534D02*
G01*
X4922011Y4018534D01*
X4911597Y4023868D01*
X4906263Y4028947D01*
X4901184Y4039362D01*
X4901184Y4060189D01*
X4906263Y4070604D01*
X4911597Y4075684D01*
X4922011Y4081018D01*
X4932425Y4081018D01*
X4942840Y4075684D01*
X4958334Y4065270D01*
X5010150Y4013454D01*
X5010150Y4086097D01*
X9627615Y5181600D02*
G01*
X9518650Y5181600D01*
X9627615Y5181600D02*
G01*
X9627615Y5134863D01*
X9622536Y5119370D01*
X9617202Y5114036D01*
X9606788Y5108955D01*
X9591293Y5108955D01*
X9580879Y5114036D01*
X9575800Y5119370D01*
X9570465Y5134863D01*
X9570465Y5181600D01*
X9627615Y5074665D02*
G01*
X9518650Y5074665D01*
X9627615Y5040376D02*
G01*
X9518650Y5040376D01*
X9627615Y5040376D02*
G01*
X9518650Y4967478D01*
X9627615Y4967478D02*
G01*
X9518650Y4967478D01*
X9627615Y4902200D02*
G01*
X9622536Y4912360D01*
X9612122Y4922773D01*
X9601708Y4928107D01*
X9585959Y4933187D01*
X9560052Y4933187D01*
X9544558Y4928107D01*
X9534143Y4922773D01*
X9523729Y4912360D01*
X9518650Y4902200D01*
X9518650Y4881371D01*
X9523729Y4870957D01*
X9534143Y4860544D01*
X9544558Y4855210D01*
X9560052Y4850129D01*
X9585959Y4850129D01*
X9601708Y4855210D01*
X9612122Y4860544D01*
X9622536Y4870957D01*
X9627615Y4881371D01*
X9627615Y4902200D01*
X9627615Y4815839D02*
G01*
X9549638Y4815839D01*
X9534143Y4810760D01*
X9523729Y4800345D01*
X9518650Y4784597D01*
X9518650Y4774184D01*
X9523729Y4758689D01*
X9534143Y4748276D01*
X9549638Y4743195D01*
X9627615Y4743195D01*
X9627615Y4672329D02*
G01*
X9518650Y4672329D01*
X9627615Y4708905D02*
G01*
X9627615Y4636007D01*
X9482074Y4601718D02*
G01*
X9482074Y4508245D01*
X9627615Y4432300D02*
G01*
X9518650Y4473955D01*
X9627615Y4432300D02*
G01*
X9518650Y4390897D01*
X9554972Y4458462D02*
G01*
X9554972Y4406392D01*
X608584Y1499870D02*
G01*
X681228Y1447800D01*
X681228Y1525778D01*
X608584Y1499870D02*
G01*
X717550Y1499870D01*
X608584Y1632712D02*
G01*
X717550Y1580895D01*
X608584Y1560068D02*
G01*
X608584Y1632712D01*
X608584Y1698244D02*
G01*
X613663Y1682750D01*
X629412Y1672336D01*
X655320Y1667002D01*
X670813Y1667002D01*
X696976Y1672336D01*
X712470Y1682750D01*
X717550Y1698244D01*
X717550Y1708657D01*
X712470Y1724152D01*
X696976Y1734565D01*
X670813Y1739900D01*
X655320Y1739900D01*
X629412Y1734565D01*
X613663Y1724152D01*
X608584Y1708657D01*
X608584Y1698244D01*
X608584Y1774189D02*
G01*
X686562Y1774189D01*
X702055Y1779270D01*
X712470Y1789684D01*
X717550Y1805178D01*
X717550Y1815592D01*
X712470Y1831339D01*
X702055Y1841500D01*
X686562Y1846834D01*
X608584Y1846834D01*
X608584Y1881123D02*
G01*
X717550Y1881123D01*
X608584Y1881123D02*
G01*
X608584Y1948687D01*
X660400Y1881123D02*
G01*
X660400Y1922779D01*
X754126Y1982978D02*
G01*
X754126Y2076450D01*
X634492Y2115820D02*
G01*
X629412Y2115820D01*
X618997Y2121154D01*
X613663Y2126234D01*
X608584Y2136647D01*
X608584Y2157476D01*
X613663Y2167889D01*
X618997Y2172970D01*
X629412Y2178304D01*
X639826Y2178304D01*
X650239Y2172970D01*
X665734Y2162810D01*
X717550Y2110739D01*
X717550Y2183384D01*
X608584Y3760470D02*
G01*
X681228Y3708400D01*
X681228Y3786378D01*
X608584Y3760470D02*
G01*
X717550Y3760470D01*
X608584Y3893312D02*
G01*
X717550Y3841495D01*
X608584Y3820668D02*
G01*
X608584Y3893312D01*
X608584Y3958844D02*
G01*
X613663Y3943350D01*
X629412Y3932936D01*
X655320Y3927602D01*
X670813Y3927602D01*
X696976Y3932936D01*
X712470Y3943350D01*
X717550Y3958844D01*
X717550Y3969257D01*
X712470Y3984752D01*
X696976Y3995165D01*
X670813Y4000500D01*
X655320Y4000500D01*
X629412Y3995165D01*
X613663Y3984752D01*
X608584Y3969257D01*
X608584Y3958844D01*
X608584Y4034789D02*
G01*
X686562Y4034789D01*
X702055Y4039870D01*
X712470Y4050284D01*
X717550Y4065778D01*
X717550Y4076192D01*
X712470Y4091939D01*
X702055Y4102100D01*
X686562Y4107434D01*
X608584Y4107434D01*
X608584Y4141723D02*
G01*
X717550Y4141723D01*
X608584Y4141723D02*
G01*
X608584Y4209287D01*
X660400Y4141723D02*
G01*
X660400Y4183379D01*
X754126Y4243578D02*
G01*
X754126Y4337050D01*
X629412Y4371339D02*
G01*
X624078Y4381754D01*
X608584Y4397247D01*
X717550Y4397247D01*
X4520184Y3289300D02*
G01*
X4629150Y3289300D01*
X4520184Y3289300D02*
G01*
X4520184Y3336036D01*
X4525263Y3351529D01*
X4530597Y3356863D01*
X4541011Y3361944D01*
X4551425Y3361944D01*
X4561840Y3356863D01*
X4566920Y3351529D01*
X4572000Y3336036D01*
X4572000Y3289300D02*
G01*
X4572000Y3336036D01*
X4577334Y3351529D01*
X4582413Y3356863D01*
X4592827Y3361944D01*
X4608575Y3361944D01*
X4618990Y3356863D01*
X4624070Y3351529D01*
X4629150Y3336036D01*
X4629150Y3289300D01*
X4520184Y3396234D02*
G01*
X4598161Y3396234D01*
X4613656Y3401568D01*
X4624070Y3411981D01*
X4629150Y3427476D01*
X4629150Y3437889D01*
X4624070Y3453384D01*
X4613656Y3463797D01*
X4598161Y3469131D01*
X4520184Y3469131D01*
X4520184Y3576065D02*
G01*
X4629150Y3503421D01*
X4520184Y3503421D02*
G01*
X4520184Y3576065D01*
X4629150Y3503421D02*
G01*
X4629150Y3576065D01*
X4520184Y3683000D02*
G01*
X4629150Y3610355D01*
X4520184Y3610355D02*
G01*
X4520184Y3683000D01*
X4629150Y3610355D02*
G01*
X4629150Y3683000D01*
X4520184Y3717289D02*
G01*
X4629150Y3717289D01*
X4520184Y3717289D02*
G01*
X4520184Y3784854D01*
X4572000Y3717289D02*
G01*
X4572000Y3758945D01*
X4629150Y3717289D02*
G01*
X4629150Y3784854D01*
X4520184Y3819144D02*
G01*
X4629150Y3819144D01*
X4520184Y3819144D02*
G01*
X4520184Y3865879D01*
X4525263Y3881628D01*
X4530597Y3886707D01*
X4541011Y3892042D01*
X4551425Y3892042D01*
X4561840Y3886707D01*
X4566920Y3881628D01*
X4572000Y3865879D01*
X4572000Y3819144D01*
X4572000Y3855720D02*
G01*
X4629150Y3892042D01*
X4520184Y3926331D02*
G01*
X4644897Y3998976D01*
X6844284Y4635500D02*
G01*
X6953250Y4635500D01*
X6844284Y4635500D02*
G01*
X6844284Y4682236D01*
X6849363Y4697729D01*
X6854697Y4703063D01*
X6865111Y4708144D01*
X6880606Y4708144D01*
X6891020Y4703063D01*
X6896100Y4697729D01*
X6901434Y4682236D01*
X6901434Y4635500D01*
X6844284Y4742434D02*
G01*
X6953250Y4742434D01*
X6844284Y4776723D02*
G01*
X6953250Y4776723D01*
X6844284Y4776723D02*
G01*
X6953250Y4849621D01*
X6844284Y4849621D02*
G01*
X6953250Y4849621D01*
X6844284Y4914900D02*
G01*
X6849363Y4904739D01*
X6859777Y4894326D01*
X6870191Y4888992D01*
X6885940Y4883912D01*
X6911847Y4883912D01*
X6927341Y4888992D01*
X6937756Y4894326D01*
X6948170Y4904739D01*
X6953250Y4914900D01*
X6953250Y4935728D01*
X6948170Y4946142D01*
X6937756Y4956555D01*
X6927341Y4961889D01*
X6911847Y4966970D01*
X6885940Y4966970D01*
X6870191Y4961889D01*
X6859777Y4956555D01*
X6849363Y4946142D01*
X6844284Y4935728D01*
X6844284Y4914900D01*
X6844284Y5001260D02*
G01*
X6922261Y5001260D01*
X6937756Y5006339D01*
X6948170Y5016754D01*
X6953250Y5032502D01*
X6953250Y5042915D01*
X6948170Y5058410D01*
X6937756Y5068823D01*
X6922261Y5073904D01*
X6844284Y5073904D01*
X6844284Y5144770D02*
G01*
X6953250Y5144770D01*
X6844284Y5108194D02*
G01*
X6844284Y5181092D01*
X6989825Y5215381D02*
G01*
X6989825Y5308854D01*
X6844284Y5343144D02*
G01*
X6953250Y5343144D01*
X6844284Y5343144D02*
G01*
X6844284Y5389879D01*
X6849363Y5405373D01*
X6854697Y5410707D01*
X6865111Y5415787D01*
X6875525Y5415787D01*
X6885940Y5410707D01*
X6891020Y5405373D01*
X6896100Y5389879D01*
X6896100Y5343144D02*
G01*
X6896100Y5389879D01*
X6901434Y5405373D01*
X6906513Y5410707D01*
X6916927Y5415787D01*
X6932675Y5415787D01*
X6943090Y5410707D01*
X6948170Y5405373D01*
X6953250Y5389879D01*
X6953250Y5343144D01*
X4744211Y1663700D02*
G01*
X4738877Y1674113D01*
X4723384Y1689607D01*
X4832350Y1689607D01*
X4723384Y1755139D02*
G01*
X4728463Y1739645D01*
X4744211Y1729231D01*
X4770120Y1723897D01*
X4785613Y1723897D01*
X4811775Y1729231D01*
X4827270Y1739645D01*
X4832350Y1755139D01*
X4832350Y1765554D01*
X4827270Y1781047D01*
X4811775Y1791462D01*
X4785613Y1796795D01*
X4770120Y1796795D01*
X4744211Y1791462D01*
X4728463Y1781047D01*
X4723384Y1765554D01*
X4723384Y1755139D01*
X4723384Y1862073D02*
G01*
X4728463Y1846579D01*
X4744211Y1836165D01*
X4770120Y1831086D01*
X4785613Y1831086D01*
X4811775Y1836165D01*
X4827270Y1846579D01*
X4832350Y1862073D01*
X4832350Y1872487D01*
X4827270Y1888236D01*
X4811775Y1898650D01*
X4785613Y1903729D01*
X4770120Y1903729D01*
X4744211Y1898650D01*
X4728463Y1888236D01*
X4723384Y1872487D01*
X4723384Y1862073D01*
X4723384Y1969262D02*
G01*
X4728463Y1953513D01*
X4744211Y1943100D01*
X4770120Y1938020D01*
X4785613Y1938020D01*
X4811775Y1943100D01*
X4827270Y1953513D01*
X4832350Y1969262D01*
X4832350Y1979676D01*
X4827270Y1995170D01*
X4811775Y2005584D01*
X4785613Y2010663D01*
X4770120Y2010663D01*
X4744211Y2005584D01*
X4728463Y1995170D01*
X4723384Y1979676D01*
X4723384Y1969262D01*
X4723384Y2044954D02*
G01*
X4801361Y2044954D01*
X4816856Y2050287D01*
X4827270Y2060702D01*
X4832350Y2076195D01*
X4832350Y2086610D01*
X4827270Y2102104D01*
X4816856Y2112518D01*
X4801361Y2117852D01*
X4723384Y2117852D01*
X4723384Y2152142D02*
G01*
X4832350Y2152142D01*
X4723384Y2152142D02*
G01*
X4723384Y2219705D01*
X4775200Y2152142D02*
G01*
X4775200Y2193544D01*
X4868925Y2253995D02*
G01*
X4868925Y2347468D01*
X4744211Y2381757D02*
G01*
X4738877Y2392171D01*
X4723384Y2407665D01*
X4832350Y2407665D01*
X8763000Y1573784D02*
G01*
X8763000Y1682750D01*
X8728709Y1573784D02*
G01*
X8728709Y1682750D01*
X8728709Y1573784D02*
G01*
X8681974Y1573784D01*
X8666479Y1578863D01*
X8661145Y1584197D01*
X8656065Y1594612D01*
X8656065Y1605026D01*
X8661145Y1615439D01*
X8666479Y1620520D01*
X8681974Y1625600D01*
X8728709Y1625600D01*
X8692388Y1625600D02*
G01*
X8656065Y1682750D01*
X8621775Y1719326D02*
G01*
X8528050Y1719326D01*
X8493759Y1573784D02*
G01*
X8493759Y1682750D01*
X8493759Y1573784D02*
G01*
X8452358Y1682750D01*
X8410702Y1573784D02*
G01*
X8452358Y1682750D01*
X8410702Y1573784D02*
G01*
X8410702Y1682750D01*
X8345170Y1573784D02*
G01*
X8355584Y1578863D01*
X8365997Y1589278D01*
X8371331Y1599692D01*
X8376411Y1615439D01*
X8376411Y1641347D01*
X8371331Y1656842D01*
X8365997Y1667255D01*
X8355584Y1677670D01*
X8345170Y1682750D01*
X8324595Y1682750D01*
X8314181Y1677670D01*
X8303768Y1667255D01*
X8298434Y1656842D01*
X8293354Y1641347D01*
X8293354Y1615439D01*
X8298434Y1599692D01*
X8303768Y1589278D01*
X8314181Y1578863D01*
X8324595Y1573784D01*
X8345170Y1573784D01*
X8259063Y1573784D02*
G01*
X8259063Y1682750D01*
X8259063Y1573784D02*
G01*
X8222741Y1573784D01*
X8206993Y1578863D01*
X8196579Y1589278D01*
X8191500Y1599692D01*
X8186420Y1615439D01*
X8186420Y1641347D01*
X8191500Y1656842D01*
X8196579Y1667255D01*
X8206993Y1677670D01*
X8222741Y1682750D01*
X8259063Y1682750D01*
X8152129Y1573784D02*
G01*
X8152129Y1651762D01*
X8146795Y1667255D01*
X8136381Y1677670D01*
X8120888Y1682750D01*
X8110474Y1682750D01*
X8094979Y1677670D01*
X8084565Y1667255D01*
X8079231Y1651762D01*
X8079231Y1573784D01*
X8044941Y1573784D02*
G01*
X8044941Y1682750D01*
X8044941Y1682750D02*
G01*
X7982711Y1682750D01*
X7948422Y1573784D02*
G01*
X7948422Y1682750D01*
X7948422Y1573784D02*
G01*
X7880858Y1573784D01*
X7948422Y1625600D02*
G01*
X7906765Y1625600D01*
X7948422Y1682750D02*
G01*
X7880858Y1682750D01*
X2654300Y3366515D02*
G01*
X2654300Y3257550D01*
X2654300Y3366515D02*
G01*
X2695956Y3257550D01*
X2737358Y3366515D02*
G01*
X2695956Y3257550D01*
X2737358Y3366515D02*
G01*
X2737358Y3257550D01*
X2802890Y3366515D02*
G01*
X2792475Y3361436D01*
X2782061Y3351021D01*
X2776981Y3340607D01*
X2771647Y3324860D01*
X2771647Y3298952D01*
X2776981Y3283457D01*
X2782061Y3273044D01*
X2792475Y3262629D01*
X2802890Y3257550D01*
X2823718Y3257550D01*
X2834131Y3262629D01*
X2844545Y3273044D01*
X2849625Y3283457D01*
X2854959Y3298952D01*
X2854959Y3324860D01*
X2849625Y3340607D01*
X2844545Y3351021D01*
X2834131Y3361436D01*
X2823718Y3366515D01*
X2802890Y3366515D01*
X2925572Y3366515D02*
G01*
X2925572Y3257550D01*
X2889250Y3366515D02*
G01*
X2961893Y3366515D01*
X3027425Y3366515D02*
G01*
X3017011Y3361436D01*
X3006597Y3351021D01*
X3001263Y3340607D01*
X2996184Y3324860D01*
X2996184Y3298952D01*
X3001263Y3283457D01*
X3006597Y3273044D01*
X3017011Y3262629D01*
X3027425Y3257550D01*
X3048000Y3257550D01*
X3058413Y3262629D01*
X3068827Y3273044D01*
X3074161Y3283457D01*
X3079241Y3298952D01*
X3079241Y3324860D01*
X3074161Y3340607D01*
X3068827Y3351021D01*
X3058413Y3361436D01*
X3048000Y3366515D01*
X3027425Y3366515D01*
X3113531Y3366515D02*
G01*
X3113531Y3257550D01*
X3113531Y3366515D02*
G01*
X3160268Y3366515D01*
X3176015Y3361436D01*
X3181095Y3356102D01*
X3186429Y3345687D01*
X3186429Y3335273D01*
X3181095Y3324860D01*
X3176015Y3319779D01*
X3160268Y3314700D01*
X3113531Y3314700D01*
X3149854Y3314700D02*
G01*
X3186429Y3257550D01*
X3220720Y3220973D02*
G01*
X3314191Y3220973D01*
X3353561Y3340607D02*
G01*
X3353561Y3345687D01*
X3358895Y3356102D01*
X3363975Y3361436D01*
X3374390Y3366515D01*
X3395218Y3366515D01*
X3405631Y3361436D01*
X3410711Y3356102D01*
X3416045Y3345687D01*
X3416045Y3335273D01*
X3410711Y3324860D01*
X3400297Y3309365D01*
X3348481Y3257550D01*
X3421125Y3257550D01*
X4945888Y1689100D02*
G01*
X4951222Y1678686D01*
X4966715Y1663192D01*
X4857750Y1663192D01*
X4940808Y1623568D02*
G01*
X4945888Y1623568D01*
X4956302Y1618487D01*
X4961636Y1613154D01*
X4966715Y1602739D01*
X4966715Y1582165D01*
X4961636Y1571752D01*
X4956302Y1566418D01*
X4945888Y1561337D01*
X4935474Y1561337D01*
X4925059Y1566418D01*
X4909565Y1576831D01*
X4857750Y1628902D01*
X4857750Y1556004D01*
X4966715Y1521713D02*
G01*
X4857750Y1480312D01*
X4966715Y1438655D02*
G01*
X4857750Y1480312D01*
X4577841Y5004815D02*
G01*
X4562093Y4999736D01*
X4551679Y4983987D01*
X4546600Y4958079D01*
X4546600Y4942586D01*
X4551679Y4916423D01*
X4562093Y4900929D01*
X4577841Y4895850D01*
X4588256Y4895850D01*
X4603750Y4900929D01*
X4614163Y4916423D01*
X4619243Y4942586D01*
X4619243Y4958079D01*
X4614163Y4983987D01*
X4603750Y4999736D01*
X4588256Y5004815D01*
X4577841Y5004815D01*
X4658868Y4921757D02*
G01*
X4653534Y4916423D01*
X4658868Y4911344D01*
X4663947Y4916423D01*
X4658868Y4921757D01*
X4698238Y4983987D02*
G01*
X4708652Y4989321D01*
X4724400Y5004815D01*
X4724400Y4895850D01*
X4758690Y5004815D02*
G01*
X4758690Y4926837D01*
X4763770Y4911344D01*
X4774184Y4900929D01*
X4789677Y4895850D01*
X4800091Y4895850D01*
X4815840Y4900929D01*
X4826000Y4911344D01*
X4831334Y4926837D01*
X4831334Y5004815D01*
X4865624Y5004815D02*
G01*
X4865624Y4895850D01*
X4865624Y5004815D02*
G01*
X4933188Y5004815D01*
X4865624Y4953000D02*
G01*
X4907279Y4953000D01*
X4967477Y4859273D02*
G01*
X5060950Y4859273D01*
X5095240Y5004815D02*
G01*
X5095240Y4895850D01*
X5129529Y5004815D02*
G01*
X5129529Y4895850D01*
X5129529Y5004815D02*
G01*
X5202174Y4895850D01*
X5202174Y5004815D02*
G01*
X5202174Y4895850D01*
X1055115Y2806700D02*
G01*
X946150Y2806700D01*
X1055115Y2806700D02*
G01*
X946150Y2765044D01*
X1055115Y2723642D02*
G01*
X946150Y2765044D01*
X1055115Y2723642D02*
G01*
X946150Y2723642D01*
X1055115Y2658110D02*
G01*
X1050036Y2668523D01*
X1039621Y2678937D01*
X1029207Y2684018D01*
X1013460Y2689352D01*
X987552Y2689352D01*
X972057Y2684018D01*
X961644Y2678937D01*
X951229Y2668523D01*
X946150Y2658110D01*
X946150Y2637281D01*
X951229Y2626868D01*
X961644Y2616454D01*
X972057Y2611373D01*
X987552Y2606039D01*
X1013460Y2606039D01*
X1029207Y2611373D01*
X1039621Y2616454D01*
X1050036Y2626868D01*
X1055115Y2637281D01*
X1055115Y2658110D01*
X1055115Y2535428D02*
G01*
X946150Y2535428D01*
X1055115Y2571750D02*
G01*
X1055115Y2499105D01*
X1055115Y2433573D02*
G01*
X1050036Y2443987D01*
X1039621Y2454402D01*
X1029207Y2459736D01*
X1013460Y2464815D01*
X987552Y2464815D01*
X972057Y2459736D01*
X961644Y2454402D01*
X951229Y2443987D01*
X946150Y2433573D01*
X946150Y2413000D01*
X951229Y2402586D01*
X961644Y2392171D01*
X972057Y2386837D01*
X987552Y2381757D01*
X1013460Y2381757D01*
X1029207Y2386837D01*
X1039621Y2392171D01*
X1050036Y2402586D01*
X1055115Y2413000D01*
X1055115Y2433573D01*
X1055115Y2347468D02*
G01*
X946150Y2347468D01*
X1055115Y2347468D02*
G01*
X1055115Y2300731D01*
X1050036Y2284984D01*
X1044702Y2279904D01*
X1034287Y2274570D01*
X1023873Y2274570D01*
X1013460Y2279904D01*
X1008379Y2284984D01*
X1003300Y2300731D01*
X1003300Y2347468D01*
X1003300Y2311145D02*
G01*
X946150Y2274570D01*
X1029207Y2235200D02*
G01*
X1034287Y2235200D01*
X1044702Y2230120D01*
X1050036Y2224786D01*
X1055115Y2214371D01*
X1055115Y2193544D01*
X1050036Y2183129D01*
X1044702Y2178050D01*
X1034287Y2172970D01*
X1023873Y2172970D01*
X1013460Y2178050D01*
X997965Y2188463D01*
X946150Y2240279D01*
X946150Y2167636D01*
X8360156Y5601715D02*
G01*
X8318500Y5492750D01*
X8360156Y5601715D02*
G01*
X8401558Y5492750D01*
X8333993Y5529071D02*
G01*
X8386063Y5529071D01*
X8435847Y5601715D02*
G01*
X8435847Y5492750D01*
X8435847Y5601715D02*
G01*
X8482584Y5601715D01*
X8498331Y5596636D01*
X8503411Y5591302D01*
X8508745Y5580887D01*
X8508745Y5570473D01*
X8503411Y5560060D01*
X8498331Y5554979D01*
X8482584Y5549900D01*
X8435847Y5549900D01*
X8472170Y5549900D02*
G01*
X8508745Y5492750D01*
X8543036Y5601715D02*
G01*
X8543036Y5492750D01*
X8543036Y5601715D02*
G01*
X8579358Y5601715D01*
X8594852Y5596636D01*
X8605265Y5586221D01*
X8610600Y5575807D01*
X8615679Y5560060D01*
X8615679Y5534152D01*
X8610600Y5518657D01*
X8605265Y5508244D01*
X8594852Y5497829D01*
X8579358Y5492750D01*
X8543036Y5492750D01*
X8649970Y5601715D02*
G01*
X8649970Y5523737D01*
X8655050Y5508244D01*
X8665463Y5497829D01*
X8681211Y5492750D01*
X8691625Y5492750D01*
X8707120Y5497829D01*
X8717534Y5508244D01*
X8722613Y5523737D01*
X8722613Y5601715D01*
X8756904Y5601715D02*
G01*
X8756904Y5492750D01*
X8791193Y5601715D02*
G01*
X8791193Y5492750D01*
X8791193Y5601715D02*
G01*
X8864091Y5492750D01*
X8864091Y5601715D02*
G01*
X8864091Y5492750D01*
X8929370Y5601715D02*
G01*
X8919209Y5596636D01*
X8908795Y5586221D01*
X8903461Y5575807D01*
X8898381Y5560060D01*
X8898381Y5534152D01*
X8903461Y5518657D01*
X8908795Y5508244D01*
X8919209Y5497829D01*
X8929370Y5492750D01*
X8950197Y5492750D01*
X8960611Y5497829D01*
X8971025Y5508244D01*
X8976359Y5518657D01*
X8981440Y5534152D01*
X8981440Y5560060D01*
X8976359Y5575807D01*
X8971025Y5586221D01*
X8960611Y5596636D01*
X8950197Y5601715D01*
X8929370Y5601715D01*
X9015729Y5456173D02*
G01*
X9109202Y5456173D01*
X9143491Y5601715D02*
G01*
X9143491Y5492750D01*
X9143491Y5601715D02*
G01*
X9216390Y5492750D01*
X9216390Y5601715D02*
G01*
X9216390Y5492750D01*
X9292081Y5601715D02*
G01*
X9250679Y5492750D01*
X9292081Y5601715D02*
G01*
X9333738Y5492750D01*
X9266174Y5529071D02*
G01*
X9317990Y5529071D01*
X9368027Y5601715D02*
G01*
X9368027Y5492750D01*
X9368027Y5601715D02*
G01*
X9440672Y5492750D01*
X9440672Y5601715D02*
G01*
X9440672Y5492750D01*
X9506204Y5601715D02*
G01*
X9495790Y5596636D01*
X9485375Y5586221D01*
X9480295Y5575807D01*
X9474961Y5560060D01*
X9474961Y5534152D01*
X9480295Y5518657D01*
X9485375Y5508244D01*
X9495790Y5497829D01*
X9506204Y5492750D01*
X9527031Y5492750D01*
X9537445Y5497829D01*
X9547859Y5508244D01*
X9552940Y5518657D01*
X9558020Y5534152D01*
X9558020Y5560060D01*
X9552940Y5575807D01*
X9547859Y5586221D01*
X9537445Y5596636D01*
X9527031Y5601715D01*
X9506204Y5601715D01*
X4965700Y5576315D02*
G01*
X4965700Y5467350D01*
X4965700Y5467350D02*
G01*
X5027929Y5467350D01*
X5062220Y5576315D02*
G01*
X5062220Y5467350D01*
X5062220Y5576315D02*
G01*
X5103875Y5467350D01*
X5145531Y5576315D02*
G01*
X5103875Y5467350D01*
X5145531Y5576315D02*
G01*
X5145531Y5467350D01*
X5252465Y5576315D02*
G01*
X5200650Y5467350D01*
X5179822Y5576315D02*
G01*
X5252465Y5576315D01*
X5312663Y5576315D02*
G01*
X5297170Y5571236D01*
X5292090Y5560821D01*
X5292090Y5550407D01*
X5297170Y5539994D01*
X5307584Y5534660D01*
X5328411Y5529579D01*
X5343906Y5524500D01*
X5354320Y5514086D01*
X5359400Y5503671D01*
X5359400Y5487923D01*
X5354320Y5477510D01*
X5349240Y5472429D01*
X5333491Y5467350D01*
X5312663Y5467350D01*
X5297170Y5472429D01*
X5292090Y5477510D01*
X5286756Y5487923D01*
X5286756Y5503671D01*
X5292090Y5514086D01*
X5302250Y5524500D01*
X5317997Y5529579D01*
X5338825Y5534660D01*
X5349240Y5539994D01*
X5354320Y5550407D01*
X5354320Y5560821D01*
X5349240Y5571236D01*
X5333491Y5576315D01*
X5312663Y5576315D01*
X5424931Y5576315D02*
G01*
X5409438Y5571236D01*
X5399024Y5555487D01*
X5393690Y5529579D01*
X5393690Y5514086D01*
X5399024Y5487923D01*
X5409438Y5472429D01*
X5424931Y5467350D01*
X5435345Y5467350D01*
X5450840Y5472429D01*
X5461254Y5487923D01*
X5466588Y5514086D01*
X5466588Y5529579D01*
X5461254Y5555487D01*
X5450840Y5571236D01*
X5435345Y5576315D01*
X5424931Y5576315D01*
X5563108Y5576315D02*
G01*
X5511291Y5576315D01*
X5505958Y5529579D01*
X5511291Y5534660D01*
X5526786Y5539994D01*
X5542279Y5539994D01*
X5558027Y5534660D01*
X5568441Y5524500D01*
X5573522Y5508752D01*
X5573522Y5498337D01*
X5568441Y5482844D01*
X5558027Y5472429D01*
X5542279Y5467350D01*
X5526786Y5467350D01*
X5511291Y5472429D01*
X5505958Y5477510D01*
X5500877Y5487923D01*
X2667000Y5601715D02*
G01*
X2667000Y5492750D01*
X2667000Y5601715D02*
G01*
X2708656Y5492750D01*
X2750058Y5601715D02*
G01*
X2708656Y5492750D01*
X2750058Y5601715D02*
G01*
X2750058Y5492750D01*
X2815590Y5601715D02*
G01*
X2805175Y5596636D01*
X2794761Y5586221D01*
X2789681Y5575807D01*
X2784347Y5560060D01*
X2784347Y5534152D01*
X2789681Y5518657D01*
X2794761Y5508244D01*
X2805175Y5497829D01*
X2815590Y5492750D01*
X2836418Y5492750D01*
X2846831Y5497829D01*
X2857245Y5508244D01*
X2862325Y5518657D01*
X2867659Y5534152D01*
X2867659Y5560060D01*
X2862325Y5575807D01*
X2857245Y5586221D01*
X2846831Y5596636D01*
X2836418Y5601715D01*
X2815590Y5601715D01*
X2938272Y5601715D02*
G01*
X2938272Y5492750D01*
X2901950Y5601715D02*
G01*
X2974593Y5601715D01*
X3040125Y5601715D02*
G01*
X3029711Y5596636D01*
X3019297Y5586221D01*
X3013963Y5575807D01*
X3008884Y5560060D01*
X3008884Y5534152D01*
X3013963Y5518657D01*
X3019297Y5508244D01*
X3029711Y5497829D01*
X3040125Y5492750D01*
X3060700Y5492750D01*
X3071113Y5497829D01*
X3081527Y5508244D01*
X3086861Y5518657D01*
X3091941Y5534152D01*
X3091941Y5560060D01*
X3086861Y5575807D01*
X3081527Y5586221D01*
X3071113Y5596636D01*
X3060700Y5601715D01*
X3040125Y5601715D01*
X3126231Y5601715D02*
G01*
X3126231Y5492750D01*
X3126231Y5601715D02*
G01*
X3172968Y5601715D01*
X3188715Y5596636D01*
X3193795Y5591302D01*
X3199129Y5580887D01*
X3199129Y5570473D01*
X3193795Y5560060D01*
X3188715Y5554979D01*
X3172968Y5549900D01*
X3126231Y5549900D01*
X3162554Y5549900D02*
G01*
X3199129Y5492750D01*
X3233420Y5456173D02*
G01*
X3326891Y5456173D01*
X3361181Y5580887D02*
G01*
X3371595Y5586221D01*
X3387090Y5601715D01*
X3387090Y5492750D01*
G36*
X6516725Y1905000D02*
G01*
X6516725Y1574800D01*
X6526276Y1584553D01*
X6535267Y1594815D01*
X6543649Y1605635D01*
X6551371Y1616913D01*
X6558381Y1628648D01*
X6564680Y1640789D01*
X6570218Y1653286D01*
X6575044Y1666087D01*
X6579057Y1679143D01*
X6582308Y1692402D01*
X6584746Y1705864D01*
X6586372Y1719427D01*
X6587185Y1733042D01*
X6587185Y1746757D01*
X6586372Y1760372D01*
X6584746Y1773936D01*
X6582308Y1787398D01*
X6579057Y1800656D01*
X6575044Y1813712D01*
X6570218Y1826514D01*
X6564680Y1839010D01*
X6558381Y1851152D01*
X6551371Y1862886D01*
X6543649Y1874164D01*
X6535267Y1884984D01*
X6526276Y1895246D01*
G37*
G36*
X5867400Y4811674D02*
G01*
X5877153Y4802124D01*
X5887415Y4793132D01*
X5898235Y4784750D01*
X5909513Y4777028D01*
X5921248Y4770018D01*
X5933389Y4763719D01*
X5945886Y4758182D01*
X5958687Y4753356D01*
X5971743Y4749342D01*
X5985002Y4746091D01*
X5998464Y4743653D01*
X6012027Y4742027D01*
X6025642Y4741214D01*
X6039358Y4741214D01*
X6052972Y4742027D01*
X6066536Y4743653D01*
X6079998Y4746091D01*
X6093256Y4749342D01*
X6106312Y4753356D01*
X6119114Y4758182D01*
X6131610Y4763719D01*
X6143752Y4770018D01*
X6155486Y4777028D01*
X6166764Y4784750D01*
X6177584Y4793132D01*
X6187846Y4802124D01*
X6197600Y4811674D01*
G37*
G36*
X1231900Y1981200D02*
G01*
X1130300Y1955800D01*
X927100Y1828800D01*
X1638300Y1828800D01*
X1536700Y1905000D01*
X1384300Y1955800D01*
G37*
G36*
X1231900Y4241800D02*
G01*
X1130300Y4216400D01*
X927100Y4089400D01*
X1638300Y4089400D01*
X1536700Y4165600D01*
X1384300Y4216400D01*
G37*
G36*
X5346700Y2197100D02*
G01*
X5245100Y2171700D01*
X5041900Y2044700D01*
X5753100Y2044700D01*
X5651500Y2120900D01*
X5499100Y2171700D01*
G37*
D22*
X6527800Y4737100D02*
G01*
X6276340Y4737100D01*
X6276340Y5245100D01*
X6527800Y5245100D01*
X6527800Y4737100D01*
X6807200Y4737100D02*
G01*
X6555740Y4737100D01*
X6555740Y5245100D01*
X6807200Y5245100D01*
X6807200Y4737100D01*
D10*
X6578600Y3530600D02*
G01*
X6324600Y3530600D01*
X6070600Y3530600D01*
X6070600Y3784600D01*
X6578600Y3784600D01*
X6578600Y3530600D01*
X6578600Y3657600D02*
G01*
X6680200Y3657600D01*
X6070600Y3657600D02*
G01*
X5994400Y3657600D01*
X7950200Y2590800D02*
G01*
X7950200Y2844800D01*
X7950200Y3098800D01*
X8204200Y3098800D01*
X8204200Y2590800D01*
X7950200Y2590800D01*
X8077200Y2590800D02*
G01*
X8077200Y2489200D01*
X8077200Y3098800D02*
G01*
X8077200Y3175000D01*
X6185687Y1889887D02*
G01*
X6287287Y1889887D01*
X6237300Y1939899D02*
G01*
X6237300Y1838299D01*
X6182486Y5142712D02*
G01*
X6182486Y5041112D01*
X6232499Y5091099D02*
G01*
X6130899Y5091099D01*
X5496686Y3626993D02*
G01*
X5496686Y3231006D01*
D22*
X9715500Y4114800D02*
G01*
X9715500Y4305300D01*
X9461500Y4305300D01*
X9461500Y2781300D01*
X9715500Y2781300D01*
D23*
X9715500Y2781300D02*
G01*
X9715500Y4114800D01*
D10*
X1282700Y1016000D02*
G01*
X1282700Y1117600D01*
X1206500Y1066800D02*
G01*
X1358900Y1066800D01*
X1282700Y3276600D02*
G01*
X1282700Y3378200D01*
X1206500Y3327400D02*
G01*
X1358900Y3327400D01*
D23*
X4648200Y3556000D02*
G01*
X4648200Y3238500D01*
D22*
X4648200Y3556000D02*
G01*
X4902200Y3556000D01*
X4902200Y3048000D01*
X4648200Y3048000D01*
X4648200Y3238500D01*
X6985000Y4762500D02*
G01*
X6985000Y4572000D01*
X7239000Y4572000D01*
X7239000Y5334000D01*
X6985000Y5334000D01*
D23*
X6985000Y5334000D02*
G01*
X6985000Y4762500D01*
D10*
X5397500Y1231900D02*
G01*
X5397500Y1333500D01*
X5321300Y1282700D02*
G01*
X5473700Y1282700D01*
X8724900Y1765300D02*
G01*
X7962900Y1765300D01*
X7962900Y2019300D01*
X8724900Y2019300D02*
G01*
X7962900Y2019300D01*
X8724900Y1765300D02*
G01*
X8724900Y2019300D01*
X8466056Y1765300D02*
G01*
X8466056Y2019300D01*
D24*
X3187700Y3213354D02*
G01*
X3187700Y1155445D01*
X2171700Y2946400D02*
G01*
X1904745Y2946400D01*
X1904745Y1155445D01*
X3454654Y1155445D01*
X3454654Y3213354D01*
X2171700Y3213354D01*
X2171700Y2946400D01*
X2171700Y1155445D01*
X2044700Y3213354D02*
G01*
X1904745Y3213354D01*
X1904745Y3073400D01*
D10*
X4826000Y2171700D02*
G01*
X4826000Y1168907D01*
X4066006Y1168907D01*
X4066006Y2171700D01*
X4826000Y2171700D01*
D25*
X4965700Y4622800D02*
G01*
X4965700Y4368800D01*
X4152900Y4368800D01*
X4152900Y4876800D01*
X4965700Y4876800D01*
X4965700Y4622800D01*
D22*
X1409700Y4381500D02*
G01*
X1155700Y4381500D01*
X1155700Y5397500D01*
X1409700Y5397500D01*
X1409700Y5207000D01*
D23*
X1409700Y4381500D02*
G01*
X1409700Y5207000D01*
D22*
X1397000Y2070100D02*
G01*
X1143000Y2070100D01*
X1143000Y3086100D01*
X1397000Y3086100D01*
X1397000Y2895600D01*
D23*
X1397000Y2070100D02*
G01*
X1397000Y2895600D01*
D10*
X7315200Y5448300D02*
G01*
X9347200Y5448300D01*
X9347200Y1384300D01*
X7315200Y1384300D01*
X7315200Y5448300D01*
X5508396Y5322696D02*
G01*
X4448403Y5322696D01*
X4448302Y5372607D02*
G01*
X5508497Y5372607D01*
X5508497Y4892802D01*
X4448302Y4892802D01*
X4448302Y5372100D01*
X4448302Y5372607D01*
D24*
X3200400Y5448554D02*
G01*
X3200400Y3390645D01*
X2184400Y5181600D02*
G01*
X1917445Y5181600D01*
X1917445Y3390645D01*
X3467354Y3390645D01*
X3467354Y5448554D01*
X2184400Y5448554D01*
X2184400Y5181600D01*
X2184400Y3390645D01*
X2057400Y5448554D02*
G01*
X1917445Y5448554D01*
X1917445Y5308600D01*
D10*
G75*
G01*
X5220716Y3643376D02*
G03*
X5225555Y3211853I125982J-214376D01*
D27*
G75*
G01*
X4701540Y4846320D02*
G03*
X4701794Y4846320I127J-20000D01*
D26*
G75*
G01
X6587312Y1739900D02*
G03X6587312Y1739900I-250012J0D01*
G75*
G01
X6282512Y4991100D02*
G03X6282512Y4991100I-250012J0D01*
D10*
G75*
G01
X1782572Y1473200D02*
G03X1782572Y1473200I-499872J0D01*
G75*
G01
X1782572Y3733800D02*
G03X1782572Y3733800I-499872J0D01*
G75*
G01
X5897372Y1689100D02*
G03X5897372Y1689100I-499872J0D01*
M02*
