G04 Layer: BottomLayer*
G04 EasyEDA v6.4.19.4, 2021-05-27T12:50:32+05:30*
G04 Gerber Generator version 0.2*
G04 Scale: 100 percent, Rotated: No, Reflected: No *
G04 Dimensions in millimeters *
G04 leading zeros omitted , absolute positions ,4 integer and 5 decimal *
%FSLAX45Y45*%
%MOMM*%

%ADD11C,1.6000*%
%ADD12C,1.5000*%
%ADD13C,2.0000*%
%ADD14C,1.0000*%
%ADD15C,2.5000*%
%ADD16C,2.3000*%
%ADD17R,2.0000X2.0000*%
%ADD18C,2.5000*%
%ADD19C,1.7000*%
%ADD20C,3.0000*%

%LPD*%
D12*
X6210300Y5435600D02*
G01*
X6057900Y5435600D01*
X5791200Y5168900D01*
X5791200Y4787900D01*
X6210300Y4368800D01*
D14*
X5969000Y2298700D02*
G01*
X5981700Y2286000D01*
X5981700Y1320800D01*
X9055100Y1231900D02*
G01*
X9410700Y1231900D01*
X9563100Y1079500D01*
X7112000Y3898900D02*
G01*
X7112000Y2933700D01*
X7124700Y2921000D01*
X4406900Y3086100D02*
G01*
X4406900Y2286000D01*
X3835400Y1714500D01*
X3835400Y1701800D01*
X2654300Y2781300D02*
G01*
X2654300Y2070100D01*
X3683000Y1346200D02*
G01*
X3403600Y1066800D01*
X3124200Y1066800D01*
X4038600Y3111500D02*
G01*
X4038600Y2260600D01*
X3670300Y3060700D02*
G01*
X3670300Y2565400D01*
X3683000Y2552700D01*
X3987800Y5041900D02*
G01*
X4038600Y5041900D01*
X4038600Y3454400D01*
X4406900Y3086100D01*
D12*
X3835400Y4470400D02*
G01*
X3835400Y4787900D01*
X3670300Y4953000D01*
X3670300Y5257800D01*
X3683000Y5270500D01*
X4965700Y4356100D02*
G01*
X5003800Y4318000D01*
X5003800Y3670300D01*
X6781800Y4457700D02*
G01*
X6426200Y4102100D01*
X6426200Y2476500D01*
X6629400Y2273300D01*
X6781800Y2273300D01*
X2374900Y1663700D02*
G01*
X2374900Y3073400D01*
X2743200Y3441700D01*
X2743200Y4064000D01*
X2387600Y4419600D01*
X2387600Y5524500D01*
D11*
X2387600Y5524500D02*
G01*
X3314700Y5524500D01*
X3365500Y5575300D01*
X5346700Y5575300D01*
X5600700Y5321300D01*
X8724900Y5537200D02*
G01*
X6921500Y5537200D01*
X6680200Y5295900D01*
D17*
G01*
X6400800Y5118100D03*
D13*
G01*
X6400800Y4864100D03*
D17*
G01*
X6680200Y5118100D03*
D13*
G01*
X6680200Y4864100D03*
D18*
G01*
X6832600Y3657600D03*
G01*
X5832602Y3657600D03*
G01*
X8077200Y2336800D03*
G01*
X8077200Y3336797D03*
D19*
G01*
X6237300Y1739900D03*
G01*
X6437299Y1739900D03*
G01*
X6032500Y5091099D03*
G01*
X6032500Y4891100D03*
D13*
G01*
X5346700Y3683000D03*
G01*
X5346700Y3429000D03*
G36*
X5246700Y3274999D02*
G01*
X5446699Y3274999D01*
X5446699Y3075000D01*
X5246700Y3075000D01*
G37*
G01*
X9588500Y2908300D03*
G01*
X9588500Y3162300D03*
G01*
X9588500Y3416300D03*
G01*
X9588500Y3670300D03*
G01*
X9588500Y3924300D03*
D17*
G01*
X9588500Y4178300D03*
D20*
G01*
X1282700Y1219200D03*
G01*
X1282700Y1727200D03*
G01*
X1282700Y3479800D03*
G01*
X1282700Y3987800D03*
D17*
G01*
X4775200Y3175000D03*
D13*
G01*
X4775200Y3429000D03*
G01*
X7112000Y5207000D03*
G01*
X7112000Y4953000D03*
D17*
G01*
X7112000Y4699000D03*
D20*
G01*
X5397500Y1435100D03*
G01*
X5397500Y1943100D03*
D13*
G01*
X8089900Y1892300D03*
G01*
X8343900Y1892300D03*
D17*
G01*
X8597900Y1892300D03*
G36*
X1944700Y3173399D02*
G01*
X2144699Y3173399D01*
X2144699Y2973400D01*
X1944700Y2973400D01*
G37*
D13*
G01*
X3314700Y1295400D03*
G01*
X2044700Y2819400D03*
G01*
X3314700Y1549400D03*
G01*
X2044700Y2565400D03*
G01*
X3314700Y1803400D03*
G01*
X2044700Y2311400D03*
G01*
X3314700Y2057400D03*
G01*
X2044700Y2057400D03*
G01*
X3314700Y2311400D03*
G01*
X2044700Y1803400D03*
G01*
X3314700Y2565400D03*
G01*
X2044700Y1549400D03*
G01*
X3314700Y2819400D03*
G01*
X2044700Y1295400D03*
G01*
X3314700Y3073400D03*
D20*
G01*
X4388510Y1921002D03*
G01*
X4388510Y1419605D03*
D18*
G01*
X4305300Y4622800D03*
G01*
X4813300Y4622800D03*
D17*
G01*
X1282700Y5270500D03*
D13*
G01*
X1282700Y5016500D03*
G01*
X1282700Y4762500D03*
G01*
X1282700Y4508500D03*
D17*
G01*
X1270000Y2959100D03*
D13*
G01*
X1270000Y2705100D03*
G01*
X1270000Y2451100D03*
G01*
X1270000Y2197100D03*
G36*
X8993200Y5294299D02*
G01*
X9193199Y5294299D01*
X9193199Y5094300D01*
X8993200Y5094300D01*
G37*
G01*
X9093200Y4940300D03*
G01*
X9093200Y4686300D03*
G01*
X9093200Y4432300D03*
G01*
X9093200Y4178300D03*
G01*
X9093200Y3924300D03*
G01*
X9093200Y3670300D03*
G01*
X9093200Y3416300D03*
G01*
X9093200Y3162300D03*
G01*
X9093200Y2908300D03*
G01*
X9093200Y2654300D03*
G01*
X9093200Y2400300D03*
G01*
X9093200Y2146300D03*
G01*
X9093200Y1892300D03*
G01*
X9093200Y1638300D03*
G01*
X7569200Y1638300D03*
G01*
X7569200Y1892300D03*
G01*
X7569200Y2146300D03*
G01*
X7569200Y2400300D03*
G01*
X7569200Y2654300D03*
G01*
X7569200Y2908300D03*
G01*
X7569200Y3162300D03*
G01*
X7569200Y3416300D03*
G01*
X7569200Y3670300D03*
G01*
X7569200Y3924300D03*
G01*
X7569200Y4178300D03*
G01*
X7569200Y4432300D03*
G01*
X7569200Y4686300D03*
G01*
X7569200Y4940300D03*
G01*
X7569200Y5194300D03*
G36*
X4624324Y5217668D02*
G01*
X4824475Y5217668D01*
X4824475Y4967731D01*
X4624324Y4967731D01*
G37*
G36*
X1957400Y5408599D02*
G01*
X2157399Y5408599D01*
X2157399Y5208600D01*
X1957400Y5208600D01*
G37*
G01*
X3327400Y3530600D03*
G01*
X2057400Y5054600D03*
G01*
X3327400Y3784600D03*
G01*
X2057400Y4800600D03*
G01*
X3327400Y4038600D03*
G01*
X2057400Y4546600D03*
G01*
X3327400Y4292600D03*
G01*
X2057400Y4292600D03*
G01*
X3327400Y4546600D03*
G01*
X2057400Y4038600D03*
G01*
X3327400Y4800600D03*
G01*
X2057400Y3784600D03*
G01*
X3327400Y5054600D03*
G01*
X2057400Y3530600D03*
G01*
X3327400Y5308600D03*
D15*
G01*
X3670300Y3060700D03*
G01*
X3683000Y2552700D03*
G01*
X4038600Y3111500D03*
G01*
X4038600Y2260600D03*
G01*
X3124200Y1066800D03*
G01*
X3683000Y1346200D03*
G01*
X2654300Y2070100D03*
G01*
X2654300Y2781300D03*
G01*
X4406900Y3086100D03*
G01*
X3835400Y1701800D03*
D13*
G01*
X7150100Y2209800D03*
G01*
X7150100Y1955800D03*
G01*
X7150100Y2463800D03*
G01*
X7150100Y1714500D03*
G01*
X7150100Y1473200D03*
G01*
X6896100Y1460500D03*
G01*
X6642100Y1460500D03*
D15*
G01*
X3987800Y5041900D03*
G01*
X7124700Y2921000D03*
G01*
X7112000Y3898900D03*
G01*
X9563100Y1079500D03*
D13*
G01*
X9055100Y1231900D03*
D15*
G01*
X5981700Y1320800D03*
G01*
X5969000Y2298700D03*
G01*
X3683000Y5270500D03*
G01*
X3835400Y4470400D03*
G01*
X5003800Y3670300D03*
G01*
X4965700Y4356100D03*
G01*
X6781800Y2273300D03*
G01*
X6781800Y4457700D03*
G01*
X2374900Y1663700D03*
G01*
X2425700Y3530600D03*
G01*
X2387600Y5524500D03*
G01*
X6210300Y5435600D03*
G01*
X6210300Y4368800D03*
D16*
G01*
X5600700Y5321300D03*
D15*
G01*
X8724900Y5537200D03*
G01*
X6680200Y5295900D03*
D13*
X4978400Y5117698D02*
G01*
X4978400Y5067698D01*
X5232400Y5117698D02*
G01*
X5232400Y5067698D01*
M02*
