M48
METRIC,LZ,000.000
;FILE_FORMAT=3:3
;TYPE=PLATED
;Layer: Drill PTH
;EasyEDA v6.4.19.4, 2021-06-18T20:22:14+05:30
;545d4b8ce55c4096bfffc31d6a5384ca,10
;Gerber Generator version 0.2
;Holesize 1 = 1.000 mm
T01C1.000
%
G05
G90
T01
X034544Y044831
X032004Y044831
X032004Y036068
X034544Y036068
X028702Y043942
X028702Y033942
X025781Y047244
X025781Y037244
X017399Y047117
X014859Y047117
X012319Y047117
X009779Y047117
X017399Y039497
X014859Y039497
X012319Y039497
X009779Y039497
X009779Y035179
X012319Y035179
X014859Y035179
X017399Y035179
X019939Y035179
X021209Y046355
X021209Y041275
M30
