G04 Layer: TopSolderMaskLayer*
G04 EasyEDA v6.4.19.4, 2021-04-26T19:44:21+05:30*
G04 545d4b8ce55c4096bfffc31d6a5384ca,10*
G04 Gerber Generator version 0.2*
G04 Scale: 100 percent, Rotated: No, Reflected: No *
G04 Dimensions in millimeters *
G04 leading zeros omitted , absolute positions ,4 integer and 5 decimal *
%FSLAX45Y45*%
%MOMM*%

%ADD24C,2.1016*%
%ADD25C,1.7016*%
%ADD27C,1.6764*%
%ADD28C,3.2032*%
%ADD29C,1.8796*%
%ADD31C,1.9532*%

%LPD*%
D24*
X2743200Y3314298D02*
G01*
X2743200Y3264298D01*
X2997200Y3314298D02*
G01*
X2997200Y3264298D01*
D25*
G01*
X4991100Y3238500D03*
G01*
X4483100Y3238500D03*
G01*
X2984500Y4140200D03*
G01*
X2476500Y4140200D03*
G36*
X233679Y2519679D02*
G01*
X233679Y2687320D01*
X401320Y2687320D01*
X401320Y2519679D01*
G37*
D27*
G01*
X571500Y2603500D03*
G36*
X3954779Y3383279D02*
G01*
X3954779Y3550920D01*
X4122420Y3550920D01*
X4122420Y3383279D01*
G37*
G01*
X4038600Y3213100D03*
G36*
X3700779Y3383279D02*
G01*
X3700779Y3550920D01*
X3868420Y3550920D01*
X3868420Y3383279D01*
G37*
G01*
X3784600Y3213100D03*
G36*
X3446779Y3383279D02*
G01*
X3446779Y3550920D01*
X3614420Y3550920D01*
X3614420Y3383279D01*
G37*
G01*
X3530600Y3213100D03*
D25*
G01*
X1524000Y3467100D03*
G01*
X1524000Y2959100D03*
D27*
G01*
X3683000Y6921500D03*
G01*
X3429000Y6921500D03*
G36*
X3091179Y6837679D02*
G01*
X3091179Y7005320D01*
X3258820Y7005320D01*
X3258820Y6837679D01*
G37*
G01*
X990600Y6908800D03*
G01*
X736600Y6908800D03*
G36*
X398779Y6824979D02*
G01*
X398779Y6992620D01*
X566420Y6992620D01*
X566420Y6824979D01*
G37*
D28*
G01*
X879602Y4234789D03*
G01*
X378205Y4234789D03*
G01*
X5070602Y4222089D03*
G01*
X4569206Y4222089D03*
G01*
X4016502Y4222089D03*
G01*
X3515106Y4222089D03*
G01*
X627989Y2993897D03*
G01*
X627989Y3495294D03*
G01*
X1933702Y4234789D03*
G01*
X1432305Y4234789D03*
D29*
G01*
X2159000Y2781300D03*
G01*
X2667000Y2781300D03*
G01*
X3492500Y2781300D03*
G01*
X2984500Y2781300D03*
G36*
X2384043Y3159252D02*
G01*
X2384043Y3419347D01*
X2594356Y3419347D01*
X2594356Y3159252D01*
G37*
D31*
G01*
X3302000Y4940300D03*
G01*
X3810000Y4940300D03*
G01*
X3556000Y4940300D03*
G01*
X4064000Y4940300D03*
G01*
X4318000Y4940300D03*
G01*
X4572000Y4940300D03*
G01*
X4826000Y4940300D03*
G01*
X5080000Y4940300D03*
G01*
X3302000Y6464300D03*
G01*
X3810000Y6464300D03*
G01*
X3556000Y6464300D03*
G01*
X4064000Y6464300D03*
G01*
X4318000Y6464300D03*
G01*
X4572000Y6464300D03*
G01*
X4826000Y6464300D03*
G01*
X5080000Y6464300D03*
G01*
X584200Y4914900D03*
G01*
X1092200Y4914900D03*
G01*
X838200Y4914900D03*
G01*
X1346200Y4914900D03*
G01*
X1600200Y4914900D03*
G01*
X1854200Y4914900D03*
G01*
X2108200Y4914900D03*
G01*
X2362200Y4914900D03*
G01*
X584200Y6438900D03*
G01*
X1092200Y6438900D03*
G01*
X838200Y6438900D03*
G01*
X1346200Y6438900D03*
G01*
X1600200Y6438900D03*
G01*
X1854200Y6438900D03*
G01*
X2108200Y6438900D03*
G01*
X2362200Y6438900D03*
M02*
