M48
METRIC,LZ,000.000
;FILE_FORMAT=3:3
;TYPE=PLATED
;Layer: Drill PTH
;EasyEDA v6.4.19.4, 2021-04-26T19:44:21+05:30
;545d4b8ce55c4096bfffc31d6a5384ca,10
;Gerber Generator version 0.2
;Holesize 1 = 0.712 mm
T01C0.712
;Holesize 2 = 0.889 mm
T02C0.889
;Holesize 3 = 1.000 mm
T03C1.000
;Holesize 4 = 1.021 mm
T04C1.021
;Holesize 5 = 1.101 mm
T05C1.101
;Holesize 6 = 1.400 mm
T06C1.400
%
G05
G90
T01
X021590Y027813
X026670Y027813
X034925Y027813
X029845Y027813
T02
X003175Y026035
X005715Y026035
X040386Y034671
X040386Y032131
X037846Y034671
X037846Y032131
X035306Y034671
X035306Y032131
T03
X049911Y032385
X044831Y032385
X029845Y041402
X024765Y041402
X015240Y034671
X015240Y029591
T04
X036830Y069215
X034290Y069215
X031750Y069215
X009906Y069088
X007366Y069088
X004826Y069088
X033020Y049403
X038100Y049403
X035560Y049403
X040640Y049403
X043180Y049403
X045720Y049403
X048260Y049403
X050800Y049403
X033020Y064643
X038100Y064643
X035560Y064643
X040640Y064643
X043180Y064643
X045720Y064643
X048260Y064643
X050800Y064643
X005842Y049149
X010922Y049149
X008382Y049149
X013462Y049149
X016002Y049149
X018542Y049149
X021082Y049149
X023622Y049149
X005842Y064389
X010922Y064389
X008382Y064389
X013462Y064389
X016002Y064389
X018542Y064389
X021082Y064389
X023622Y064389
T05
X008796Y042348
X003782Y042348
X050706Y042221
X045692Y042221
X040165Y042221
X035151Y042221
X006280Y029939
X006280Y034953
X019337Y042348
X014323Y042348
T06
X027432Y032893
X029972Y032893
X024892Y032893
M30
