G04 Layer: TopLayer*
G04 EasyEDA v6.4.19.4, 2021-04-26T19:44:21+05:30*
G04 545d4b8ce55c4096bfffc31d6a5384ca,10*
G04 Gerber Generator version 0.2*
G04 Scale: 100 percent, Rotated: No, Reflected: No *
G04 Dimensions in millimeters *
G04 leading zeros omitted , absolute positions ,4 integer and 5 decimal *
%FSLAX45Y45*%
%MOMM*%

%ADD11C,1.5000*%
%ADD12C,1.6000*%
%ADD13R,1.5748X1.5748*%
%ADD14C,1.5748*%
%ADD15C,3.0000*%
%ADD16C,1.7780*%
%ADD18C,1.7500*%
%ADD19C,2.0000*%

%LPD*%
G36*
X132588Y2451354D02*
G01*
X128676Y2452116D01*
X125425Y2454351D01*
X123189Y2457602D01*
X122428Y2461514D01*
X122428Y7080250D01*
X123189Y7084161D01*
X125425Y7087412D01*
X128676Y7089648D01*
X132588Y7090409D01*
X5653786Y7090409D01*
X5657697Y7089648D01*
X5660948Y7087412D01*
X5663184Y7084161D01*
X5663946Y7080250D01*
X5663946Y5666232D01*
X5663133Y5662218D01*
X5660847Y5658916D01*
X5657443Y5656732D01*
X5653430Y5656072D01*
X5649518Y5656986D01*
X5646267Y5659374D01*
X4929632Y6376009D01*
X4927447Y6379311D01*
X4926634Y6383223D01*
X4926634Y6410604D01*
X4927498Y6414719D01*
X4932172Y6425234D01*
X4936286Y6439103D01*
X4938623Y6453428D01*
X4939080Y6467906D01*
X4937658Y6482334D01*
X4934458Y6496507D01*
X4929428Y6510070D01*
X4922723Y6522923D01*
X4914442Y6534861D01*
X4904689Y6545580D01*
X4893665Y6554978D01*
X4881524Y6562852D01*
X4868468Y6569151D01*
X4854702Y6573723D01*
X4840478Y6576517D01*
X4826000Y6577431D01*
X4811522Y6576517D01*
X4797298Y6573723D01*
X4783531Y6569151D01*
X4776876Y6565950D01*
X4772456Y6564934D01*
X4625543Y6564934D01*
X4621123Y6565950D01*
X4614468Y6569151D01*
X4600702Y6573723D01*
X4586478Y6576517D01*
X4572000Y6577431D01*
X4557522Y6576517D01*
X4543298Y6573723D01*
X4529531Y6569151D01*
X4522876Y6565950D01*
X4518456Y6564934D01*
X4371543Y6564934D01*
X4367123Y6565950D01*
X4360468Y6569151D01*
X4346702Y6573723D01*
X4332478Y6576517D01*
X4318000Y6577431D01*
X4303522Y6576517D01*
X4289298Y6573723D01*
X4275531Y6569151D01*
X4268876Y6565950D01*
X4264456Y6564934D01*
X4117543Y6564934D01*
X4113123Y6565950D01*
X4106468Y6569151D01*
X4092701Y6573723D01*
X4078478Y6576517D01*
X4064000Y6577431D01*
X4049522Y6576517D01*
X4035298Y6573723D01*
X4021531Y6569151D01*
X4014876Y6565950D01*
X4010456Y6564934D01*
X3863543Y6564934D01*
X3859123Y6565950D01*
X3852468Y6569151D01*
X3838701Y6573723D01*
X3824478Y6576517D01*
X3810000Y6577431D01*
X3795522Y6576517D01*
X3781298Y6573723D01*
X3767531Y6569151D01*
X3754475Y6562852D01*
X3742334Y6554978D01*
X3731310Y6545580D01*
X3721557Y6534861D01*
X3713276Y6522923D01*
X3706571Y6510070D01*
X3701542Y6496507D01*
X3698341Y6482334D01*
X3696919Y6467906D01*
X3697376Y6453428D01*
X3699713Y6439103D01*
X3703828Y6425234D01*
X3708501Y6414719D01*
X3709365Y6410604D01*
X3709365Y6345123D01*
X3708552Y6341211D01*
X3706368Y6337909D01*
X3453790Y6085332D01*
X3450488Y6083147D01*
X3446576Y6082334D01*
X2458923Y6082334D01*
X2455011Y6083147D01*
X2451709Y6085332D01*
X2211832Y6325209D01*
X2209647Y6328511D01*
X2208834Y6332423D01*
X2208834Y6385204D01*
X2209698Y6389319D01*
X2214372Y6399834D01*
X2218486Y6413703D01*
X2220823Y6428028D01*
X2221280Y6442506D01*
X2219858Y6456934D01*
X2216658Y6471107D01*
X2211628Y6484670D01*
X2204923Y6497523D01*
X2196642Y6509461D01*
X2186889Y6520180D01*
X2175865Y6529578D01*
X2163724Y6537452D01*
X2150668Y6543751D01*
X2136902Y6548323D01*
X2122678Y6551117D01*
X2108200Y6552031D01*
X2093722Y6551117D01*
X2079498Y6548323D01*
X2065731Y6543751D01*
X2059076Y6540550D01*
X2054656Y6539534D01*
X1907743Y6539534D01*
X1903323Y6540550D01*
X1896668Y6543751D01*
X1882902Y6548323D01*
X1868678Y6551117D01*
X1854200Y6552031D01*
X1839722Y6551117D01*
X1825498Y6548323D01*
X1811731Y6543751D01*
X1805076Y6540550D01*
X1800656Y6539534D01*
X1653743Y6539534D01*
X1649323Y6540550D01*
X1642668Y6543751D01*
X1628901Y6548323D01*
X1614678Y6551117D01*
X1600200Y6552031D01*
X1585722Y6551117D01*
X1571498Y6548323D01*
X1557731Y6543751D01*
X1551076Y6540550D01*
X1546656Y6539534D01*
X1399743Y6539534D01*
X1395323Y6540550D01*
X1388668Y6543751D01*
X1374902Y6548323D01*
X1360678Y6551117D01*
X1346200Y6552031D01*
X1331722Y6551117D01*
X1317498Y6548323D01*
X1303731Y6543751D01*
X1297076Y6540550D01*
X1292656Y6539534D01*
X1145743Y6539534D01*
X1141323Y6540550D01*
X1134668Y6543751D01*
X1120902Y6548323D01*
X1106678Y6551117D01*
X1092200Y6552031D01*
X1077722Y6551117D01*
X1063498Y6548323D01*
X1049731Y6543751D01*
X1036675Y6537452D01*
X1024534Y6529578D01*
X1013510Y6520180D01*
X1003757Y6509461D01*
X995476Y6497523D01*
X988771Y6484670D01*
X983742Y6471107D01*
X980541Y6456934D01*
X979119Y6442506D01*
X979576Y6428028D01*
X981913Y6413703D01*
X986028Y6399834D01*
X991920Y6386576D01*
X999388Y6374180D01*
X1008430Y6362852D01*
X1018844Y6352743D01*
X1030478Y6344107D01*
X1043127Y6336995D01*
X1056538Y6331508D01*
X1070559Y6327851D01*
X1084935Y6326022D01*
X1099464Y6326022D01*
X1113840Y6327851D01*
X1127810Y6331508D01*
X1142339Y6337503D01*
X1146200Y6338265D01*
X1292199Y6338265D01*
X1296060Y6337503D01*
X1310589Y6331508D01*
X1324559Y6327851D01*
X1338935Y6326022D01*
X1353464Y6326022D01*
X1367840Y6327851D01*
X1381810Y6331508D01*
X1396339Y6337503D01*
X1400200Y6338265D01*
X1546199Y6338265D01*
X1550060Y6337503D01*
X1564589Y6331508D01*
X1578559Y6327851D01*
X1592935Y6326022D01*
X1607464Y6326022D01*
X1621840Y6327851D01*
X1635810Y6331508D01*
X1650339Y6337503D01*
X1654200Y6338265D01*
X1800199Y6338265D01*
X1804060Y6337503D01*
X1818589Y6331508D01*
X1832559Y6327851D01*
X1846935Y6326022D01*
X1861464Y6326022D01*
X1875840Y6327851D01*
X1889810Y6331508D01*
X1904339Y6337503D01*
X1908200Y6338265D01*
X1997405Y6338265D01*
X2001266Y6337452D01*
X2004568Y6335268D01*
X2006752Y6331966D01*
X2007565Y6328105D01*
X2007565Y6286855D01*
X2008428Y6273342D01*
X2011019Y6260439D01*
X2015236Y6247993D01*
X2021027Y6236208D01*
X2028342Y6225235D01*
X2037283Y6215075D01*
X2341575Y5910783D01*
X2351735Y5901842D01*
X2362708Y5894527D01*
X2374493Y5888736D01*
X2386939Y5884519D01*
X2399842Y5881928D01*
X2413355Y5881065D01*
X3492144Y5881065D01*
X3505657Y5881928D01*
X3518560Y5884519D01*
X3531006Y5888736D01*
X3542792Y5894527D01*
X3553764Y5901842D01*
X3563924Y5910783D01*
X3880916Y6227775D01*
X3889857Y6237935D01*
X3897172Y6248908D01*
X3902964Y6260693D01*
X3907180Y6273139D01*
X3909771Y6286042D01*
X3910634Y6299555D01*
X3910634Y6353505D01*
X3911447Y6357366D01*
X3913632Y6360668D01*
X3916934Y6362852D01*
X3920794Y6363665D01*
X4009999Y6363665D01*
X4013860Y6362903D01*
X4028389Y6356908D01*
X4042359Y6353251D01*
X4056735Y6351422D01*
X4071264Y6351422D01*
X4085640Y6353251D01*
X4099610Y6356908D01*
X4114139Y6362903D01*
X4118000Y6363665D01*
X4263999Y6363665D01*
X4267860Y6362903D01*
X4282389Y6356908D01*
X4296359Y6353251D01*
X4310735Y6351422D01*
X4325264Y6351422D01*
X4339640Y6353251D01*
X4353610Y6356908D01*
X4368139Y6362903D01*
X4372000Y6363665D01*
X4517999Y6363665D01*
X4521860Y6362903D01*
X4536389Y6356908D01*
X4550359Y6353251D01*
X4564735Y6351422D01*
X4579264Y6351422D01*
X4593640Y6353251D01*
X4607610Y6356908D01*
X4622139Y6362903D01*
X4626000Y6363665D01*
X4715205Y6363665D01*
X4719066Y6362852D01*
X4722368Y6360668D01*
X4724552Y6357366D01*
X4725365Y6353505D01*
X4725365Y6337655D01*
X4726228Y6324142D01*
X4728819Y6311239D01*
X4733036Y6298793D01*
X4738827Y6287008D01*
X4746142Y6276035D01*
X4755083Y6265875D01*
X5471668Y5549290D01*
X5473852Y5545988D01*
X5474665Y5542076D01*
X5474665Y4479442D01*
X5473852Y4475480D01*
X5471515Y4472127D01*
X5468112Y4469942D01*
X5464098Y4469282D01*
X5460187Y4470247D01*
X5456885Y4472635D01*
X5454853Y4476140D01*
X5452364Y4483506D01*
X5446572Y4495292D01*
X5439257Y4506264D01*
X5430316Y4516424D01*
X5183632Y4763109D01*
X5181447Y4766411D01*
X5180634Y4770323D01*
X5180634Y4886604D01*
X5181498Y4890719D01*
X5186172Y4901234D01*
X5190286Y4915103D01*
X5192623Y4929428D01*
X5193080Y4943906D01*
X5191658Y4958334D01*
X5188458Y4972507D01*
X5183428Y4986070D01*
X5176723Y4998923D01*
X5169763Y5008930D01*
X5168442Y5011674D01*
X5167934Y5014722D01*
X5167934Y5092344D01*
X5167071Y5105857D01*
X5164480Y5118760D01*
X5160264Y5131206D01*
X5154472Y5142992D01*
X5147157Y5153964D01*
X5138216Y5164124D01*
X4795824Y5506516D01*
X4785664Y5515457D01*
X4774692Y5522772D01*
X4762906Y5528564D01*
X4750460Y5532780D01*
X4737557Y5535371D01*
X4724044Y5536234D01*
X2718155Y5536234D01*
X2704642Y5535371D01*
X2691739Y5532780D01*
X2679293Y5528564D01*
X2667508Y5522772D01*
X2656535Y5515457D01*
X2646375Y5506516D01*
X2291283Y5151424D01*
X2282342Y5141264D01*
X2275027Y5130292D01*
X2269236Y5118506D01*
X2265019Y5106060D01*
X2262428Y5093157D01*
X2261565Y5079644D01*
X2261565Y4968544D01*
X2261260Y4966106D01*
X2258771Y4960670D01*
X2253742Y4947107D01*
X2250541Y4932934D01*
X2249119Y4918506D01*
X2249576Y4904028D01*
X2251913Y4889703D01*
X2256028Y4875834D01*
X2262073Y4862271D01*
X2263343Y4858969D01*
X2265019Y4850739D01*
X2269236Y4838293D01*
X2275027Y4826508D01*
X2282342Y4815535D01*
X2291283Y4805375D01*
X2880868Y4215790D01*
X2883052Y4212488D01*
X2883865Y4208576D01*
X2883865Y4173270D01*
X2883306Y4170019D01*
X2882442Y4167530D01*
X2879750Y4153966D01*
X2878886Y4140200D01*
X2879750Y4126433D01*
X2882442Y4112869D01*
X2883306Y4110380D01*
X2883865Y4107129D01*
X2883865Y4071823D01*
X2883052Y4067911D01*
X2880868Y4064609D01*
X2418283Y3602024D01*
X2409342Y3591864D01*
X2402027Y3580892D01*
X2396236Y3569106D01*
X2392019Y3556660D01*
X2389428Y3543757D01*
X2388565Y3530244D01*
X2388565Y3448202D01*
X2387701Y3444138D01*
X2385314Y3440785D01*
X2381758Y3438651D01*
X2378100Y3437331D01*
X2373223Y3434283D01*
X2369210Y3430270D01*
X2366162Y3425393D01*
X2364232Y3420008D01*
X2363571Y3413709D01*
X2363571Y3400094D01*
X2362758Y3396234D01*
X2360574Y3392932D01*
X2357272Y3390747D01*
X2353411Y3389934D01*
X1747723Y3389934D01*
X1743811Y3390747D01*
X1740509Y3392932D01*
X1618538Y3514902D01*
X1616659Y3517595D01*
X1615490Y3519932D01*
X1607820Y3531412D01*
X1598676Y3541776D01*
X1588312Y3550920D01*
X1576832Y3558590D01*
X1564436Y3564686D01*
X1551330Y3569157D01*
X1537766Y3571849D01*
X1524000Y3572713D01*
X1510233Y3571849D01*
X1496669Y3569157D01*
X1494180Y3568293D01*
X1490929Y3567734D01*
X794258Y3567734D01*
X790651Y3568395D01*
X787552Y3570274D01*
X785266Y3573119D01*
X778560Y3585718D01*
X768502Y3600704D01*
X756920Y3614572D01*
X743966Y3627221D01*
X729792Y3638448D01*
X714502Y3648151D01*
X698347Y3656228D01*
X681431Y3662629D01*
X663905Y3667201D01*
X646074Y3669995D01*
X627989Y3670909D01*
X609955Y3669995D01*
X592074Y3667201D01*
X574598Y3662629D01*
X557682Y3656228D01*
X541477Y3648151D01*
X526237Y3638448D01*
X512064Y3627221D01*
X499109Y3614572D01*
X487527Y3600704D01*
X477418Y3585718D01*
X468934Y3569766D01*
X462127Y3553002D01*
X457047Y3535629D01*
X453796Y3517849D01*
X452424Y3499815D01*
X452882Y3481730D01*
X454456Y3469690D01*
X454355Y3466592D01*
X453390Y3463696D01*
X451561Y3461207D01*
X246583Y3256229D01*
X237642Y3246069D01*
X230327Y3235096D01*
X224536Y3223310D01*
X220319Y3210864D01*
X217728Y3197961D01*
X216865Y3184448D01*
X216865Y2698089D01*
X216255Y2694635D01*
X213817Y2687878D01*
X213106Y2681681D01*
X213106Y2525318D01*
X213817Y2519070D01*
X215696Y2513634D01*
X218744Y2508808D01*
X222808Y2504744D01*
X227634Y2501696D01*
X233070Y2499817D01*
X239318Y2499106D01*
X395681Y2499106D01*
X401929Y2499817D01*
X407365Y2501696D01*
X412191Y2504744D01*
X416255Y2508808D01*
X419303Y2513634D01*
X421182Y2519070D01*
X421893Y2525318D01*
X421893Y2681681D01*
X421182Y2687878D01*
X418744Y2694635D01*
X418134Y2698089D01*
X418134Y3138881D01*
X418947Y3142792D01*
X421132Y3146094D01*
X593750Y3318713D01*
X597560Y3321100D01*
X601980Y3321659D01*
X618947Y3319881D01*
X637032Y3319881D01*
X655015Y3321761D01*
X672744Y3325418D01*
X689965Y3330956D01*
X706526Y3338169D01*
X722274Y3347110D01*
X737006Y3357575D01*
X744220Y3363925D01*
X747369Y3365804D01*
X750925Y3366465D01*
X1478076Y3366465D01*
X1481988Y3365652D01*
X1485290Y3363468D01*
X1630375Y3218383D01*
X1640535Y3209442D01*
X1651507Y3202127D01*
X1663293Y3196336D01*
X1675739Y3192119D01*
X1688642Y3189528D01*
X1702155Y3188665D01*
X2297887Y3188665D01*
X2301748Y3187852D01*
X2305050Y3185668D01*
X2307234Y3182366D01*
X2308047Y3178505D01*
X2307234Y3174593D01*
X2305050Y3171291D01*
X2088083Y2954324D01*
X2079142Y2944164D01*
X2071827Y2933192D01*
X2066036Y2921406D01*
X2061819Y2908960D01*
X2059228Y2896057D01*
X2058365Y2882544D01*
X2058365Y2838145D01*
X2057400Y2833827D01*
X2052523Y2823464D01*
X2048052Y2809798D01*
X2045360Y2795676D01*
X2044446Y2781300D01*
X2045360Y2766923D01*
X2048052Y2752801D01*
X2052523Y2739136D01*
X2058619Y2726131D01*
X2066340Y2713990D01*
X2075484Y2702915D01*
X2086000Y2693060D01*
X2097633Y2684576D01*
X2110232Y2677668D01*
X2123592Y2672384D01*
X2137562Y2668778D01*
X2151786Y2667000D01*
X2166213Y2667000D01*
X2180437Y2668778D01*
X2194407Y2672384D01*
X2207768Y2677668D01*
X2220366Y2684576D01*
X2231999Y2693060D01*
X2242515Y2702915D01*
X2251659Y2713990D01*
X2259380Y2726131D01*
X2265476Y2739136D01*
X2269947Y2752801D01*
X2272639Y2766923D01*
X2273554Y2781300D01*
X2272639Y2795676D01*
X2269947Y2809798D01*
X2265476Y2823464D01*
X2261006Y2833014D01*
X2260041Y2837027D01*
X2260752Y2841091D01*
X2262987Y2844546D01*
X2554122Y3135680D01*
X2557424Y3137865D01*
X2561285Y3138627D01*
X2588615Y3138627D01*
X2594914Y3139338D01*
X2600299Y3141268D01*
X2605176Y3144316D01*
X2609189Y3148330D01*
X2612237Y3153206D01*
X2614168Y3158591D01*
X2614879Y3164890D01*
X2614879Y3197758D01*
X2615793Y3202025D01*
X2618435Y3205480D01*
X2622296Y3207562D01*
X2626664Y3207766D01*
X2630678Y3206191D01*
X2633726Y3202990D01*
X2639822Y3192932D01*
X2649169Y3180994D01*
X2659888Y3170275D01*
X2671826Y3160928D01*
X2684830Y3153054D01*
X2686862Y3152140D01*
X2686862Y3220466D01*
X2624988Y3220466D01*
X2621127Y3221228D01*
X2617825Y3223412D01*
X2615641Y3226714D01*
X2614879Y3230626D01*
X2614879Y3347974D01*
X2615641Y3351885D01*
X2617825Y3355187D01*
X2621127Y3357372D01*
X2624988Y3358134D01*
X2686862Y3358134D01*
X2686862Y3426460D01*
X2684830Y3425545D01*
X2671826Y3417671D01*
X2659888Y3408324D01*
X2649169Y3397605D01*
X2639822Y3385667D01*
X2633726Y3375609D01*
X2630678Y3372408D01*
X2626664Y3370834D01*
X2622296Y3371037D01*
X2618435Y3373120D01*
X2615793Y3376574D01*
X2614879Y3380841D01*
X2614879Y3413709D01*
X2614168Y3420008D01*
X2612237Y3425393D01*
X2609189Y3430270D01*
X2605176Y3434283D01*
X2600299Y3437331D01*
X2596642Y3438651D01*
X2593086Y3440785D01*
X2590698Y3444138D01*
X2589834Y3448202D01*
X2589834Y3484676D01*
X2590647Y3488588D01*
X2592832Y3491890D01*
X3055416Y3954475D01*
X3064357Y3964635D01*
X3071672Y3975608D01*
X3077464Y3987393D01*
X3081680Y3999839D01*
X3084271Y4012742D01*
X3085134Y4026255D01*
X3085134Y4107129D01*
X3085693Y4110380D01*
X3086557Y4112869D01*
X3089249Y4126433D01*
X3090113Y4140200D01*
X3089249Y4153966D01*
X3086557Y4167530D01*
X3085693Y4170019D01*
X3085134Y4173270D01*
X3085134Y4254144D01*
X3084271Y4267657D01*
X3081680Y4280560D01*
X3077464Y4293006D01*
X3071672Y4304792D01*
X3064357Y4315764D01*
X3055416Y4325924D01*
X2478024Y4903368D01*
X2475738Y4906772D01*
X2475026Y4910836D01*
X2475280Y4918506D01*
X2473858Y4932934D01*
X2470658Y4947107D01*
X2465628Y4960670D01*
X2463139Y4966106D01*
X2462834Y4968544D01*
X2462834Y5034076D01*
X2463647Y5037988D01*
X2465832Y5041290D01*
X2756509Y5331968D01*
X2759811Y5334152D01*
X2763723Y5334965D01*
X4678476Y5334965D01*
X4682388Y5334152D01*
X4685690Y5331968D01*
X4963668Y5053990D01*
X4965852Y5050688D01*
X4966665Y5046776D01*
X4966665Y4953355D01*
X4967071Y4945176D01*
X4966919Y4943906D01*
X4967376Y4929428D01*
X4969713Y4915103D01*
X4973828Y4901234D01*
X4978501Y4890719D01*
X4979365Y4886604D01*
X4979365Y4724755D01*
X4980228Y4711242D01*
X4982819Y4698339D01*
X4987036Y4685893D01*
X4992827Y4674108D01*
X5000142Y4663135D01*
X5009083Y4652975D01*
X5255768Y4406290D01*
X5257952Y4402988D01*
X5258765Y4399076D01*
X5258765Y4274769D01*
X5257901Y4270806D01*
X5255615Y4267454D01*
X5252110Y4265269D01*
X5248097Y4264660D01*
X5244134Y4265625D01*
X5240883Y4268114D01*
X5238902Y4271721D01*
X5234940Y4284065D01*
X5227726Y4300626D01*
X5218836Y4316374D01*
X5208320Y4331106D01*
X5196382Y4344670D01*
X5183124Y4356963D01*
X5168646Y4367834D01*
X5153152Y4377131D01*
X5136794Y4384802D01*
X5119725Y4390745D01*
X5102098Y4394911D01*
X5083556Y4397248D01*
X5079796Y4398060D01*
X5076647Y4400194D01*
X4688332Y4788509D01*
X4686147Y4791811D01*
X4685334Y4795723D01*
X4685334Y4927244D01*
X4684826Y4936083D01*
X4685080Y4943906D01*
X4683658Y4958334D01*
X4680458Y4972507D01*
X4675428Y4986070D01*
X4668723Y4998923D01*
X4660442Y5010861D01*
X4650689Y5021580D01*
X4639665Y5030978D01*
X4627524Y5038852D01*
X4614468Y5045151D01*
X4600702Y5049723D01*
X4586478Y5052517D01*
X4572000Y5053431D01*
X4557522Y5052517D01*
X4543298Y5049723D01*
X4529531Y5045151D01*
X4516475Y5038852D01*
X4504334Y5030978D01*
X4493310Y5021580D01*
X4483557Y5010861D01*
X4475276Y4998923D01*
X4468571Y4986070D01*
X4463542Y4972507D01*
X4460341Y4958334D01*
X4458919Y4943906D01*
X4459376Y4929428D01*
X4461713Y4915103D01*
X4465828Y4901234D01*
X4471720Y4887976D01*
X4479188Y4875580D01*
X4481830Y4872278D01*
X4483455Y4869332D01*
X4484065Y4865979D01*
X4484065Y4750155D01*
X4484928Y4736642D01*
X4487519Y4723739D01*
X4491736Y4711293D01*
X4497527Y4699508D01*
X4504842Y4688535D01*
X4513783Y4678375D01*
X4902301Y4289856D01*
X4904486Y4286656D01*
X4905298Y4282897D01*
X4904638Y4279087D01*
X4903266Y4275531D01*
X4898694Y4258005D01*
X4895900Y4240174D01*
X4894986Y4222089D01*
X4895900Y4204055D01*
X4898694Y4186174D01*
X4903266Y4168698D01*
X4909667Y4151782D01*
X4917744Y4135577D01*
X4927447Y4120337D01*
X4938674Y4106164D01*
X4951323Y4093210D01*
X4965192Y4081627D01*
X4980178Y4071518D01*
X4996180Y4063034D01*
X5012893Y4056227D01*
X5030266Y4051147D01*
X5048046Y4047896D01*
X5066080Y4046524D01*
X5084165Y4046982D01*
X5102098Y4049318D01*
X5119725Y4053433D01*
X5136794Y4059377D01*
X5153152Y4067048D01*
X5168646Y4076395D01*
X5183124Y4087215D01*
X5196382Y4099509D01*
X5208320Y4113072D01*
X5218836Y4127855D01*
X5227726Y4143552D01*
X5234940Y4160164D01*
X5238902Y4172508D01*
X5240883Y4176064D01*
X5244134Y4178554D01*
X5248097Y4179570D01*
X5252110Y4178909D01*
X5255615Y4176776D01*
X5257901Y4173423D01*
X5258765Y4169410D01*
X5258765Y3436823D01*
X5257952Y3432911D01*
X5255768Y3429609D01*
X5168290Y3342132D01*
X5164988Y3339947D01*
X5161076Y3339134D01*
X5024170Y3339134D01*
X5020919Y3339693D01*
X5018430Y3340557D01*
X5004866Y3343249D01*
X4991100Y3344113D01*
X4977333Y3343249D01*
X4963769Y3340557D01*
X4950663Y3336086D01*
X4938268Y3329990D01*
X4926787Y3322320D01*
X4916424Y3313176D01*
X4907280Y3302812D01*
X4899609Y3291332D01*
X4893513Y3278936D01*
X4889042Y3265830D01*
X4886350Y3252266D01*
X4885486Y3238500D01*
X4886350Y3224733D01*
X4889042Y3211169D01*
X4893513Y3198063D01*
X4899609Y3185668D01*
X4907280Y3174187D01*
X4916424Y3163824D01*
X4926787Y3154680D01*
X4938268Y3147009D01*
X4950663Y3140913D01*
X4963769Y3136442D01*
X4977333Y3133750D01*
X4991100Y3132886D01*
X5004866Y3133750D01*
X5018430Y3136442D01*
X5020919Y3137306D01*
X5024170Y3137865D01*
X5206644Y3137865D01*
X5220157Y3138728D01*
X5233060Y3141319D01*
X5245506Y3145536D01*
X5257292Y3151327D01*
X5268264Y3158642D01*
X5278424Y3167583D01*
X5430316Y3319475D01*
X5439257Y3329635D01*
X5446572Y3340608D01*
X5452364Y3352393D01*
X5454853Y3359759D01*
X5456885Y3363214D01*
X5460187Y3365652D01*
X5464098Y3366617D01*
X5468112Y3365957D01*
X5471515Y3363772D01*
X5473852Y3360420D01*
X5474665Y3356457D01*
X5474665Y3271723D01*
X5473852Y3267811D01*
X5471668Y3264509D01*
X5092090Y2884932D01*
X5088788Y2882747D01*
X5084876Y2881934D01*
X3549294Y2881934D01*
X3546754Y2882290D01*
X3541268Y2884932D01*
X3526739Y2890570D01*
X3523284Y2892856D01*
X3227273Y3188868D01*
X3224885Y3192627D01*
X3224377Y3197047D01*
X3225749Y3201263D01*
X3228848Y3204514D01*
X3236264Y3209442D01*
X3246424Y3218383D01*
X3391509Y3363468D01*
X3394811Y3365652D01*
X3398723Y3366465D01*
X3436010Y3366465D01*
X3439464Y3365855D01*
X3446221Y3363417D01*
X3452418Y3362706D01*
X3608781Y3362706D01*
X3614978Y3363417D01*
X3621735Y3365855D01*
X3625189Y3366465D01*
X3690010Y3366465D01*
X3693464Y3365855D01*
X3700221Y3363417D01*
X3706418Y3362706D01*
X3862781Y3362706D01*
X3868978Y3363417D01*
X3875735Y3365855D01*
X3879189Y3366465D01*
X3944010Y3366465D01*
X3947464Y3365855D01*
X3954221Y3363417D01*
X3960418Y3362706D01*
X4116781Y3362706D01*
X4123029Y3363417D01*
X4128465Y3365296D01*
X4133291Y3368344D01*
X4137355Y3372408D01*
X4140403Y3377234D01*
X4142282Y3382670D01*
X4142994Y3388918D01*
X4142994Y3545281D01*
X4142282Y3551529D01*
X4140403Y3556965D01*
X4137355Y3561791D01*
X4133291Y3565855D01*
X4128465Y3568903D01*
X4123029Y3570782D01*
X4116781Y3571494D01*
X3960418Y3571494D01*
X3954221Y3570782D01*
X3947464Y3568344D01*
X3944010Y3567734D01*
X3879189Y3567734D01*
X3875735Y3568344D01*
X3868978Y3570782D01*
X3862781Y3571494D01*
X3706418Y3571494D01*
X3700221Y3570782D01*
X3693464Y3568344D01*
X3690010Y3567734D01*
X3625189Y3567734D01*
X3621735Y3568344D01*
X3614978Y3570782D01*
X3608781Y3571494D01*
X3452418Y3571494D01*
X3446221Y3570782D01*
X3439464Y3568344D01*
X3436010Y3567734D01*
X3353155Y3567734D01*
X3339642Y3566871D01*
X3326739Y3564280D01*
X3314293Y3560064D01*
X3302508Y3554272D01*
X3291535Y3546957D01*
X3281375Y3538016D01*
X3136290Y3392932D01*
X3132988Y3390747D01*
X3129076Y3389934D01*
X3102203Y3389934D01*
X3099155Y3390392D01*
X3096412Y3391763D01*
X3094177Y3393846D01*
X3091230Y3397605D01*
X3080512Y3408324D01*
X3068574Y3417671D01*
X3055569Y3425545D01*
X3041751Y3431794D01*
X3027273Y3436264D01*
X3012338Y3439007D01*
X2997200Y3439922D01*
X2982061Y3439007D01*
X2967126Y3436264D01*
X2952648Y3431794D01*
X2938830Y3425545D01*
X2925826Y3417671D01*
X2913888Y3408324D01*
X2903169Y3397605D01*
X2893822Y3385667D01*
X2885948Y3372662D01*
X2879445Y3358286D01*
X2877210Y3355136D01*
X2874264Y3353206D01*
X2874873Y3352393D01*
X2875838Y3348736D01*
X2875229Y3344367D01*
X2872486Y3329432D01*
X2871571Y3313988D01*
X2871571Y3264611D01*
X2872486Y3249168D01*
X2875381Y3233623D01*
X2875838Y3229864D01*
X2874873Y3226206D01*
X2874264Y3225393D01*
X2877261Y3223463D01*
X2879496Y3220313D01*
X2885948Y3205937D01*
X2893822Y3192932D01*
X2903169Y3180994D01*
X2913888Y3170275D01*
X2925826Y3160928D01*
X2938830Y3153054D01*
X2952648Y3146806D01*
X2967126Y3142335D01*
X2982061Y3139592D01*
X2988665Y3139186D01*
X2992221Y3138322D01*
X2995218Y3136239D01*
X3381248Y2750210D01*
X3382721Y2748330D01*
X3383737Y2746146D01*
X3386023Y2739136D01*
X3392119Y2726131D01*
X3399840Y2713990D01*
X3408984Y2702915D01*
X3419500Y2693060D01*
X3431133Y2684576D01*
X3443732Y2677668D01*
X3457092Y2672384D01*
X3471062Y2668778D01*
X3485286Y2667000D01*
X3499713Y2667000D01*
X3513937Y2668778D01*
X3527907Y2672384D01*
X3541268Y2677668D01*
X3546754Y2680309D01*
X3549294Y2680665D01*
X5130444Y2680665D01*
X5143957Y2681528D01*
X5156860Y2684119D01*
X5169306Y2688336D01*
X5181092Y2694127D01*
X5192064Y2701442D01*
X5202224Y2710383D01*
X5646267Y3154426D01*
X5649518Y3156813D01*
X5653430Y3157728D01*
X5657443Y3157067D01*
X5660847Y3154883D01*
X5663133Y3151581D01*
X5663946Y3147568D01*
X5663946Y2461514D01*
X5663184Y2457602D01*
X5660948Y2454351D01*
X5657697Y2452116D01*
X5653786Y2451354D01*
G37*

%LPC*%
G36*
X2430170Y4045508D02*
G01*
X2430170Y4093870D01*
X2381808Y4093870D01*
X2385009Y4087368D01*
X2392680Y4075887D01*
X2401824Y4065524D01*
X2412187Y4056379D01*
X2423668Y4048709D01*
G37*
G36*
X617220Y2509926D02*
G01*
X623671Y2513126D01*
X635050Y2520696D01*
X645312Y2529687D01*
X654304Y2539949D01*
X661873Y2551328D01*
X665073Y2557780D01*
X617220Y2557780D01*
G37*
G36*
X525780Y2509926D02*
G01*
X525780Y2557780D01*
X477926Y2557780D01*
X481126Y2551328D01*
X488696Y2539949D01*
X497687Y2529687D01*
X507949Y2520696D01*
X519328Y2513126D01*
G37*
G36*
X477926Y2649220D02*
G01*
X525780Y2649220D01*
X525780Y2697073D01*
X519328Y2693873D01*
X507949Y2686304D01*
X497687Y2677312D01*
X488696Y2667050D01*
X481126Y2655671D01*
G37*
G36*
X617220Y2649220D02*
G01*
X665073Y2649220D01*
X661873Y2655671D01*
X654304Y2667050D01*
X645312Y2677312D01*
X635050Y2686304D01*
X623671Y2693873D01*
X617220Y2697073D01*
G37*
G36*
X5072735Y6351422D02*
G01*
X5087264Y6351422D01*
X5101640Y6353251D01*
X5115661Y6356908D01*
X5129072Y6362395D01*
X5141722Y6369507D01*
X5153355Y6378143D01*
X5163769Y6388252D01*
X5172811Y6399580D01*
X5180279Y6411976D01*
X5186172Y6425234D01*
X5190286Y6439103D01*
X5192623Y6453428D01*
X5193080Y6467906D01*
X5191658Y6482334D01*
X5188458Y6496507D01*
X5183428Y6510070D01*
X5176723Y6522923D01*
X5169763Y6532930D01*
X5168442Y6535674D01*
X5167934Y6538722D01*
X5167934Y6679844D01*
X5167071Y6693357D01*
X5164480Y6706260D01*
X5160264Y6718706D01*
X5154472Y6730492D01*
X5147157Y6741464D01*
X5138216Y6751624D01*
X4897424Y6992416D01*
X4887264Y7001357D01*
X4876292Y7008672D01*
X4864506Y7014464D01*
X4852060Y7018680D01*
X4839157Y7021271D01*
X4825644Y7022134D01*
X3711803Y7022134D01*
X3709822Y7022338D01*
X3696614Y7024979D01*
X3683000Y7025894D01*
X3669385Y7024979D01*
X3655974Y7022338D01*
X3643071Y7017918D01*
X3630828Y7011873D01*
X3619449Y7004303D01*
X3609187Y6995312D01*
X3600196Y6985050D01*
X3592626Y6973671D01*
X3586581Y6961428D01*
X3582162Y6948525D01*
X3579520Y6935114D01*
X3578606Y6921500D01*
X3579520Y6907885D01*
X3582162Y6894474D01*
X3586581Y6881571D01*
X3592626Y6869328D01*
X3600196Y6857949D01*
X3609187Y6847687D01*
X3619449Y6838696D01*
X3630828Y6831126D01*
X3643071Y6825081D01*
X3655974Y6820662D01*
X3669385Y6818020D01*
X3683000Y6817106D01*
X3696614Y6818020D01*
X3709822Y6820662D01*
X3711803Y6820865D01*
X4780076Y6820865D01*
X4783988Y6820052D01*
X4787290Y6817868D01*
X4963668Y6641490D01*
X4965852Y6638188D01*
X4966665Y6634276D01*
X4966665Y6477355D01*
X4967071Y6469176D01*
X4966919Y6467906D01*
X4967376Y6453428D01*
X4969713Y6439103D01*
X4973828Y6425234D01*
X4979720Y6411976D01*
X4987188Y6399580D01*
X4996230Y6388252D01*
X5006644Y6378143D01*
X5018278Y6369507D01*
X5030927Y6362395D01*
X5044338Y6356908D01*
X5058359Y6353251D01*
G37*
G36*
X3294735Y6351422D02*
G01*
X3309264Y6351422D01*
X3323640Y6353251D01*
X3337661Y6356908D01*
X3351072Y6362395D01*
X3363722Y6369507D01*
X3375355Y6378143D01*
X3385769Y6388252D01*
X3394811Y6399580D01*
X3402279Y6411976D01*
X3408172Y6425234D01*
X3412286Y6439103D01*
X3414623Y6453428D01*
X3415080Y6467906D01*
X3413658Y6482334D01*
X3410458Y6496507D01*
X3405428Y6510070D01*
X3398723Y6522923D01*
X3390442Y6534861D01*
X3380689Y6545580D01*
X3369665Y6554978D01*
X3357524Y6562852D01*
X3344468Y6569151D01*
X3339287Y6570878D01*
X3335324Y6573316D01*
X3278632Y6630009D01*
X3276447Y6633311D01*
X3275634Y6637223D01*
X3275634Y6826910D01*
X3276244Y6830364D01*
X3278682Y6837121D01*
X3279394Y6843318D01*
X3279394Y6999681D01*
X3278682Y7005929D01*
X3276803Y7011365D01*
X3273755Y7016191D01*
X3269691Y7020255D01*
X3264865Y7023303D01*
X3259429Y7025182D01*
X3253181Y7025894D01*
X3096818Y7025894D01*
X3090570Y7025182D01*
X3085134Y7023303D01*
X3080308Y7020255D01*
X3076244Y7016191D01*
X3073196Y7011365D01*
X3071317Y7005929D01*
X3070606Y6999681D01*
X3070606Y6843318D01*
X3071317Y6837121D01*
X3073755Y6830364D01*
X3074365Y6826910D01*
X3074365Y6591655D01*
X3075228Y6578142D01*
X3077819Y6565239D01*
X3082036Y6552793D01*
X3087827Y6541007D01*
X3095142Y6530035D01*
X3104083Y6519875D01*
X3192780Y6431178D01*
X3194304Y6429197D01*
X3195828Y6425234D01*
X3201720Y6411976D01*
X3209188Y6399580D01*
X3218230Y6388252D01*
X3228644Y6378143D01*
X3240278Y6369507D01*
X3252927Y6362395D01*
X3266338Y6356908D01*
X3280359Y6353251D01*
G37*
G36*
X2717800Y2678785D02*
G01*
X2728366Y2684576D01*
X2739999Y2693060D01*
X2750515Y2702915D01*
X2759659Y2713990D01*
X2767380Y2726131D01*
X2769412Y2730500D01*
X2717800Y2730500D01*
G37*
G36*
X2933700Y2678785D02*
G01*
X2933700Y2730500D01*
X2882087Y2730500D01*
X2884119Y2726131D01*
X2891840Y2713990D01*
X2900984Y2702915D01*
X2911500Y2693060D01*
X2923133Y2684576D01*
G37*
G36*
X2616200Y2678785D02*
G01*
X2616200Y2730500D01*
X2564587Y2730500D01*
X2566619Y2726131D01*
X2574340Y2713990D01*
X2583484Y2702915D01*
X2594000Y2693060D01*
X2605633Y2684576D01*
G37*
G36*
X3035300Y2678785D02*
G01*
X3045866Y2684576D01*
X3057499Y2693060D01*
X3068015Y2702915D01*
X3077159Y2713990D01*
X3084880Y2726131D01*
X3086912Y2730500D01*
X3035300Y2730500D01*
G37*
G36*
X2882087Y2832100D02*
G01*
X2933700Y2832100D01*
X2933700Y2883814D01*
X2923133Y2878023D01*
X2911500Y2869539D01*
X2900984Y2859684D01*
X2891840Y2848610D01*
X2884119Y2836468D01*
G37*
G36*
X2564587Y2832100D02*
G01*
X2616200Y2832100D01*
X2616200Y2883814D01*
X2605633Y2878023D01*
X2594000Y2869539D01*
X2583484Y2859684D01*
X2574340Y2848610D01*
X2566619Y2836468D01*
G37*
G36*
X3035300Y2832100D02*
G01*
X3086912Y2832100D01*
X3084880Y2836468D01*
X3077159Y2848610D01*
X3068015Y2859684D01*
X3057499Y2869539D01*
X3045866Y2878023D01*
X3035300Y2883814D01*
G37*
G36*
X2717800Y2832100D02*
G01*
X2769412Y2832100D01*
X2767380Y2836468D01*
X2759659Y2848610D01*
X2750515Y2859684D01*
X2739999Y2869539D01*
X2728366Y2878023D01*
X2717800Y2883814D01*
G37*
G36*
X709371Y2838399D02*
G01*
X722274Y2845663D01*
X737006Y2856179D01*
X750570Y2868117D01*
X762863Y2881376D01*
X773734Y2895854D01*
X783590Y2912516D01*
X709371Y2912516D01*
G37*
G36*
X546658Y2838399D02*
G01*
X546658Y2912516D01*
X472389Y2912516D01*
X482295Y2895854D01*
X493115Y2881376D01*
X505409Y2868117D01*
X518972Y2856179D01*
X533755Y2845663D01*
G37*
G36*
X1477670Y2864408D02*
G01*
X1477670Y2912770D01*
X1429308Y2912770D01*
X1432509Y2906268D01*
X1440180Y2894787D01*
X1449324Y2884424D01*
X1459687Y2875280D01*
X1471168Y2867609D01*
G37*
G36*
X1570329Y2864408D02*
G01*
X1576832Y2867609D01*
X1588312Y2875280D01*
X1598676Y2884424D01*
X1607820Y2894787D01*
X1615490Y2906268D01*
X1618691Y2912770D01*
X1570329Y2912770D01*
G37*
G36*
X3548735Y6351422D02*
G01*
X3563264Y6351422D01*
X3577640Y6353251D01*
X3591661Y6356908D01*
X3605072Y6362395D01*
X3617722Y6369507D01*
X3629355Y6378143D01*
X3639769Y6388252D01*
X3648811Y6399580D01*
X3656279Y6411976D01*
X3662172Y6425234D01*
X3666286Y6439103D01*
X3668623Y6453428D01*
X3669080Y6467906D01*
X3667658Y6482334D01*
X3664458Y6496507D01*
X3659428Y6510070D01*
X3656939Y6515506D01*
X3656634Y6517944D01*
X3656634Y6667144D01*
X3655771Y6680657D01*
X3653180Y6693560D01*
X3648964Y6706006D01*
X3643172Y6717792D01*
X3635857Y6728764D01*
X3626916Y6738924D01*
X3532632Y6833209D01*
X3530447Y6836511D01*
X3529634Y6840423D01*
X3529634Y6892696D01*
X3529837Y6894677D01*
X3532479Y6907885D01*
X3533394Y6921500D01*
X3532479Y6935114D01*
X3529837Y6948525D01*
X3525418Y6961428D01*
X3519373Y6973671D01*
X3511804Y6985050D01*
X3502812Y6995312D01*
X3492550Y7004303D01*
X3481171Y7011873D01*
X3468928Y7017918D01*
X3456025Y7022338D01*
X3442614Y7024979D01*
X3429000Y7025894D01*
X3415385Y7024979D01*
X3401974Y7022338D01*
X3389071Y7017918D01*
X3376828Y7011873D01*
X3365449Y7004303D01*
X3355187Y6995312D01*
X3346196Y6985050D01*
X3338626Y6973671D01*
X3332581Y6961428D01*
X3328162Y6948525D01*
X3325520Y6935114D01*
X3324606Y6921500D01*
X3325520Y6907885D01*
X3328162Y6894677D01*
X3328365Y6892696D01*
X3328365Y6794855D01*
X3329228Y6781342D01*
X3331819Y6768439D01*
X3336036Y6755993D01*
X3341827Y6744208D01*
X3349142Y6733235D01*
X3358083Y6723075D01*
X3452368Y6628790D01*
X3454552Y6625488D01*
X3455365Y6621576D01*
X3455365Y6517944D01*
X3455060Y6515506D01*
X3452571Y6510070D01*
X3447542Y6496507D01*
X3444341Y6482334D01*
X3442919Y6467906D01*
X3443376Y6453428D01*
X3445713Y6439103D01*
X3449828Y6425234D01*
X3455720Y6411976D01*
X3463188Y6399580D01*
X3472230Y6388252D01*
X3482644Y6378143D01*
X3494278Y6369507D01*
X3506927Y6362395D01*
X3520338Y6356908D01*
X3534359Y6353251D01*
G37*
G36*
X1429308Y3005429D02*
G01*
X1477670Y3005429D01*
X1477670Y3053791D01*
X1471168Y3050590D01*
X1459687Y3042920D01*
X1449324Y3033776D01*
X1440180Y3023412D01*
X1432509Y3011932D01*
G37*
G36*
X1570329Y3005429D02*
G01*
X1618691Y3005429D01*
X1615490Y3011932D01*
X1607820Y3023412D01*
X1598676Y3033776D01*
X1588312Y3042920D01*
X1576832Y3050590D01*
X1570329Y3053791D01*
G37*
G36*
X472592Y3075228D02*
G01*
X546658Y3075228D01*
X546658Y3149346D01*
X541477Y3146755D01*
X526237Y3137052D01*
X512064Y3125825D01*
X499109Y3113176D01*
X487527Y3099308D01*
X477418Y3084322D01*
G37*
G36*
X709371Y3075228D02*
G01*
X783386Y3075228D01*
X778560Y3084322D01*
X768502Y3099308D01*
X756920Y3113176D01*
X743966Y3125825D01*
X729792Y3137052D01*
X714502Y3146755D01*
X709371Y3149346D01*
G37*
G36*
X3738879Y3119526D02*
G01*
X3738879Y3167380D01*
X3691026Y3167380D01*
X3694226Y3160928D01*
X3701796Y3149549D01*
X3710787Y3139287D01*
X3721049Y3130296D01*
X3732428Y3122726D01*
G37*
G36*
X3830320Y3119526D02*
G01*
X3836771Y3122726D01*
X3848150Y3130296D01*
X3858412Y3139287D01*
X3867404Y3149549D01*
X3874973Y3160928D01*
X3878173Y3167380D01*
X3830320Y3167380D01*
G37*
G36*
X3484879Y3119526D02*
G01*
X3484879Y3167380D01*
X3437026Y3167380D01*
X3440226Y3160928D01*
X3447796Y3149549D01*
X3456787Y3139287D01*
X3467049Y3130296D01*
X3478428Y3122726D01*
G37*
G36*
X3576320Y3119526D02*
G01*
X3582771Y3122726D01*
X3594150Y3130296D01*
X3604412Y3139287D01*
X3613404Y3149549D01*
X3620973Y3160928D01*
X3624173Y3167380D01*
X3576320Y3167380D01*
G37*
G36*
X3992879Y3119526D02*
G01*
X3992879Y3167380D01*
X3945026Y3167380D01*
X3948226Y3160928D01*
X3955796Y3149549D01*
X3964787Y3139287D01*
X3975049Y3130296D01*
X3986428Y3122726D01*
G37*
G36*
X4084320Y3119526D02*
G01*
X4090771Y3122726D01*
X4102150Y3130296D01*
X4112412Y3139287D01*
X4121404Y3149549D01*
X4128973Y3160928D01*
X4132173Y3167380D01*
X4084320Y3167380D01*
G37*
G36*
X2354935Y6326022D02*
G01*
X2369464Y6326022D01*
X2383840Y6327851D01*
X2397861Y6331508D01*
X2411272Y6336995D01*
X2423922Y6344107D01*
X2435555Y6352743D01*
X2445969Y6362852D01*
X2455011Y6374180D01*
X2462479Y6386576D01*
X2468372Y6399834D01*
X2472486Y6413703D01*
X2474823Y6428028D01*
X2475280Y6442506D01*
X2473858Y6456934D01*
X2470658Y6471107D01*
X2465628Y6484670D01*
X2458923Y6497523D01*
X2451963Y6507530D01*
X2450642Y6510274D01*
X2450134Y6513322D01*
X2450134Y6756044D01*
X2449271Y6769557D01*
X2446680Y6782460D01*
X2442464Y6794906D01*
X2436672Y6806692D01*
X2429357Y6817664D01*
X2420416Y6827824D01*
X2268524Y6979716D01*
X2258364Y6988657D01*
X2247392Y6995972D01*
X2235606Y7001764D01*
X2223160Y7005980D01*
X2210257Y7008571D01*
X2196744Y7009434D01*
X1019403Y7009434D01*
X1017422Y7009638D01*
X1004214Y7012279D01*
X990600Y7013194D01*
X976985Y7012279D01*
X963574Y7009638D01*
X950671Y7005218D01*
X938428Y6999173D01*
X927049Y6991603D01*
X916787Y6982612D01*
X907796Y6972350D01*
X900226Y6960971D01*
X894181Y6948728D01*
X889762Y6935825D01*
X887120Y6922414D01*
X886206Y6908800D01*
X887120Y6895185D01*
X889762Y6881774D01*
X894181Y6868871D01*
X900226Y6856628D01*
X907796Y6845249D01*
X916787Y6834987D01*
X927049Y6825996D01*
X938428Y6818426D01*
X950671Y6812381D01*
X963574Y6807962D01*
X976985Y6805320D01*
X990600Y6804406D01*
X1004214Y6805320D01*
X1017422Y6807962D01*
X1019403Y6808165D01*
X2151176Y6808165D01*
X2155088Y6807352D01*
X2158390Y6805168D01*
X2245868Y6717690D01*
X2248052Y6714388D01*
X2248865Y6710476D01*
X2248865Y6451955D01*
X2249271Y6443776D01*
X2249119Y6442506D01*
X2249576Y6428028D01*
X2251913Y6413703D01*
X2256028Y6399834D01*
X2261920Y6386576D01*
X2269388Y6374180D01*
X2278430Y6362852D01*
X2288844Y6352743D01*
X2300478Y6344107D01*
X2313127Y6336995D01*
X2326538Y6331508D01*
X2340559Y6327851D01*
G37*
G36*
X4529429Y3143808D02*
G01*
X4535932Y3147009D01*
X4547412Y3154680D01*
X4557776Y3163824D01*
X4566920Y3174187D01*
X4574590Y3185668D01*
X4577791Y3192170D01*
X4529429Y3192170D01*
G37*
G36*
X4436770Y3143808D02*
G01*
X4436770Y3192170D01*
X4388408Y3192170D01*
X4391609Y3185668D01*
X4399280Y3174187D01*
X4408424Y3163824D01*
X4418787Y3154680D01*
X4430268Y3147009D01*
G37*
G36*
X2799537Y3152140D02*
G01*
X2801569Y3153054D01*
X2814574Y3160928D01*
X2826512Y3170275D01*
X2837230Y3180994D01*
X2846578Y3192932D01*
X2854452Y3205937D01*
X2861056Y3220466D01*
X2799537Y3220466D01*
G37*
G36*
X576935Y6326022D02*
G01*
X591464Y6326022D01*
X605840Y6327851D01*
X619861Y6331508D01*
X633272Y6336995D01*
X645922Y6344107D01*
X657555Y6352743D01*
X667969Y6362852D01*
X677011Y6374180D01*
X684479Y6386576D01*
X690372Y6399834D01*
X694486Y6413703D01*
X696823Y6428028D01*
X697280Y6442506D01*
X695858Y6456934D01*
X692658Y6471107D01*
X687628Y6484670D01*
X680923Y6497523D01*
X672642Y6509461D01*
X662889Y6520180D01*
X651865Y6529578D01*
X639724Y6537452D01*
X626668Y6543751D01*
X621487Y6545478D01*
X617524Y6547916D01*
X586232Y6579209D01*
X584047Y6582511D01*
X583234Y6586423D01*
X583234Y6814210D01*
X583844Y6817664D01*
X586282Y6824421D01*
X586994Y6830618D01*
X586994Y6986981D01*
X586282Y6993229D01*
X584403Y6998665D01*
X581355Y7003491D01*
X577291Y7007555D01*
X572465Y7010603D01*
X567029Y7012482D01*
X560781Y7013194D01*
X404418Y7013194D01*
X398170Y7012482D01*
X392734Y7010603D01*
X387908Y7007555D01*
X383844Y7003491D01*
X380796Y6998665D01*
X378917Y6993229D01*
X378206Y6986981D01*
X378206Y6830618D01*
X378917Y6824421D01*
X381355Y6817664D01*
X381965Y6814210D01*
X381965Y6540855D01*
X382828Y6527342D01*
X385419Y6514439D01*
X389636Y6501993D01*
X395427Y6490208D01*
X402742Y6479235D01*
X411683Y6469075D01*
X474980Y6405778D01*
X476504Y6403797D01*
X478028Y6399834D01*
X483920Y6386576D01*
X491388Y6374180D01*
X500430Y6362852D01*
X510844Y6352743D01*
X522478Y6344107D01*
X535127Y6336995D01*
X548538Y6331508D01*
X562559Y6327851D01*
G37*
G36*
X3830320Y3258820D02*
G01*
X3878173Y3258820D01*
X3874973Y3265271D01*
X3867404Y3276650D01*
X3858412Y3286912D01*
X3848150Y3295904D01*
X3836771Y3303473D01*
X3830320Y3306673D01*
G37*
G36*
X3691026Y3258820D02*
G01*
X3738879Y3258820D01*
X3738879Y3306673D01*
X3732428Y3303473D01*
X3721049Y3295904D01*
X3710787Y3286912D01*
X3701796Y3276650D01*
X3694226Y3265271D01*
G37*
G36*
X3945026Y3258820D02*
G01*
X3992879Y3258820D01*
X3992879Y3306673D01*
X3986428Y3303473D01*
X3975049Y3295904D01*
X3964787Y3286912D01*
X3955796Y3276650D01*
X3948226Y3265271D01*
G37*
G36*
X3576320Y3258820D02*
G01*
X3624173Y3258820D01*
X3620973Y3265271D01*
X3613404Y3276650D01*
X3604412Y3286912D01*
X3594150Y3295904D01*
X3582771Y3303473D01*
X3576320Y3306673D01*
G37*
G36*
X4084320Y3258820D02*
G01*
X4132173Y3258820D01*
X4128973Y3265271D01*
X4121404Y3276650D01*
X4112412Y3286912D01*
X4102150Y3295904D01*
X4090771Y3303473D01*
X4084320Y3306673D01*
G37*
G36*
X3437026Y3258820D02*
G01*
X3484879Y3258820D01*
X3484879Y3306673D01*
X3478428Y3303473D01*
X3467049Y3295904D01*
X3456787Y3286912D01*
X3447796Y3276650D01*
X3440226Y3265271D01*
G37*
G36*
X4388408Y3284829D02*
G01*
X4436770Y3284829D01*
X4436770Y3333191D01*
X4430268Y3329990D01*
X4418787Y3322320D01*
X4408424Y3313176D01*
X4399280Y3302812D01*
X4391609Y3291332D01*
G37*
G36*
X4529429Y3284829D02*
G01*
X4577791Y3284829D01*
X4574590Y3291332D01*
X4566920Y3302812D01*
X4557776Y3313176D01*
X4547412Y3322320D01*
X4535932Y3329990D01*
X4529429Y3333191D01*
G37*
G36*
X830935Y6326022D02*
G01*
X845464Y6326022D01*
X859840Y6327851D01*
X873861Y6331508D01*
X887272Y6336995D01*
X899921Y6344107D01*
X911555Y6352743D01*
X921969Y6362852D01*
X931011Y6374180D01*
X938479Y6386576D01*
X944371Y6399834D01*
X948486Y6413703D01*
X950823Y6428028D01*
X951280Y6442506D01*
X949858Y6456934D01*
X946658Y6471107D01*
X941628Y6484670D01*
X939139Y6490106D01*
X938834Y6492544D01*
X938834Y6667144D01*
X937971Y6680657D01*
X935380Y6693560D01*
X931164Y6706006D01*
X925372Y6717792D01*
X918057Y6728764D01*
X909116Y6738924D01*
X840232Y6807809D01*
X838047Y6811111D01*
X837234Y6815023D01*
X837234Y6879996D01*
X837437Y6881977D01*
X840079Y6895185D01*
X840994Y6908800D01*
X840079Y6922414D01*
X837437Y6935825D01*
X833018Y6948728D01*
X826973Y6960971D01*
X819403Y6972350D01*
X810412Y6982612D01*
X800150Y6991603D01*
X788771Y6999173D01*
X776528Y7005218D01*
X763625Y7009638D01*
X750214Y7012279D01*
X736600Y7013194D01*
X722985Y7012279D01*
X709574Y7009638D01*
X696671Y7005218D01*
X684428Y6999173D01*
X673049Y6991603D01*
X662787Y6982612D01*
X653796Y6972350D01*
X646226Y6960971D01*
X640181Y6948728D01*
X635762Y6935825D01*
X633120Y6922414D01*
X632206Y6908800D01*
X633120Y6895185D01*
X635762Y6881977D01*
X635965Y6879996D01*
X635965Y6769455D01*
X636828Y6755942D01*
X639419Y6743039D01*
X643636Y6730593D01*
X649427Y6718808D01*
X656742Y6707835D01*
X665683Y6697675D01*
X734568Y6628790D01*
X736752Y6625488D01*
X737565Y6621576D01*
X737565Y6492544D01*
X737260Y6490106D01*
X734771Y6484670D01*
X729742Y6471107D01*
X726541Y6456934D01*
X725119Y6442506D01*
X725576Y6428028D01*
X727913Y6413703D01*
X732028Y6399834D01*
X737920Y6386576D01*
X745388Y6374180D01*
X754430Y6362852D01*
X764844Y6352743D01*
X776478Y6344107D01*
X789127Y6336995D01*
X802538Y6331508D01*
X816559Y6327851D01*
G37*
G36*
X3200806Y4990388D02*
G01*
X3251911Y4990388D01*
X3251911Y5041493D01*
X3246475Y5038852D01*
X3234334Y5030978D01*
X3223310Y5021580D01*
X3213557Y5010861D01*
X3205276Y4998923D01*
G37*
G36*
X2799537Y3358134D02*
G01*
X2861005Y3358134D01*
X2854452Y3372662D01*
X2846578Y3385667D01*
X2837230Y3397605D01*
X2826512Y3408324D01*
X2814574Y3417671D01*
X2801569Y3425545D01*
X2799537Y3426460D01*
G37*
G36*
X4876088Y4990388D02*
G01*
X4927193Y4990388D01*
X4922723Y4998923D01*
X4914442Y5010861D01*
X4904689Y5021580D01*
X4893665Y5030978D01*
X4881524Y5038852D01*
X4876088Y5041493D01*
G37*
G36*
X4724806Y4990388D02*
G01*
X4775911Y4990388D01*
X4775911Y5041493D01*
X4770475Y5038852D01*
X4758334Y5030978D01*
X4747310Y5021580D01*
X4737557Y5010861D01*
X4729276Y4998923D01*
G37*
G36*
X3352088Y4990388D02*
G01*
X3403193Y4990388D01*
X3398723Y4998923D01*
X3390442Y5010861D01*
X3380689Y5021580D01*
X3369665Y5030978D01*
X3357524Y5038852D01*
X3352088Y5041493D01*
G37*
G36*
X2158288Y4964988D02*
G01*
X2209393Y4964988D01*
X2204923Y4973523D01*
X2196642Y4985461D01*
X2186889Y4996180D01*
X2175865Y5005578D01*
X2163724Y5013452D01*
X2158288Y5016093D01*
G37*
G36*
X2007006Y4964988D02*
G01*
X2058111Y4964988D01*
X2058111Y5016093D01*
X2052675Y5013452D01*
X2040534Y5005578D01*
X2029510Y4996180D01*
X2019757Y4985461D01*
X2011476Y4973523D01*
G37*
G36*
X483006Y4964988D02*
G01*
X534111Y4964988D01*
X534111Y5016093D01*
X528675Y5013452D01*
X516534Y5005578D01*
X505510Y4996180D01*
X495757Y4985461D01*
X487476Y4973523D01*
G37*
G36*
X634288Y4964988D02*
G01*
X685393Y4964988D01*
X680923Y4973523D01*
X672642Y4985461D01*
X662889Y4996180D01*
X651865Y5005578D01*
X639724Y5013452D01*
X634288Y5016093D01*
G37*
G36*
X3352088Y4838954D02*
G01*
X3363722Y4845507D01*
X3375355Y4854143D01*
X3385769Y4864252D01*
X3394811Y4875580D01*
X3402279Y4887976D01*
X3403295Y4890211D01*
X3352088Y4890211D01*
G37*
G36*
X3251911Y4838954D02*
G01*
X3251911Y4890211D01*
X3200704Y4890211D01*
X3201720Y4887976D01*
X3209188Y4875580D01*
X3218230Y4864252D01*
X3228644Y4854143D01*
X3240278Y4845507D01*
G37*
G36*
X2522829Y4045508D02*
G01*
X2529332Y4048709D01*
X2540812Y4056379D01*
X2551176Y4065524D01*
X2560320Y4075887D01*
X2567990Y4087368D01*
X2571191Y4093870D01*
X2522829Y4093870D01*
G37*
G36*
X4876088Y4838954D02*
G01*
X4887722Y4845507D01*
X4899355Y4854143D01*
X4909769Y4864252D01*
X4918811Y4875580D01*
X4926279Y4887976D01*
X4927295Y4890211D01*
X4876088Y4890211D01*
G37*
G36*
X4011980Y4046524D02*
G01*
X4030065Y4046982D01*
X4047998Y4049318D01*
X4065625Y4053433D01*
X4082694Y4059377D01*
X4099051Y4067048D01*
X4114546Y4076395D01*
X4129024Y4087215D01*
X4142282Y4099509D01*
X4154220Y4113072D01*
X4164736Y4127855D01*
X4173626Y4143552D01*
X4180840Y4160164D01*
X4186377Y4177385D01*
X4190034Y4195064D01*
X4191914Y4213047D01*
X4191914Y4231132D01*
X4190034Y4249115D01*
X4186377Y4266844D01*
X4180840Y4284065D01*
X4173626Y4300626D01*
X4165955Y4314139D01*
X4164990Y4316577D01*
X4164634Y4319168D01*
X4164634Y4886604D01*
X4165498Y4890719D01*
X4170172Y4901234D01*
X4174286Y4915103D01*
X4176623Y4929428D01*
X4177080Y4943906D01*
X4175658Y4958334D01*
X4172458Y4972507D01*
X4167428Y4986070D01*
X4160723Y4998923D01*
X4152442Y5010861D01*
X4142689Y5021580D01*
X4131665Y5030978D01*
X4119524Y5038852D01*
X4106468Y5045151D01*
X4092701Y5049723D01*
X4078478Y5052517D01*
X4064000Y5053431D01*
X4049522Y5052517D01*
X4035298Y5049723D01*
X4021531Y5045151D01*
X4008475Y5038852D01*
X3996334Y5030978D01*
X3985310Y5021580D01*
X3975557Y5010861D01*
X3967276Y4998923D01*
X3960571Y4986070D01*
X3955542Y4972507D01*
X3952341Y4958334D01*
X3950919Y4943906D01*
X3951376Y4929428D01*
X3953713Y4915103D01*
X3957828Y4901234D01*
X3962501Y4890719D01*
X3963365Y4886604D01*
X3963365Y4396689D01*
X3962552Y4392777D01*
X3960317Y4389475D01*
X3957015Y4387240D01*
X3942079Y4381195D01*
X3926078Y4372660D01*
X3911092Y4362602D01*
X3897223Y4351020D01*
X3884574Y4338066D01*
X3873347Y4323892D01*
X3863644Y4308602D01*
X3855567Y4292447D01*
X3849166Y4275531D01*
X3844594Y4258005D01*
X3841800Y4240174D01*
X3840886Y4222089D01*
X3841800Y4204055D01*
X3844594Y4186174D01*
X3849166Y4168698D01*
X3855567Y4151782D01*
X3863644Y4135577D01*
X3873347Y4120337D01*
X3884574Y4106164D01*
X3897223Y4093210D01*
X3911092Y4081627D01*
X3926078Y4071518D01*
X3942079Y4063034D01*
X3958793Y4056227D01*
X3976166Y4051147D01*
X3993946Y4047896D01*
G37*
G36*
X4564684Y4046524D02*
G01*
X4582769Y4046982D01*
X4600702Y4049318D01*
X4618278Y4053433D01*
X4635398Y4059377D01*
X4651756Y4067048D01*
X4667250Y4076395D01*
X4681728Y4087215D01*
X4694986Y4099509D01*
X4706924Y4113072D01*
X4717389Y4127855D01*
X4726330Y4143552D01*
X4733544Y4160164D01*
X4739081Y4177385D01*
X4742738Y4195064D01*
X4744618Y4213047D01*
X4744618Y4231132D01*
X4742738Y4249115D01*
X4739081Y4266844D01*
X4733544Y4284065D01*
X4726330Y4300626D01*
X4717389Y4316374D01*
X4706924Y4331106D01*
X4694986Y4344670D01*
X4681728Y4356963D01*
X4663287Y4370679D01*
X4661662Y4373067D01*
X4656378Y4383786D01*
X4649063Y4394758D01*
X4640122Y4404918D01*
X4421632Y4623409D01*
X4419447Y4626711D01*
X4418634Y4630623D01*
X4418634Y4886604D01*
X4419498Y4890719D01*
X4424172Y4901234D01*
X4428286Y4915103D01*
X4430623Y4929428D01*
X4431080Y4943906D01*
X4429658Y4958334D01*
X4426458Y4972507D01*
X4421428Y4986070D01*
X4414723Y4998923D01*
X4406442Y5010861D01*
X4396689Y5021580D01*
X4385665Y5030978D01*
X4373524Y5038852D01*
X4360468Y5045151D01*
X4346702Y5049723D01*
X4332478Y5052517D01*
X4318000Y5053431D01*
X4303522Y5052517D01*
X4289298Y5049723D01*
X4275531Y5045151D01*
X4262475Y5038852D01*
X4250334Y5030978D01*
X4239310Y5021580D01*
X4229557Y5010861D01*
X4221276Y4998923D01*
X4214571Y4986070D01*
X4209542Y4972507D01*
X4206341Y4958334D01*
X4204919Y4943906D01*
X4205376Y4929428D01*
X4207713Y4915103D01*
X4211828Y4901234D01*
X4216501Y4890719D01*
X4217365Y4886604D01*
X4217365Y4585055D01*
X4218228Y4571542D01*
X4220819Y4558639D01*
X4225036Y4546193D01*
X4230827Y4534408D01*
X4238142Y4523435D01*
X4247083Y4513275D01*
X4424375Y4335983D01*
X4426305Y4333189D01*
X4427270Y4329938D01*
X4427067Y4326534D01*
X4425746Y4323384D01*
X4416348Y4308602D01*
X4408271Y4292447D01*
X4401870Y4275531D01*
X4397298Y4258005D01*
X4394504Y4240174D01*
X4393590Y4222089D01*
X4394504Y4204055D01*
X4397298Y4186174D01*
X4401870Y4168698D01*
X4408271Y4151782D01*
X4416348Y4135577D01*
X4426051Y4120337D01*
X4437278Y4106164D01*
X4449927Y4093210D01*
X4463796Y4081627D01*
X4478782Y4071518D01*
X4494733Y4063034D01*
X4511497Y4056227D01*
X4528870Y4051147D01*
X4546650Y4047896D01*
G37*
G36*
X3510584Y4046524D02*
G01*
X3528669Y4046982D01*
X3546601Y4049318D01*
X3564178Y4053433D01*
X3581298Y4059377D01*
X3597656Y4067048D01*
X3613150Y4076395D01*
X3627628Y4087215D01*
X3640886Y4099509D01*
X3652824Y4113072D01*
X3663289Y4127855D01*
X3672230Y4143552D01*
X3679444Y4160164D01*
X3684981Y4177385D01*
X3688638Y4195064D01*
X3690518Y4213047D01*
X3690518Y4231132D01*
X3688638Y4249115D01*
X3688486Y4253839D01*
X3690010Y4257548D01*
X3693972Y4263491D01*
X3699764Y4275277D01*
X3703980Y4287723D01*
X3706571Y4300626D01*
X3707434Y4314139D01*
X3707434Y4487976D01*
X3708247Y4491888D01*
X3710432Y4495190D01*
X3880916Y4665675D01*
X3889857Y4675835D01*
X3897172Y4686808D01*
X3902964Y4698593D01*
X3907180Y4711039D01*
X3909771Y4723942D01*
X3910634Y4737455D01*
X3910634Y4886604D01*
X3911498Y4890719D01*
X3916172Y4901234D01*
X3920286Y4915103D01*
X3922623Y4929428D01*
X3923080Y4943906D01*
X3921658Y4958334D01*
X3918458Y4972507D01*
X3913428Y4986070D01*
X3906723Y4998923D01*
X3898442Y5010861D01*
X3888689Y5021580D01*
X3877665Y5030978D01*
X3865524Y5038852D01*
X3852468Y5045151D01*
X3838701Y5049723D01*
X3824478Y5052517D01*
X3810000Y5053431D01*
X3795522Y5052517D01*
X3781298Y5049723D01*
X3767531Y5045151D01*
X3754475Y5038852D01*
X3742334Y5030978D01*
X3731310Y5021580D01*
X3721557Y5010861D01*
X3713276Y4998923D01*
X3706571Y4986070D01*
X3701542Y4972507D01*
X3698341Y4958334D01*
X3696919Y4943906D01*
X3697376Y4929428D01*
X3699713Y4915103D01*
X3703828Y4901234D01*
X3708501Y4890719D01*
X3709365Y4886604D01*
X3709365Y4783023D01*
X3708552Y4779111D01*
X3706368Y4775809D01*
X3535883Y4605324D01*
X3526942Y4595164D01*
X3519627Y4584192D01*
X3513836Y4572406D01*
X3509619Y4559960D01*
X3507028Y4547057D01*
X3506165Y4533544D01*
X3506165Y4406747D01*
X3505454Y4403039D01*
X3503422Y4399838D01*
X3500424Y4397603D01*
X3496767Y4396587D01*
X3492550Y4396282D01*
X3474770Y4393031D01*
X3457397Y4388002D01*
X3440633Y4381195D01*
X3424682Y4372660D01*
X3409696Y4362602D01*
X3395827Y4351020D01*
X3383178Y4338066D01*
X3371951Y4323892D01*
X3362248Y4308602D01*
X3354171Y4292447D01*
X3347770Y4275531D01*
X3343198Y4258005D01*
X3340404Y4240174D01*
X3339490Y4222089D01*
X3340404Y4204055D01*
X3343198Y4186174D01*
X3347770Y4168698D01*
X3354171Y4151782D01*
X3362248Y4135577D01*
X3371951Y4120337D01*
X3383178Y4106164D01*
X3395827Y4093210D01*
X3409696Y4081627D01*
X3424682Y4071518D01*
X3440633Y4063034D01*
X3457397Y4056227D01*
X3474770Y4051147D01*
X3492550Y4047896D01*
G37*
G36*
X4775911Y4838954D02*
G01*
X4775911Y4890211D01*
X4724704Y4890211D01*
X4725720Y4887976D01*
X4733188Y4875580D01*
X4742230Y4864252D01*
X4752644Y4854143D01*
X4764278Y4845507D01*
G37*
G36*
X1929180Y4059224D02*
G01*
X1947265Y4059682D01*
X1965198Y4062018D01*
X1982825Y4066133D01*
X1999894Y4072077D01*
X2016252Y4079748D01*
X2031746Y4089095D01*
X2046224Y4099915D01*
X2059482Y4112209D01*
X2071420Y4125772D01*
X2081936Y4140555D01*
X2090826Y4156252D01*
X2098040Y4172864D01*
X2103577Y4190085D01*
X2107234Y4207764D01*
X2109114Y4225747D01*
X2109114Y4243832D01*
X2107234Y4261815D01*
X2103577Y4279544D01*
X2098040Y4296765D01*
X2090826Y4313326D01*
X2081936Y4329074D01*
X2071420Y4343806D01*
X2059482Y4357370D01*
X2046224Y4369663D01*
X2031746Y4380534D01*
X2016252Y4389831D01*
X1999894Y4397502D01*
X1982825Y4403445D01*
X1960219Y4408881D01*
X1957374Y4411167D01*
X1955495Y4414266D01*
X1954834Y4417872D01*
X1954834Y4861204D01*
X1955698Y4865319D01*
X1960372Y4875834D01*
X1964486Y4889703D01*
X1966823Y4904028D01*
X1967280Y4918506D01*
X1965858Y4932934D01*
X1962657Y4947107D01*
X1957628Y4960670D01*
X1950923Y4973523D01*
X1942642Y4985461D01*
X1932889Y4996180D01*
X1921865Y5005578D01*
X1909724Y5013452D01*
X1896668Y5019751D01*
X1882902Y5024323D01*
X1868678Y5027117D01*
X1854200Y5028031D01*
X1839722Y5027117D01*
X1825498Y5024323D01*
X1811731Y5019751D01*
X1798675Y5013452D01*
X1786534Y5005578D01*
X1775510Y4996180D01*
X1765757Y4985461D01*
X1757476Y4973523D01*
X1750771Y4960670D01*
X1745742Y4947107D01*
X1742541Y4932934D01*
X1741119Y4918506D01*
X1741576Y4904028D01*
X1743913Y4889703D01*
X1748028Y4875834D01*
X1752701Y4865319D01*
X1753565Y4861204D01*
X1753565Y4314647D01*
X1754428Y4301134D01*
X1757019Y4288231D01*
X1761337Y4275429D01*
X1761845Y4273042D01*
X1761743Y4270603D01*
X1759000Y4252874D01*
X1758086Y4234789D01*
X1759000Y4216755D01*
X1761794Y4198874D01*
X1766366Y4181398D01*
X1772767Y4164482D01*
X1780844Y4148277D01*
X1790547Y4133037D01*
X1801774Y4118864D01*
X1814423Y4105910D01*
X1828292Y4094327D01*
X1843278Y4084218D01*
X1859280Y4075734D01*
X1875993Y4068927D01*
X1893366Y4063847D01*
X1911146Y4060596D01*
G37*
G36*
X1427784Y4059224D02*
G01*
X1445869Y4059682D01*
X1463802Y4062018D01*
X1481378Y4066133D01*
X1498498Y4072077D01*
X1514856Y4079748D01*
X1530350Y4089095D01*
X1544828Y4099915D01*
X1558086Y4112209D01*
X1570024Y4125772D01*
X1580489Y4140555D01*
X1589430Y4156252D01*
X1596644Y4172864D01*
X1602181Y4190085D01*
X1605838Y4207764D01*
X1607718Y4225747D01*
X1607718Y4243832D01*
X1605838Y4261815D01*
X1602181Y4279544D01*
X1596644Y4296765D01*
X1589430Y4313326D01*
X1580489Y4329074D01*
X1572971Y4339640D01*
X1571447Y4342841D01*
X1571142Y4346397D01*
X1572056Y4349800D01*
X1574088Y4352747D01*
X1671116Y4449775D01*
X1680057Y4459935D01*
X1687372Y4470908D01*
X1693164Y4482693D01*
X1697380Y4495139D01*
X1699971Y4508042D01*
X1700834Y4521555D01*
X1700834Y4861204D01*
X1701698Y4865319D01*
X1706372Y4875834D01*
X1710486Y4889703D01*
X1712823Y4904028D01*
X1713280Y4918506D01*
X1711858Y4932934D01*
X1708657Y4947107D01*
X1703628Y4960670D01*
X1696923Y4973523D01*
X1688642Y4985461D01*
X1678889Y4996180D01*
X1667865Y5005578D01*
X1655724Y5013452D01*
X1642668Y5019751D01*
X1628901Y5024323D01*
X1614678Y5027117D01*
X1600200Y5028031D01*
X1585722Y5027117D01*
X1571498Y5024323D01*
X1557731Y5019751D01*
X1544675Y5013452D01*
X1532534Y5005578D01*
X1521510Y4996180D01*
X1511757Y4985461D01*
X1503476Y4973523D01*
X1496771Y4960670D01*
X1491742Y4947107D01*
X1488541Y4932934D01*
X1487119Y4918506D01*
X1487576Y4904028D01*
X1489913Y4889703D01*
X1494028Y4875834D01*
X1498701Y4865319D01*
X1499565Y4861204D01*
X1499565Y4567123D01*
X1498752Y4563211D01*
X1496568Y4559909D01*
X1361389Y4424730D01*
X1352448Y4414570D01*
X1345133Y4403598D01*
X1339342Y4391812D01*
X1336852Y4384497D01*
X1335278Y4381601D01*
X1332890Y4379315D01*
X1326896Y4375302D01*
X1313027Y4363720D01*
X1300378Y4350766D01*
X1289151Y4336592D01*
X1279448Y4321302D01*
X1271371Y4305147D01*
X1264970Y4288231D01*
X1260398Y4270705D01*
X1257604Y4252874D01*
X1256690Y4234789D01*
X1257604Y4216755D01*
X1260398Y4198874D01*
X1264970Y4181398D01*
X1271371Y4164482D01*
X1279448Y4148277D01*
X1289151Y4133037D01*
X1300378Y4118864D01*
X1313027Y4105910D01*
X1326896Y4094327D01*
X1341882Y4084218D01*
X1357833Y4075734D01*
X1374597Y4068927D01*
X1391970Y4063847D01*
X1409750Y4060596D01*
G37*
G36*
X875080Y4059224D02*
G01*
X893165Y4059682D01*
X911098Y4062018D01*
X928725Y4066133D01*
X945794Y4072077D01*
X962152Y4079748D01*
X977646Y4089095D01*
X992124Y4099915D01*
X1005382Y4112209D01*
X1017320Y4125772D01*
X1027836Y4140555D01*
X1036726Y4156252D01*
X1043940Y4172864D01*
X1049477Y4190085D01*
X1053185Y4207764D01*
X1055014Y4225747D01*
X1055014Y4243832D01*
X1053287Y4260697D01*
X1053795Y4265168D01*
X1056182Y4268927D01*
X1417116Y4629861D01*
X1426057Y4640021D01*
X1433372Y4650994D01*
X1439164Y4662779D01*
X1443380Y4675225D01*
X1445971Y4688128D01*
X1446834Y4701641D01*
X1446834Y4861204D01*
X1447698Y4865319D01*
X1452372Y4875834D01*
X1456486Y4889703D01*
X1458823Y4904028D01*
X1459280Y4918506D01*
X1457858Y4932934D01*
X1454658Y4947107D01*
X1449628Y4960670D01*
X1442923Y4973523D01*
X1434642Y4985461D01*
X1424889Y4996180D01*
X1413865Y5005578D01*
X1401724Y5013452D01*
X1388668Y5019751D01*
X1374902Y5024323D01*
X1360678Y5027117D01*
X1346200Y5028031D01*
X1331722Y5027117D01*
X1317498Y5024323D01*
X1303731Y5019751D01*
X1290675Y5013452D01*
X1278534Y5005578D01*
X1267510Y4996180D01*
X1257757Y4985461D01*
X1249476Y4973523D01*
X1242771Y4960670D01*
X1237742Y4947107D01*
X1234541Y4932934D01*
X1233119Y4918506D01*
X1233576Y4904028D01*
X1235913Y4889703D01*
X1240028Y4875834D01*
X1244701Y4865319D01*
X1245565Y4861204D01*
X1245565Y4747209D01*
X1244752Y4743297D01*
X1242568Y4739995D01*
X913790Y4411218D01*
X911301Y4409389D01*
X908405Y4408424D01*
X905306Y4408322D01*
X893165Y4409897D01*
X875080Y4410405D01*
X857046Y4408982D01*
X839266Y4405731D01*
X821893Y4400702D01*
X805180Y4393895D01*
X789178Y4385360D01*
X774192Y4375302D01*
X760323Y4363720D01*
X747674Y4350766D01*
X736447Y4336592D01*
X726744Y4321302D01*
X718667Y4305147D01*
X712266Y4288231D01*
X707694Y4270705D01*
X704900Y4252874D01*
X703986Y4234789D01*
X704900Y4216755D01*
X707694Y4198874D01*
X712266Y4181398D01*
X718667Y4164482D01*
X726744Y4148277D01*
X736447Y4133037D01*
X747674Y4118864D01*
X760323Y4105910D01*
X774192Y4094327D01*
X789178Y4084218D01*
X805180Y4075734D01*
X821893Y4068927D01*
X839266Y4063847D01*
X857046Y4060596D01*
G37*
G36*
X373684Y4059224D02*
G01*
X391769Y4059682D01*
X409701Y4062018D01*
X427278Y4066133D01*
X444398Y4072077D01*
X460756Y4079748D01*
X476250Y4089095D01*
X490728Y4099915D01*
X503986Y4112209D01*
X515924Y4125772D01*
X526389Y4140555D01*
X535330Y4156252D01*
X542544Y4172864D01*
X548081Y4190085D01*
X551738Y4207764D01*
X553618Y4225747D01*
X553618Y4243832D01*
X551738Y4261815D01*
X548081Y4279544D01*
X542544Y4296765D01*
X535330Y4313326D01*
X526389Y4329074D01*
X515924Y4343806D01*
X503986Y4357370D01*
X490220Y4370070D01*
X487375Y4373321D01*
X486156Y4377486D01*
X486765Y4381754D01*
X489102Y4385360D01*
X635609Y4531868D01*
X638911Y4534052D01*
X642823Y4534865D01*
X964844Y4534865D01*
X978357Y4535728D01*
X991260Y4538319D01*
X1003706Y4542536D01*
X1015492Y4548327D01*
X1026464Y4555642D01*
X1036624Y4564583D01*
X1163116Y4691075D01*
X1172057Y4701235D01*
X1179372Y4712208D01*
X1185164Y4723993D01*
X1189380Y4736439D01*
X1191971Y4749342D01*
X1192834Y4762855D01*
X1192834Y4861204D01*
X1193698Y4865319D01*
X1198372Y4875834D01*
X1202486Y4889703D01*
X1204823Y4904028D01*
X1205280Y4918506D01*
X1203858Y4932934D01*
X1200658Y4947107D01*
X1195628Y4960670D01*
X1188923Y4973523D01*
X1180642Y4985461D01*
X1170889Y4996180D01*
X1159865Y5005578D01*
X1147724Y5013452D01*
X1134668Y5019751D01*
X1120902Y5024323D01*
X1106678Y5027117D01*
X1092200Y5028031D01*
X1077722Y5027117D01*
X1063498Y5024323D01*
X1049731Y5019751D01*
X1036675Y5013452D01*
X1024534Y5005578D01*
X1013510Y4996180D01*
X1003757Y4985461D01*
X995476Y4973523D01*
X988771Y4960670D01*
X983742Y4947107D01*
X980541Y4932934D01*
X979119Y4918506D01*
X979576Y4904028D01*
X981913Y4889703D01*
X986028Y4875834D01*
X990701Y4865319D01*
X991565Y4861204D01*
X991565Y4808423D01*
X990752Y4804511D01*
X988568Y4801209D01*
X926490Y4739132D01*
X923188Y4736947D01*
X919276Y4736134D01*
X597255Y4736134D01*
X583742Y4735271D01*
X570839Y4732680D01*
X558393Y4728464D01*
X546608Y4722672D01*
X535635Y4715357D01*
X525475Y4706416D01*
X297383Y4478324D01*
X288442Y4468164D01*
X281127Y4457192D01*
X275336Y4445406D01*
X271119Y4432960D01*
X268528Y4420057D01*
X267665Y4406544D01*
X267665Y4375759D01*
X266700Y4371441D01*
X264007Y4367936D01*
X258927Y4363720D01*
X246278Y4350766D01*
X235051Y4336592D01*
X225348Y4321302D01*
X217271Y4305147D01*
X210870Y4288231D01*
X206298Y4270705D01*
X203504Y4252874D01*
X202590Y4234789D01*
X203504Y4216755D01*
X206298Y4198874D01*
X210870Y4181398D01*
X217271Y4164482D01*
X225348Y4148277D01*
X235051Y4133037D01*
X246278Y4118864D01*
X258927Y4105910D01*
X272796Y4094327D01*
X287782Y4084218D01*
X303733Y4075734D01*
X320497Y4068927D01*
X337870Y4063847D01*
X355650Y4060596D01*
G37*
G36*
X2381808Y4186529D02*
G01*
X2430170Y4186529D01*
X2430170Y4234891D01*
X2423668Y4231690D01*
X2412187Y4224020D01*
X2401824Y4214876D01*
X2392680Y4204512D01*
X2385009Y4193032D01*
G37*
G36*
X2522829Y4186529D02*
G01*
X2571191Y4186529D01*
X2567990Y4193032D01*
X2560320Y4204512D01*
X2551176Y4214876D01*
X2540812Y4224020D01*
X2529332Y4231690D01*
X2522829Y4234891D01*
G37*
G36*
X3548735Y4827422D02*
G01*
X3563264Y4827422D01*
X3577640Y4829251D01*
X3591661Y4832908D01*
X3605072Y4838395D01*
X3617722Y4845507D01*
X3629355Y4854143D01*
X3639769Y4864252D01*
X3648811Y4875580D01*
X3656279Y4887976D01*
X3662172Y4901234D01*
X3666286Y4915103D01*
X3668623Y4929428D01*
X3669080Y4943906D01*
X3667658Y4958334D01*
X3664458Y4972507D01*
X3659428Y4986070D01*
X3652723Y4998923D01*
X3644442Y5010861D01*
X3634689Y5021580D01*
X3623665Y5030978D01*
X3611524Y5038852D01*
X3598468Y5045151D01*
X3584701Y5049723D01*
X3570478Y5052517D01*
X3556000Y5053431D01*
X3541522Y5052517D01*
X3527298Y5049723D01*
X3513531Y5045151D01*
X3500475Y5038852D01*
X3488334Y5030978D01*
X3477310Y5021580D01*
X3467557Y5010861D01*
X3459276Y4998923D01*
X3452571Y4986070D01*
X3447542Y4972507D01*
X3444341Y4958334D01*
X3442919Y4943906D01*
X3443376Y4929428D01*
X3445713Y4915103D01*
X3449828Y4901234D01*
X3455720Y4887976D01*
X3463188Y4875580D01*
X3472230Y4864252D01*
X3482644Y4854143D01*
X3494278Y4845507D01*
X3506927Y4838395D01*
X3520338Y4832908D01*
X3534359Y4829251D01*
G37*
G36*
X2158288Y4813554D02*
G01*
X2169922Y4820107D01*
X2181555Y4828743D01*
X2191969Y4838852D01*
X2201011Y4850180D01*
X2208479Y4862576D01*
X2209495Y4864811D01*
X2158288Y4864811D01*
G37*
G36*
X2058111Y4813554D02*
G01*
X2058111Y4864811D01*
X2006904Y4864811D01*
X2007920Y4862576D01*
X2015388Y4850180D01*
X2024430Y4838852D01*
X2034844Y4828743D01*
X2046478Y4820107D01*
G37*
G36*
X830935Y4802022D02*
G01*
X845464Y4802022D01*
X859840Y4803851D01*
X873861Y4807508D01*
X887272Y4812995D01*
X899921Y4820107D01*
X911555Y4828743D01*
X921969Y4838852D01*
X931011Y4850180D01*
X938479Y4862576D01*
X944371Y4875834D01*
X948486Y4889703D01*
X950823Y4904028D01*
X951280Y4918506D01*
X949858Y4932934D01*
X946658Y4947107D01*
X941628Y4960670D01*
X934923Y4973523D01*
X926642Y4985461D01*
X916889Y4996180D01*
X905865Y5005578D01*
X893724Y5013452D01*
X880668Y5019751D01*
X866902Y5024323D01*
X852678Y5027117D01*
X838200Y5028031D01*
X823721Y5027117D01*
X809498Y5024323D01*
X795731Y5019751D01*
X782675Y5013452D01*
X770534Y5005578D01*
X759510Y4996180D01*
X749757Y4985461D01*
X741476Y4973523D01*
X734771Y4960670D01*
X729742Y4947107D01*
X726541Y4932934D01*
X725119Y4918506D01*
X725576Y4904028D01*
X727913Y4889703D01*
X732028Y4875834D01*
X737920Y4862576D01*
X745388Y4850180D01*
X754430Y4838852D01*
X764844Y4828743D01*
X776478Y4820107D01*
X789127Y4812995D01*
X802538Y4807508D01*
X816559Y4803851D01*
G37*
G36*
X634288Y4813554D02*
G01*
X645922Y4820107D01*
X657555Y4828743D01*
X667969Y4838852D01*
X677011Y4850180D01*
X684479Y4862576D01*
X685495Y4864811D01*
X634288Y4864811D01*
G37*
G36*
X534111Y4813554D02*
G01*
X534111Y4864811D01*
X482904Y4864811D01*
X483920Y4862576D01*
X491388Y4850180D01*
X500430Y4838852D01*
X510844Y4828743D01*
X522478Y4820107D01*
G37*

%LPD*%
D11*
X4991100Y3238500D02*
G01*
X5207000Y3238500D01*
X5359400Y3390900D01*
X5359400Y4445000D01*
X5080000Y4724400D01*
X5080000Y4940300D01*
X4826000Y6464300D02*
G01*
X4826000Y6337300D01*
X5575300Y5588000D01*
X5575300Y3225800D01*
X5130800Y2781300D01*
X3492500Y2781300D01*
X4038600Y3213100D02*
G01*
X4457700Y3213100D01*
X4483100Y3238500D01*
X3784600Y3213100D02*
G01*
X4038600Y3213100D01*
X3530600Y3213100D02*
G01*
X3784600Y3213100D01*
X2667000Y2781300D02*
G01*
X2984500Y2781300D01*
X627989Y2993897D02*
G01*
X627989Y2659989D01*
X571500Y2603500D01*
X627989Y2993897D02*
G01*
X1489202Y2993897D01*
X1524000Y2959100D01*
X2108200Y4914900D02*
G01*
X2108200Y4597400D01*
X2235200Y4470400D01*
X2324100Y4470400D01*
X2476500Y4318000D01*
X2476500Y4140200D01*
X1346200Y4914900D02*
G01*
X1346200Y4701286D01*
X879602Y4234687D01*
X1600200Y4914900D02*
G01*
X1600200Y4521200D01*
X1432305Y4353305D01*
X1432305Y4234687D01*
X3810000Y4940300D02*
G01*
X3810000Y4737100D01*
X3606800Y4533900D01*
X3606800Y4313783D01*
X3515106Y4222089D01*
X4569206Y4222089D02*
G01*
X4569206Y4333494D01*
X4318000Y4584700D01*
X4318000Y4940300D01*
X5070602Y4222089D02*
G01*
X5070602Y4263897D01*
X4584700Y4749800D01*
X4584700Y4927600D01*
X4572000Y4940300D01*
X2362200Y4914900D02*
G01*
X2362200Y4876800D01*
X2984500Y4254500D01*
X2984500Y4140200D01*
X2489200Y3289300D02*
G01*
X2489200Y3213100D01*
X2159000Y2882900D01*
X2159000Y2781300D01*
X2362200Y4914900D02*
G01*
X2362200Y5080000D01*
X2717800Y5435600D01*
X4724400Y5435600D01*
X5067300Y5092700D01*
X5067300Y4953000D01*
X5080000Y4940300D01*
X2108200Y6438900D02*
G01*
X2108200Y6286500D01*
X2413000Y5981700D01*
X3492500Y5981700D01*
X3810000Y6299200D01*
X3810000Y6464300D01*
X3683000Y6921500D02*
G01*
X4826000Y6921500D01*
X5067300Y6680200D01*
X5067300Y6477000D01*
X5080000Y6464300D01*
X990600Y6908800D02*
G01*
X2197100Y6908800D01*
X2349500Y6756400D01*
X2349500Y6451600D01*
X2362200Y6438900D01*
X2997200Y3289300D02*
G01*
X2997200Y3276600D01*
X3492500Y2781300D01*
X317500Y2603500D02*
G01*
X317500Y3184804D01*
X627992Y3495296D01*
X2984500Y4140200D02*
G01*
X2984500Y4025900D01*
X2489200Y3530600D01*
X2489200Y3289300D01*
X3556000Y6464300D02*
G01*
X3556000Y6667500D01*
X3429000Y6794500D01*
X3429000Y6921500D01*
X838200Y6438900D02*
G01*
X838200Y6667500D01*
X736600Y6769100D01*
X736600Y6908800D01*
X1092200Y4914900D02*
G01*
X1092200Y4762500D01*
X965200Y4635500D01*
X596900Y4635500D01*
X368300Y4406900D01*
X368300Y4244695D01*
X378205Y4234789D01*
X4064000Y4940300D02*
G01*
X4064000Y4269587D01*
X4016502Y4222089D01*
X1854200Y4914900D02*
G01*
X1854200Y4314291D01*
X1933702Y4234789D01*
X627989Y3495294D02*
G01*
X627989Y3481217D01*
X642106Y3467100D01*
X1524000Y3467100D01*
X2489200Y3289300D02*
G01*
X1701800Y3289300D01*
X1524000Y3467100D01*
X2997200Y3289300D02*
G01*
X3175000Y3289300D01*
X3352800Y3467100D01*
X3530600Y3467100D01*
X3784600Y3467100D02*
G01*
X3530600Y3467100D01*
X4038600Y3467100D02*
G01*
X3784600Y3467100D01*
X4572000Y6464300D02*
G01*
X4826000Y6464300D01*
X4318000Y6464300D02*
G01*
X4572000Y6464300D01*
X4064000Y6464300D02*
G01*
X4318000Y6464300D01*
X3810000Y6464300D02*
G01*
X4064000Y6464300D01*
X482600Y6908800D02*
G01*
X482600Y6540500D01*
X584200Y6438900D01*
X3175000Y6921500D02*
G01*
X3175000Y6591300D01*
X3302000Y6464300D01*
X1854200Y6438900D02*
G01*
X2108200Y6438900D01*
X1600200Y6438900D02*
G01*
X1854200Y6438900D01*
X1346200Y6438900D02*
G01*
X1600200Y6438900D01*
X1092200Y6438900D02*
G01*
X1346200Y6438900D01*
D12*
G01*
X4991100Y3238500D03*
G01*
X4483100Y3238500D03*
G01*
X2984500Y4140200D03*
G01*
X2476500Y4140200D03*
D13*
G01*
X317500Y2603500D03*
D14*
G01*
X571500Y2603500D03*
D13*
G01*
X4038600Y3467100D03*
D14*
G01*
X4038600Y3213100D03*
D13*
G01*
X3784600Y3467100D03*
D14*
G01*
X3784600Y3213100D03*
D13*
G01*
X3530600Y3467100D03*
D14*
G01*
X3530600Y3213100D03*
D12*
G01*
X1524000Y3467100D03*
G01*
X1524000Y2959100D03*
D14*
G01*
X3683000Y6921500D03*
G01*
X3429000Y6921500D03*
G36*
X3096259Y7000239D02*
G01*
X3253740Y7000239D01*
X3253740Y6842760D01*
X3096259Y6842760D01*
G37*
G01*
X990600Y6908800D03*
G01*
X736600Y6908800D03*
G36*
X403860Y6987539D02*
G01*
X561339Y6987539D01*
X561339Y6830060D01*
X403860Y6830060D01*
G37*
D15*
G01*
X879602Y4234789D03*
G01*
X378205Y4234789D03*
G01*
X5070602Y4222089D03*
G01*
X4569206Y4222089D03*
G01*
X4016502Y4222089D03*
G01*
X3515106Y4222089D03*
G01*
X627989Y2993897D03*
G01*
X627989Y3495294D03*
G01*
X1933702Y4234789D03*
G01*
X1432305Y4234789D03*
D16*
G01*
X2159000Y2781300D03*
G01*
X2667000Y2781300D03*
G01*
X3492500Y2781300D03*
G01*
X2984500Y2781300D03*
G36*
X2389124Y3414268D02*
G01*
X2589275Y3414268D01*
X2589275Y3164331D01*
X2389124Y3164331D01*
G37*
D18*
G01*
X3302000Y4940300D03*
G01*
X3810000Y4940300D03*
G01*
X3556000Y4940300D03*
G01*
X4064000Y4940300D03*
G01*
X4318000Y4940300D03*
G01*
X4572000Y4940300D03*
G01*
X4826000Y4940300D03*
G01*
X5080000Y4940300D03*
G01*
X3302000Y6464300D03*
G01*
X3810000Y6464300D03*
G01*
X3556000Y6464300D03*
G01*
X4064000Y6464300D03*
G01*
X4318000Y6464300D03*
G01*
X4572000Y6464300D03*
G01*
X4826000Y6464300D03*
G01*
X5080000Y6464300D03*
G01*
X584200Y4914900D03*
G01*
X1092200Y4914900D03*
G01*
X838200Y4914900D03*
G01*
X1346200Y4914900D03*
G01*
X1600200Y4914900D03*
G01*
X1854200Y4914900D03*
G01*
X2108200Y4914900D03*
G01*
X2362200Y4914900D03*
G01*
X584200Y6438900D03*
G01*
X1092200Y6438900D03*
G01*
X838200Y6438900D03*
G01*
X1346200Y6438900D03*
G01*
X1600200Y6438900D03*
G01*
X1854200Y6438900D03*
G01*
X2108200Y6438900D03*
G01*
X2362200Y6438900D03*
D19*
X2743200Y3314298D02*
G01*
X2743200Y3264298D01*
X2997200Y3314298D02*
G01*
X2997200Y3264298D01*
M02*
