M48
METRIC,LZ,000.000
;FILE_FORMAT=3:3
;TYPE=PLATED
;Layer: Drill PTH
;EasyEDA v6.4.19.4, 2021-04-27T12:02:32+05:30
;545d4b8ce55c4096bfffc31d6a5384ca,10
;Gerber Generator version 0.2
;Holesize 1 = 0.800 mm
T01C0.800
;Holesize 2 = 0.915 mm
T02C0.915
;Holesize 3 = 1.000 mm
T03C1.000
;Holesize 4 = 1.101 mm
T04C1.101
%
G05
G90
T01
X040148Y027178
X042148Y027178
T02
X050927Y034036
X050927Y036576
X050927Y039116
X050927Y041656
X050927Y044196
X050927Y046736
X050927Y049276
X010670Y055374
X013210Y055374
X015750Y055374
X018290Y055374
X020830Y055374
X023370Y055374
X025910Y055374
X028450Y055374
X030990Y055374
X033530Y055374
X036070Y055374
X038610Y055374
X041150Y055374
X043690Y055374
X046230Y055374
X046226Y031494
X043686Y031494
X041146Y031494
X038606Y031494
X036066Y031494
X033526Y031494
X030986Y031494
X028446Y031494
X025906Y031494
X023366Y031494
X020826Y031494
X018286Y031494
X015746Y031494
X013206Y031494
X010666Y031494
T03
X046228Y035814
X043688Y035814
X041148Y035814
X038608Y035814
X036068Y035814
X033528Y035814
X030988Y035814
X028448Y035814
X025908Y035814
X023368Y035814
X020828Y035814
X018288Y035814
X015748Y035814
X013208Y035814
X010668Y035814
X010668Y051054
X013208Y051054
X015748Y051054
X018288Y051054
X020828Y051054
X023368Y051054
X025908Y051054
X028448Y051054
X030988Y051054
X033528Y051054
X036068Y051054
X038608Y051054
X041148Y051054
X043688Y051054
X046228Y051054
T04
X031115Y028575
X031115Y026035
X036957Y028575
X036957Y026035
X034036Y028575
X034036Y026035
M30
