G04 Layer: TopLayer*
G04 EasyEDA v6.4.19.4, 2021-04-27T12:02:32+05:30*
G04 545d4b8ce55c4096bfffc31d6a5384ca,10*
G04 Gerber Generator version 0.2*
G04 Scale: 100 percent, Rotated: No, Reflected: No *
G04 Dimensions in millimeters *
G04 leading zeros omitted , absolute positions ,4 integer and 5 decimal *
%FSLAX45Y45*%
%MOMM*%

%ADD11C,1.5000*%
%ADD12R,1.5240X1.5240*%
%ADD13C,1.5240*%
%ADD14C,1.3000*%
%ADD15R,1.6000X1.6000*%
%ADD16C,1.6000*%

%LPD*%
G36*
X735838Y2438654D02*
G01*
X731926Y2439416D01*
X728675Y2441651D01*
X726440Y2444902D01*
X725678Y2448814D01*
X725678Y5664200D01*
X726440Y5668111D01*
X728675Y5671362D01*
X731926Y5673598D01*
X735838Y5674360D01*
X5234686Y5674360D01*
X5238597Y5673598D01*
X5241848Y5671362D01*
X5244084Y5668111D01*
X5244846Y5664200D01*
X5244846Y2448814D01*
X5244084Y2444902D01*
X5241848Y2441651D01*
X5238597Y2439416D01*
X5234686Y2438654D01*
G37*

%LPC*%
G36*
X4626000Y3047593D02*
G01*
X4639513Y3048965D01*
X4652772Y3052114D01*
X4665472Y3056991D01*
X4677359Y3063544D01*
X4688332Y3071622D01*
X4698085Y3081070D01*
X4706518Y3091738D01*
X4713478Y3103422D01*
X4718761Y3115970D01*
X4722368Y3129076D01*
X4724196Y3142589D01*
X4724196Y3156153D01*
X4723231Y3164179D01*
X4723384Y3483457D01*
X4723790Y3486251D01*
X4725873Y3490315D01*
X4727752Y3495700D01*
X4728464Y3501948D01*
X4728464Y3660851D01*
X4727752Y3667099D01*
X4725873Y3672484D01*
X4722825Y3677361D01*
X4718761Y3681425D01*
X4713884Y3684473D01*
X4708499Y3686352D01*
X4702251Y3687064D01*
X4543348Y3687064D01*
X4537100Y3686352D01*
X4531715Y3684473D01*
X4526838Y3681425D01*
X4522774Y3677361D01*
X4519726Y3672484D01*
X4517847Y3667099D01*
X4517136Y3660851D01*
X4517136Y3501948D01*
X4517847Y3495700D01*
X4519726Y3490315D01*
X4521708Y3486454D01*
X4522063Y3483610D01*
X4521911Y3165144D01*
X4520742Y3149346D01*
X4521657Y3135782D01*
X4524349Y3122472D01*
X4528820Y3109620D01*
X4534966Y3097479D01*
X4542688Y3086252D01*
X4551781Y3076194D01*
X4562195Y3067405D01*
X4573625Y3060090D01*
X4585970Y3054350D01*
X4598974Y3050336D01*
X4612386Y3048050D01*
G37*
G36*
X3067050Y2512110D02*
G01*
X3067050Y2559050D01*
X3020110Y2559050D01*
X3022193Y2554579D01*
X3029508Y2543098D01*
X3038297Y2532684D01*
X3048406Y2523591D01*
X3059582Y2515870D01*
G37*
G36*
X3359150Y2512110D02*
G01*
X3359150Y2559050D01*
X3312210Y2559050D01*
X3314293Y2554579D01*
X3321608Y2543098D01*
X3330397Y2532684D01*
X3340506Y2523591D01*
X3351682Y2515870D01*
G37*
G36*
X3740150Y2512110D02*
G01*
X3747617Y2515870D01*
X3758793Y2523591D01*
X3768902Y2532684D01*
X3777691Y2543098D01*
X3785006Y2554579D01*
X3787089Y2559050D01*
X3740150Y2559050D01*
G37*
G36*
X3448050Y2512110D02*
G01*
X3455517Y2515870D01*
X3466693Y2523591D01*
X3476802Y2532684D01*
X3485591Y2543098D01*
X3492906Y2554579D01*
X3494989Y2559050D01*
X3448050Y2559050D01*
G37*
G36*
X3155950Y2512110D02*
G01*
X3163417Y2515870D01*
X3174593Y2523591D01*
X3184702Y2532684D01*
X3193491Y2543098D01*
X3200806Y2554579D01*
X3202889Y2559050D01*
X3155950Y2559050D01*
G37*
G36*
X4014825Y2617165D02*
G01*
X4027932Y2618028D01*
X4040835Y2620619D01*
X4053332Y2624836D01*
X4065117Y2630627D01*
X4076039Y2637942D01*
X4085945Y2646629D01*
X4094632Y2656535D01*
X4101947Y2667508D01*
X4107789Y2679293D01*
X4110380Y2686913D01*
X4111904Y2689555D01*
X4111853Y2691079D01*
X4114596Y2704642D01*
X4115409Y2717800D01*
X4114596Y2730957D01*
X4111853Y2744520D01*
X4111904Y2746044D01*
X4110380Y2748686D01*
X4107789Y2756306D01*
X4101947Y2768092D01*
X4094632Y2779064D01*
X4085742Y2789224D01*
X3946499Y2928416D01*
X3940810Y2933446D01*
X3938371Y2936595D01*
X3937355Y2940405D01*
X3937863Y2944368D01*
X3947718Y2959354D01*
X3953560Y2971139D01*
X3957777Y2983636D01*
X3960368Y2996539D01*
X3961231Y3010001D01*
X3961231Y3134715D01*
X3962196Y3142589D01*
X3962196Y3156153D01*
X3961231Y3164179D01*
X3961434Y3548278D01*
X3961993Y3551529D01*
X3962857Y3554069D01*
X3965549Y3567633D01*
X3966413Y3581400D01*
X3965549Y3595166D01*
X3962857Y3608730D01*
X3961993Y3611219D01*
X3961434Y3614470D01*
X3961434Y3649776D01*
X3962247Y3653688D01*
X3964432Y3656990D01*
X4013809Y3706368D01*
X4017111Y3708552D01*
X4021023Y3709365D01*
X4818176Y3709365D01*
X4822088Y3708552D01*
X4825390Y3706368D01*
X4945075Y3586683D01*
X4955235Y3577742D01*
X4966208Y3570427D01*
X4977993Y3564636D01*
X4990439Y3560419D01*
X5003342Y3557828D01*
X5016855Y3556965D01*
X5078171Y3556965D01*
X5085892Y3556000D01*
X5099507Y3556000D01*
X5112969Y3557828D01*
X5126126Y3561384D01*
X5138623Y3566718D01*
X5150307Y3573627D01*
X5161026Y3582060D01*
X5170474Y3591864D01*
X5178552Y3602786D01*
X5185054Y3614724D01*
X5189982Y3627424D01*
X5193131Y3640683D01*
X5194452Y3654196D01*
X5193995Y3667810D01*
X5191760Y3681222D01*
X5187746Y3694176D01*
X5182006Y3706520D01*
X5174691Y3718001D01*
X5165902Y3728415D01*
X5155793Y3737508D01*
X5144617Y3745229D01*
X5132476Y3751326D01*
X5119624Y3755796D01*
X5106263Y3758539D01*
X5092700Y3759454D01*
X5076799Y3758234D01*
X5062423Y3758234D01*
X5058511Y3759047D01*
X5055209Y3761232D01*
X4935524Y3880916D01*
X4925364Y3889857D01*
X4914392Y3897172D01*
X4902606Y3902964D01*
X4895240Y3905453D01*
X4891786Y3907485D01*
X4889347Y3910787D01*
X4888382Y3914698D01*
X4889042Y3918712D01*
X4891227Y3922115D01*
X4894580Y3924452D01*
X4898542Y3925265D01*
X4932476Y3925265D01*
X4936388Y3924452D01*
X4939690Y3922268D01*
X5011115Y3850792D01*
X5014925Y3845864D01*
X5024374Y3836060D01*
X5035092Y3827627D01*
X5046776Y3820718D01*
X5059273Y3815384D01*
X5072430Y3811828D01*
X5085892Y3810000D01*
X5099507Y3810000D01*
X5112969Y3811828D01*
X5126126Y3815384D01*
X5138623Y3820718D01*
X5150307Y3827627D01*
X5161026Y3836060D01*
X5170474Y3845864D01*
X5178552Y3856786D01*
X5185054Y3868724D01*
X5189982Y3881424D01*
X5193131Y3894683D01*
X5194452Y3908196D01*
X5193995Y3921810D01*
X5191760Y3935222D01*
X5187746Y3948176D01*
X5182006Y3960520D01*
X5174691Y3972001D01*
X5165902Y3982415D01*
X5155793Y3991508D01*
X5152999Y3993692D01*
X5099151Y4047490D01*
X5096764Y4051249D01*
X5096256Y4055719D01*
X5097678Y4059936D01*
X5100777Y4063187D01*
X5104993Y4064711D01*
X5112969Y4065828D01*
X5126126Y4069384D01*
X5138623Y4074718D01*
X5150307Y4081627D01*
X5161026Y4090060D01*
X5170474Y4099864D01*
X5178552Y4110786D01*
X5185054Y4122724D01*
X5189982Y4135424D01*
X5193131Y4148683D01*
X5194452Y4162196D01*
X5193995Y4175810D01*
X5191760Y4189222D01*
X5187746Y4202176D01*
X5182006Y4214520D01*
X5174691Y4226001D01*
X5165902Y4236415D01*
X5155793Y4245508D01*
X5152999Y4247692D01*
X5100624Y4300016D01*
X5097119Y4304030D01*
X5096103Y4307738D01*
X5096459Y4311599D01*
X5098288Y4315002D01*
X5101183Y4317492D01*
X5104841Y4318711D01*
X5112969Y4319828D01*
X5126126Y4323384D01*
X5138623Y4328718D01*
X5150307Y4335627D01*
X5161026Y4344060D01*
X5170474Y4353864D01*
X5178552Y4364786D01*
X5185054Y4376724D01*
X5189982Y4389424D01*
X5193131Y4402683D01*
X5194452Y4416196D01*
X5193995Y4429810D01*
X5191760Y4443222D01*
X5187746Y4456176D01*
X5182006Y4468520D01*
X5174691Y4480001D01*
X5165902Y4490415D01*
X5155793Y4499508D01*
X5144617Y4507230D01*
X5132476Y4513326D01*
X5119624Y4517796D01*
X5106263Y4520539D01*
X5092700Y4521454D01*
X5076799Y4520234D01*
X1836623Y4520234D01*
X1832711Y4521047D01*
X1829409Y4523232D01*
X1424432Y4928209D01*
X1422247Y4931511D01*
X1421434Y4935423D01*
X1421434Y5072329D01*
X1421993Y5075580D01*
X1422857Y5078069D01*
X1425549Y5091633D01*
X1426413Y5105400D01*
X1425549Y5119166D01*
X1422857Y5132730D01*
X1421993Y5135168D01*
X1421485Y5138420D01*
X1421688Y5521655D01*
X1422857Y5537403D01*
X1421942Y5551017D01*
X1419250Y5564327D01*
X1414780Y5577179D01*
X1408633Y5589320D01*
X1400911Y5600547D01*
X1391818Y5610606D01*
X1381404Y5619394D01*
X1369974Y5626709D01*
X1357630Y5632450D01*
X1344625Y5636463D01*
X1331214Y5638749D01*
X1317599Y5639206D01*
X1304086Y5637834D01*
X1290828Y5634685D01*
X1278128Y5629808D01*
X1266240Y5623255D01*
X1255268Y5615178D01*
X1245514Y5605729D01*
X1237081Y5595061D01*
X1230122Y5583377D01*
X1224838Y5570829D01*
X1221232Y5557723D01*
X1219403Y5544210D01*
X1219403Y5530646D01*
X1220368Y5522620D01*
X1220165Y5138521D01*
X1219606Y5135270D01*
X1218742Y5132730D01*
X1216050Y5119166D01*
X1215186Y5105400D01*
X1216050Y5091633D01*
X1218742Y5078069D01*
X1219606Y5075580D01*
X1220165Y5072329D01*
X1220165Y4889855D01*
X1221028Y4876342D01*
X1223619Y4863439D01*
X1227836Y4850993D01*
X1233627Y4839208D01*
X1240942Y4828235D01*
X1249883Y4818075D01*
X1720545Y4347565D01*
X1723034Y4344314D01*
X1723999Y4340352D01*
X1723389Y4336338D01*
X1721205Y4332884D01*
X1717852Y4330547D01*
X1713839Y4329734D01*
X1709623Y4329734D01*
X1705711Y4330547D01*
X1702409Y4332732D01*
X1170432Y4864709D01*
X1168247Y4868011D01*
X1167434Y4871923D01*
X1167434Y5072329D01*
X1167993Y5075580D01*
X1168857Y5078069D01*
X1171549Y5091633D01*
X1172413Y5105400D01*
X1171549Y5119166D01*
X1168857Y5132730D01*
X1167993Y5135168D01*
X1167485Y5138420D01*
X1167688Y5521655D01*
X1168857Y5537403D01*
X1167942Y5551017D01*
X1165250Y5564327D01*
X1160780Y5577179D01*
X1154633Y5589320D01*
X1146911Y5600547D01*
X1137818Y5610606D01*
X1127404Y5619394D01*
X1115974Y5626709D01*
X1103630Y5632450D01*
X1090625Y5636463D01*
X1077214Y5638749D01*
X1063599Y5639206D01*
X1050086Y5637834D01*
X1036828Y5634685D01*
X1024128Y5629808D01*
X1012240Y5623255D01*
X1001268Y5615178D01*
X991514Y5605729D01*
X983081Y5595061D01*
X976121Y5583377D01*
X970838Y5570829D01*
X967232Y5557723D01*
X965403Y5544210D01*
X965403Y5530646D01*
X966368Y5522620D01*
X966165Y5138521D01*
X965606Y5135270D01*
X964742Y5132730D01*
X962050Y5119166D01*
X961186Y5105400D01*
X962050Y5091633D01*
X964742Y5078069D01*
X965606Y5075580D01*
X966165Y5072329D01*
X966165Y4826355D01*
X967028Y4812842D01*
X969619Y4799939D01*
X973836Y4787493D01*
X979627Y4775708D01*
X986942Y4764735D01*
X995883Y4754575D01*
X1592275Y4158183D01*
X1602435Y4149242D01*
X1608582Y4145178D01*
X1611579Y4142079D01*
X1613001Y4138015D01*
X1612646Y4133748D01*
X1610563Y4130040D01*
X1607108Y4127449D01*
X1602943Y4126534D01*
X1346555Y4126534D01*
X1333042Y4125671D01*
X1320139Y4123080D01*
X1307693Y4118864D01*
X1295908Y4113072D01*
X1284935Y4105757D01*
X1274775Y4096816D01*
X995883Y3817924D01*
X986942Y3807764D01*
X979627Y3796792D01*
X973836Y3785006D01*
X969619Y3772560D01*
X967028Y3759657D01*
X966165Y3746144D01*
X966165Y3614470D01*
X965606Y3611219D01*
X964742Y3608730D01*
X962050Y3595166D01*
X961186Y3581400D01*
X962050Y3567633D01*
X964742Y3554069D01*
X965606Y3551631D01*
X966114Y3548379D01*
X965911Y3165144D01*
X964742Y3149346D01*
X965657Y3135782D01*
X968349Y3122472D01*
X972819Y3109620D01*
X978966Y3097479D01*
X986688Y3086252D01*
X995781Y3076194D01*
X1006195Y3067405D01*
X1017625Y3060090D01*
X1029969Y3054350D01*
X1042974Y3050336D01*
X1056386Y3048050D01*
X1070000Y3047593D01*
X1083513Y3048965D01*
X1096772Y3052114D01*
X1109472Y3056991D01*
X1121359Y3063544D01*
X1132332Y3071622D01*
X1142085Y3081070D01*
X1150518Y3091738D01*
X1157478Y3103422D01*
X1162761Y3115970D01*
X1166368Y3129076D01*
X1168196Y3142589D01*
X1168196Y3156153D01*
X1167231Y3164179D01*
X1167434Y3548278D01*
X1167993Y3551529D01*
X1168857Y3554069D01*
X1171549Y3567633D01*
X1172413Y3581400D01*
X1171549Y3595166D01*
X1168857Y3608730D01*
X1167993Y3611219D01*
X1167434Y3614470D01*
X1167434Y3700576D01*
X1168247Y3704488D01*
X1170432Y3707790D01*
X1384909Y3922268D01*
X1388211Y3924452D01*
X1392123Y3925265D01*
X3940657Y3925265D01*
X3944620Y3924452D01*
X3947972Y3922115D01*
X3950157Y3918712D01*
X3950817Y3914698D01*
X3949852Y3910787D01*
X3947464Y3907485D01*
X3943959Y3905453D01*
X3936593Y3902964D01*
X3924808Y3897172D01*
X3913835Y3889857D01*
X3903675Y3880916D01*
X3789883Y3767124D01*
X3780942Y3756964D01*
X3773627Y3745992D01*
X3767836Y3734206D01*
X3763619Y3721760D01*
X3761028Y3708857D01*
X3760165Y3695344D01*
X3760165Y3614470D01*
X3759606Y3611219D01*
X3758742Y3608730D01*
X3756050Y3595166D01*
X3755186Y3581400D01*
X3756050Y3567633D01*
X3758742Y3554069D01*
X3759606Y3551631D01*
X3760114Y3548379D01*
X3759911Y3165144D01*
X3758742Y3149346D01*
X3759911Y3133547D01*
X3759911Y3055569D01*
X3759149Y3051708D01*
X3756964Y3048406D01*
X3670858Y2962351D01*
X3667607Y2960116D01*
X3663696Y2959354D01*
X3620058Y2959354D01*
X3610660Y2958134D01*
X3488639Y2958134D01*
X3479241Y2959354D01*
X3327958Y2959354D01*
X3318560Y2958134D01*
X3196539Y2958134D01*
X3187141Y2959354D01*
X3035858Y2959354D01*
X3029610Y2958642D01*
X3024174Y2956763D01*
X3019348Y2953715D01*
X3015284Y2949651D01*
X3012236Y2944825D01*
X3010357Y2939389D01*
X3009646Y2933141D01*
X3009646Y2781858D01*
X3010357Y2775610D01*
X3012236Y2770174D01*
X3015284Y2765348D01*
X3019348Y2761284D01*
X3024174Y2758236D01*
X3029610Y2756357D01*
X3035858Y2755646D01*
X3187141Y2755646D01*
X3196539Y2756865D01*
X3318560Y2756865D01*
X3327958Y2755646D01*
X3479241Y2755646D01*
X3488639Y2756865D01*
X3610660Y2756865D01*
X3620058Y2755646D01*
X3771341Y2755646D01*
X3780739Y2756865D01*
X3829202Y2756865D01*
X3833063Y2756052D01*
X3836365Y2753868D01*
X3943400Y2646883D01*
X3953560Y2637942D01*
X3964482Y2630627D01*
X3976268Y2624836D01*
X3988765Y2620619D01*
X4001668Y2618028D01*
G37*
G36*
X4253636Y2636012D02*
G01*
X4254550Y2636367D01*
X4265472Y2642666D01*
X4275429Y2650439D01*
X4284218Y2659532D01*
X4291634Y2669794D01*
X4296511Y2678938D01*
X4253636Y2678938D01*
G37*
G36*
X4175963Y2636164D02*
G01*
X4175963Y2678938D01*
X4133138Y2678938D01*
X4134764Y2675229D01*
X4141470Y2664510D01*
X4149598Y2654858D01*
X4158996Y2646375D01*
X4169460Y2639314D01*
G37*
G36*
X3020009Y2647950D02*
G01*
X3067050Y2647950D01*
X3067050Y2694990D01*
X3065576Y2694381D01*
X3053892Y2687472D01*
X3043174Y2679039D01*
X3033725Y2669235D01*
X3025648Y2658313D01*
G37*
G36*
X3448050Y2647950D02*
G01*
X3495090Y2647950D01*
X3489451Y2658313D01*
X3481374Y2669235D01*
X3471926Y2679039D01*
X3461207Y2687472D01*
X3449523Y2694381D01*
X3448050Y2694990D01*
G37*
G36*
X3604209Y2647950D02*
G01*
X3651250Y2647950D01*
X3651250Y2694990D01*
X3649776Y2694381D01*
X3638092Y2687472D01*
X3627374Y2679039D01*
X3617925Y2669235D01*
X3609848Y2658313D01*
G37*
G36*
X3312109Y2647950D02*
G01*
X3359150Y2647950D01*
X3359150Y2694990D01*
X3357676Y2694381D01*
X3345992Y2687472D01*
X3335274Y2679039D01*
X3325825Y2669235D01*
X3317748Y2658313D01*
G37*
G36*
X3155950Y2647950D02*
G01*
X3202990Y2647950D01*
X3197352Y2658313D01*
X3189274Y2669235D01*
X3179826Y2679039D01*
X3169107Y2687472D01*
X3157423Y2694381D01*
X3155950Y2694990D01*
G37*
G36*
X3740150Y2647950D02*
G01*
X3787190Y2647950D01*
X3781551Y2658313D01*
X3773474Y2669235D01*
X3764026Y2679039D01*
X3753307Y2687472D01*
X3741623Y2694381D01*
X3740150Y2694990D01*
G37*
G36*
X5085892Y4572000D02*
G01*
X5099507Y4572000D01*
X5112969Y4573828D01*
X5126126Y4577384D01*
X5138623Y4582718D01*
X5150307Y4589627D01*
X5161026Y4598060D01*
X5170474Y4607864D01*
X5178552Y4618786D01*
X5185054Y4630724D01*
X5189982Y4643424D01*
X5193131Y4656683D01*
X5194452Y4670196D01*
X5193995Y4683810D01*
X5191760Y4697222D01*
X5187746Y4710176D01*
X5182006Y4722520D01*
X5174691Y4734001D01*
X5165902Y4744415D01*
X5155793Y4753508D01*
X5144617Y4761230D01*
X5132476Y4767326D01*
X5119624Y4771796D01*
X5106263Y4774539D01*
X5092700Y4775454D01*
X5076799Y4774234D01*
X1912823Y4774234D01*
X1908911Y4775047D01*
X1905609Y4777232D01*
X1869541Y4813300D01*
X1867204Y4816906D01*
X1866595Y4821123D01*
X1867763Y4825288D01*
X1870557Y4828540D01*
X1874418Y4830368D01*
X1878736Y4830419D01*
X1891842Y4827828D01*
X1905355Y4826965D01*
X5078171Y4826965D01*
X5085892Y4826000D01*
X5099507Y4826000D01*
X5112969Y4827828D01*
X5126126Y4831384D01*
X5138623Y4836718D01*
X5150307Y4843627D01*
X5161026Y4852060D01*
X5170474Y4861864D01*
X5178552Y4872786D01*
X5185054Y4884724D01*
X5189982Y4897424D01*
X5193131Y4910683D01*
X5194452Y4924196D01*
X5193995Y4937810D01*
X5191760Y4951222D01*
X5187746Y4964176D01*
X5182006Y4976520D01*
X5174691Y4988001D01*
X5165902Y4998415D01*
X5155793Y5007508D01*
X5144617Y5015230D01*
X5132476Y5021326D01*
X5119624Y5025796D01*
X5106263Y5028539D01*
X5092700Y5029454D01*
X5076799Y5028234D01*
X4717034Y5028234D01*
X4712766Y5029200D01*
X4709312Y5031790D01*
X4707229Y5035651D01*
X4706975Y5040020D01*
X4708601Y5044033D01*
X4714290Y5052568D01*
X4720386Y5064963D01*
X4724857Y5078069D01*
X4727549Y5091633D01*
X4728413Y5105400D01*
X4727549Y5119166D01*
X4724857Y5132730D01*
X4723993Y5135168D01*
X4723485Y5138420D01*
X4723688Y5521655D01*
X4724857Y5537403D01*
X4723942Y5551017D01*
X4721250Y5564327D01*
X4716780Y5577179D01*
X4710633Y5589320D01*
X4702911Y5600547D01*
X4693818Y5610606D01*
X4683404Y5619394D01*
X4671974Y5626709D01*
X4659630Y5632450D01*
X4646625Y5636463D01*
X4633214Y5638749D01*
X4619599Y5639206D01*
X4606086Y5637834D01*
X4592828Y5634685D01*
X4580128Y5629808D01*
X4568240Y5623255D01*
X4557268Y5615178D01*
X4547514Y5605729D01*
X4539081Y5595061D01*
X4532122Y5583377D01*
X4526838Y5570829D01*
X4523232Y5557723D01*
X4521403Y5544210D01*
X4521403Y5530646D01*
X4522368Y5522620D01*
X4522165Y5138521D01*
X4521606Y5135270D01*
X4520742Y5132730D01*
X4518050Y5119166D01*
X4517186Y5105400D01*
X4518050Y5091633D01*
X4520742Y5078069D01*
X4525213Y5064963D01*
X4531309Y5052568D01*
X4536998Y5044033D01*
X4538624Y5040020D01*
X4538370Y5035651D01*
X4536287Y5031790D01*
X4532833Y5029200D01*
X4528566Y5028234D01*
X4463034Y5028234D01*
X4458766Y5029200D01*
X4455312Y5031790D01*
X4453229Y5035651D01*
X4452975Y5040020D01*
X4454601Y5044033D01*
X4460290Y5052568D01*
X4466386Y5064963D01*
X4470857Y5078069D01*
X4473549Y5091633D01*
X4474413Y5105400D01*
X4473549Y5119166D01*
X4470857Y5132730D01*
X4469993Y5135168D01*
X4469485Y5138420D01*
X4469688Y5521655D01*
X4470857Y5537403D01*
X4469942Y5551017D01*
X4467250Y5564327D01*
X4462780Y5577179D01*
X4456633Y5589320D01*
X4448911Y5600547D01*
X4439818Y5610606D01*
X4429404Y5619394D01*
X4417974Y5626709D01*
X4405630Y5632450D01*
X4392625Y5636463D01*
X4379214Y5638749D01*
X4365599Y5639206D01*
X4352086Y5637834D01*
X4338828Y5634685D01*
X4326128Y5629808D01*
X4314240Y5623255D01*
X4303268Y5615178D01*
X4293514Y5605729D01*
X4285081Y5595061D01*
X4278122Y5583377D01*
X4272838Y5570829D01*
X4269232Y5557723D01*
X4267403Y5544210D01*
X4267403Y5530646D01*
X4268368Y5522620D01*
X4268165Y5138521D01*
X4267606Y5135270D01*
X4266742Y5132730D01*
X4264050Y5119166D01*
X4263186Y5105400D01*
X4264050Y5091633D01*
X4266742Y5078069D01*
X4271213Y5064963D01*
X4277309Y5052568D01*
X4282998Y5044033D01*
X4284624Y5040020D01*
X4284370Y5035651D01*
X4282287Y5031790D01*
X4278833Y5029200D01*
X4274566Y5028234D01*
X4209034Y5028234D01*
X4204766Y5029200D01*
X4201312Y5031790D01*
X4199229Y5035651D01*
X4198975Y5040020D01*
X4200601Y5044033D01*
X4206290Y5052568D01*
X4212386Y5064963D01*
X4216857Y5078069D01*
X4219549Y5091633D01*
X4220413Y5105400D01*
X4219549Y5119166D01*
X4216857Y5132730D01*
X4215993Y5135168D01*
X4215485Y5138420D01*
X4215688Y5521655D01*
X4216857Y5537403D01*
X4215942Y5551017D01*
X4213250Y5564327D01*
X4208780Y5577179D01*
X4202633Y5589320D01*
X4194911Y5600547D01*
X4185818Y5610606D01*
X4175404Y5619394D01*
X4163974Y5626709D01*
X4151629Y5632450D01*
X4138625Y5636463D01*
X4125214Y5638749D01*
X4111599Y5639206D01*
X4098086Y5637834D01*
X4084828Y5634685D01*
X4072128Y5629808D01*
X4060240Y5623255D01*
X4049268Y5615178D01*
X4039514Y5605729D01*
X4031081Y5595061D01*
X4024122Y5583377D01*
X4018838Y5570829D01*
X4015232Y5557723D01*
X4013403Y5544210D01*
X4013403Y5530646D01*
X4014368Y5522620D01*
X4014165Y5138521D01*
X4013606Y5135270D01*
X4012742Y5132730D01*
X4010050Y5119166D01*
X4009186Y5105400D01*
X4010050Y5091633D01*
X4012742Y5078069D01*
X4017213Y5064963D01*
X4023309Y5052568D01*
X4028998Y5044033D01*
X4030624Y5040020D01*
X4030370Y5035651D01*
X4028287Y5031790D01*
X4024833Y5029200D01*
X4020565Y5028234D01*
X3955034Y5028234D01*
X3950766Y5029200D01*
X3947312Y5031790D01*
X3945229Y5035651D01*
X3944975Y5040020D01*
X3946601Y5044033D01*
X3952290Y5052568D01*
X3958386Y5064963D01*
X3962857Y5078069D01*
X3965549Y5091633D01*
X3966413Y5105400D01*
X3965549Y5119166D01*
X3962857Y5132730D01*
X3961993Y5135168D01*
X3961485Y5138420D01*
X3961688Y5521655D01*
X3962857Y5537403D01*
X3961942Y5551017D01*
X3959250Y5564327D01*
X3954779Y5577179D01*
X3948633Y5589320D01*
X3940911Y5600547D01*
X3931818Y5610606D01*
X3921404Y5619394D01*
X3909974Y5626709D01*
X3897629Y5632450D01*
X3884625Y5636463D01*
X3871214Y5638749D01*
X3857599Y5639206D01*
X3844086Y5637834D01*
X3830828Y5634685D01*
X3818128Y5629808D01*
X3806240Y5623255D01*
X3795268Y5615178D01*
X3785514Y5605729D01*
X3777081Y5595061D01*
X3770122Y5583377D01*
X3764838Y5570829D01*
X3761232Y5557723D01*
X3759403Y5544210D01*
X3759403Y5530646D01*
X3760368Y5522620D01*
X3760165Y5138521D01*
X3759606Y5135270D01*
X3758742Y5132730D01*
X3756050Y5119166D01*
X3755186Y5105400D01*
X3756050Y5091633D01*
X3758742Y5078069D01*
X3763213Y5064963D01*
X3769309Y5052568D01*
X3774998Y5044033D01*
X3776624Y5040020D01*
X3776370Y5035651D01*
X3774287Y5031790D01*
X3770833Y5029200D01*
X3766565Y5028234D01*
X3701034Y5028234D01*
X3696766Y5029200D01*
X3693312Y5031790D01*
X3691229Y5035651D01*
X3690975Y5040020D01*
X3692601Y5044033D01*
X3698290Y5052568D01*
X3704386Y5064963D01*
X3708857Y5078069D01*
X3711549Y5091633D01*
X3712413Y5105400D01*
X3711549Y5119166D01*
X3708857Y5132730D01*
X3707993Y5135168D01*
X3707485Y5138420D01*
X3707688Y5521655D01*
X3708857Y5537403D01*
X3707942Y5551017D01*
X3705250Y5564327D01*
X3700779Y5577179D01*
X3694633Y5589320D01*
X3686911Y5600547D01*
X3677818Y5610606D01*
X3667404Y5619394D01*
X3655974Y5626709D01*
X3643629Y5632450D01*
X3630625Y5636463D01*
X3617214Y5638749D01*
X3603599Y5639206D01*
X3590086Y5637834D01*
X3576828Y5634685D01*
X3564128Y5629808D01*
X3552240Y5623255D01*
X3541268Y5615178D01*
X3531514Y5605729D01*
X3523081Y5595061D01*
X3516122Y5583377D01*
X3510838Y5570829D01*
X3507232Y5557723D01*
X3505403Y5544210D01*
X3505403Y5530646D01*
X3506368Y5522620D01*
X3506165Y5138521D01*
X3505606Y5135270D01*
X3504742Y5132730D01*
X3502050Y5119166D01*
X3501186Y5105400D01*
X3502050Y5091633D01*
X3504742Y5078069D01*
X3509213Y5064963D01*
X3515309Y5052568D01*
X3520998Y5044033D01*
X3522624Y5040020D01*
X3522370Y5035651D01*
X3520287Y5031790D01*
X3516833Y5029200D01*
X3512565Y5028234D01*
X3447034Y5028234D01*
X3442766Y5029200D01*
X3439312Y5031790D01*
X3437229Y5035651D01*
X3436975Y5040020D01*
X3438601Y5044033D01*
X3444290Y5052568D01*
X3450386Y5064963D01*
X3454857Y5078069D01*
X3457549Y5091633D01*
X3458413Y5105400D01*
X3457549Y5119166D01*
X3454857Y5132730D01*
X3453993Y5135168D01*
X3453485Y5138420D01*
X3453688Y5521655D01*
X3454857Y5537403D01*
X3453942Y5551017D01*
X3451250Y5564327D01*
X3446779Y5577179D01*
X3440633Y5589320D01*
X3432911Y5600547D01*
X3423818Y5610606D01*
X3413404Y5619394D01*
X3401974Y5626709D01*
X3389629Y5632450D01*
X3376625Y5636463D01*
X3363214Y5638749D01*
X3349599Y5639206D01*
X3336086Y5637834D01*
X3322828Y5634685D01*
X3310128Y5629808D01*
X3298240Y5623255D01*
X3287268Y5615178D01*
X3277514Y5605729D01*
X3269081Y5595061D01*
X3262122Y5583377D01*
X3256838Y5570829D01*
X3253232Y5557723D01*
X3251403Y5544210D01*
X3251403Y5530646D01*
X3252368Y5522620D01*
X3252165Y5138521D01*
X3251606Y5135270D01*
X3250742Y5132730D01*
X3248050Y5119166D01*
X3247186Y5105400D01*
X3248050Y5091633D01*
X3250742Y5078069D01*
X3255213Y5064963D01*
X3261309Y5052568D01*
X3266998Y5044033D01*
X3268624Y5040020D01*
X3268370Y5035651D01*
X3266287Y5031790D01*
X3262833Y5029200D01*
X3258565Y5028234D01*
X3193034Y5028234D01*
X3188766Y5029200D01*
X3185312Y5031790D01*
X3183229Y5035651D01*
X3182975Y5040020D01*
X3184601Y5044033D01*
X3190290Y5052568D01*
X3196386Y5064963D01*
X3200857Y5078069D01*
X3203549Y5091633D01*
X3204413Y5105400D01*
X3203549Y5119166D01*
X3200857Y5132730D01*
X3199993Y5135168D01*
X3199485Y5138420D01*
X3199688Y5521655D01*
X3200857Y5537403D01*
X3199942Y5551017D01*
X3197250Y5564327D01*
X3192780Y5577179D01*
X3186633Y5589320D01*
X3178911Y5600547D01*
X3169818Y5610606D01*
X3159404Y5619394D01*
X3147974Y5626709D01*
X3135630Y5632450D01*
X3122625Y5636463D01*
X3109214Y5638749D01*
X3095599Y5639206D01*
X3082086Y5637834D01*
X3068828Y5634685D01*
X3056128Y5629808D01*
X3044240Y5623255D01*
X3033268Y5615178D01*
X3023514Y5605729D01*
X3015081Y5595061D01*
X3008122Y5583377D01*
X3002838Y5570829D01*
X2999232Y5557723D01*
X2997403Y5544210D01*
X2997403Y5530646D01*
X2998368Y5522620D01*
X2998165Y5138521D01*
X2997606Y5135270D01*
X2996742Y5132730D01*
X2994050Y5119166D01*
X2993186Y5105400D01*
X2994050Y5091633D01*
X2996742Y5078069D01*
X3001213Y5064963D01*
X3007309Y5052568D01*
X3012998Y5044033D01*
X3014624Y5040020D01*
X3014370Y5035651D01*
X3012287Y5031790D01*
X3008833Y5029200D01*
X3004566Y5028234D01*
X2939034Y5028234D01*
X2934766Y5029200D01*
X2931312Y5031790D01*
X2929229Y5035651D01*
X2928975Y5040020D01*
X2930601Y5044033D01*
X2936290Y5052568D01*
X2942386Y5064963D01*
X2946857Y5078069D01*
X2949549Y5091633D01*
X2950413Y5105400D01*
X2949549Y5119166D01*
X2946857Y5132730D01*
X2945993Y5135168D01*
X2945485Y5138420D01*
X2945688Y5521655D01*
X2946857Y5537403D01*
X2945942Y5551017D01*
X2943250Y5564327D01*
X2938780Y5577179D01*
X2932633Y5589320D01*
X2924911Y5600547D01*
X2915818Y5610606D01*
X2905404Y5619394D01*
X2893974Y5626709D01*
X2881630Y5632450D01*
X2868625Y5636463D01*
X2855214Y5638749D01*
X2841599Y5639206D01*
X2828086Y5637834D01*
X2814828Y5634685D01*
X2802128Y5629808D01*
X2790240Y5623255D01*
X2779268Y5615178D01*
X2769514Y5605729D01*
X2761081Y5595061D01*
X2754122Y5583377D01*
X2748838Y5570829D01*
X2745232Y5557723D01*
X2743403Y5544210D01*
X2743403Y5530646D01*
X2744368Y5522620D01*
X2744165Y5138521D01*
X2743606Y5135270D01*
X2742742Y5132730D01*
X2740050Y5119166D01*
X2739186Y5105400D01*
X2740050Y5091633D01*
X2742742Y5078069D01*
X2747213Y5064963D01*
X2753309Y5052568D01*
X2758998Y5044033D01*
X2760624Y5040020D01*
X2760370Y5035651D01*
X2758287Y5031790D01*
X2754833Y5029200D01*
X2750566Y5028234D01*
X2685034Y5028234D01*
X2680766Y5029200D01*
X2677312Y5031790D01*
X2675229Y5035651D01*
X2674975Y5040020D01*
X2676601Y5044033D01*
X2682290Y5052568D01*
X2688386Y5064963D01*
X2692857Y5078069D01*
X2695549Y5091633D01*
X2696413Y5105400D01*
X2695549Y5119166D01*
X2692857Y5132730D01*
X2691993Y5135168D01*
X2691485Y5138420D01*
X2691688Y5521655D01*
X2692857Y5537403D01*
X2691942Y5551017D01*
X2689250Y5564327D01*
X2684780Y5577179D01*
X2678633Y5589320D01*
X2670911Y5600547D01*
X2661818Y5610606D01*
X2651404Y5619394D01*
X2639974Y5626709D01*
X2627630Y5632450D01*
X2614625Y5636463D01*
X2601214Y5638749D01*
X2587599Y5639206D01*
X2574086Y5637834D01*
X2560828Y5634685D01*
X2548128Y5629808D01*
X2536240Y5623255D01*
X2525268Y5615178D01*
X2515514Y5605729D01*
X2507081Y5595061D01*
X2500122Y5583377D01*
X2494838Y5570829D01*
X2491232Y5557723D01*
X2489403Y5544210D01*
X2489403Y5530646D01*
X2490368Y5522620D01*
X2490165Y5138521D01*
X2489606Y5135270D01*
X2488742Y5132730D01*
X2486050Y5119166D01*
X2485186Y5105400D01*
X2486050Y5091633D01*
X2488742Y5078069D01*
X2493213Y5064963D01*
X2499309Y5052568D01*
X2504998Y5044033D01*
X2506624Y5040020D01*
X2506370Y5035651D01*
X2504287Y5031790D01*
X2500833Y5029200D01*
X2496566Y5028234D01*
X2431034Y5028234D01*
X2426766Y5029200D01*
X2423312Y5031790D01*
X2421229Y5035651D01*
X2420975Y5040020D01*
X2422601Y5044033D01*
X2428290Y5052568D01*
X2434386Y5064963D01*
X2438857Y5078069D01*
X2441549Y5091633D01*
X2442413Y5105400D01*
X2441549Y5119166D01*
X2438857Y5132730D01*
X2437993Y5135168D01*
X2437485Y5138420D01*
X2437688Y5521655D01*
X2438857Y5537403D01*
X2437942Y5551017D01*
X2435250Y5564327D01*
X2430780Y5577179D01*
X2424633Y5589320D01*
X2416911Y5600547D01*
X2407818Y5610606D01*
X2397404Y5619394D01*
X2385974Y5626709D01*
X2373630Y5632450D01*
X2360625Y5636463D01*
X2347214Y5638749D01*
X2333599Y5639206D01*
X2320086Y5637834D01*
X2306828Y5634685D01*
X2294128Y5629808D01*
X2282240Y5623255D01*
X2271268Y5615178D01*
X2261514Y5605729D01*
X2253081Y5595061D01*
X2246122Y5583377D01*
X2240838Y5570829D01*
X2237232Y5557723D01*
X2235403Y5544210D01*
X2235403Y5530646D01*
X2236368Y5522620D01*
X2236165Y5138521D01*
X2235606Y5135270D01*
X2234742Y5132730D01*
X2232050Y5119166D01*
X2231186Y5105400D01*
X2232050Y5091633D01*
X2234742Y5078069D01*
X2239213Y5064963D01*
X2245309Y5052568D01*
X2250998Y5044033D01*
X2252624Y5040020D01*
X2252370Y5035651D01*
X2250287Y5031790D01*
X2246833Y5029200D01*
X2242566Y5028234D01*
X2177034Y5028234D01*
X2172766Y5029200D01*
X2169312Y5031790D01*
X2167229Y5035651D01*
X2166975Y5040020D01*
X2168601Y5044033D01*
X2174290Y5052568D01*
X2180386Y5064963D01*
X2184857Y5078069D01*
X2187549Y5091633D01*
X2188413Y5105400D01*
X2187549Y5119166D01*
X2184857Y5132730D01*
X2183993Y5135168D01*
X2183485Y5138420D01*
X2183688Y5521655D01*
X2184857Y5537403D01*
X2183942Y5551017D01*
X2181250Y5564327D01*
X2176780Y5577179D01*
X2170633Y5589320D01*
X2162911Y5600547D01*
X2153818Y5610606D01*
X2143404Y5619394D01*
X2131974Y5626709D01*
X2119630Y5632450D01*
X2106625Y5636463D01*
X2093214Y5638749D01*
X2079599Y5639206D01*
X2066086Y5637834D01*
X2052828Y5634685D01*
X2040128Y5629808D01*
X2028240Y5623255D01*
X2017268Y5615178D01*
X2007514Y5605729D01*
X1999081Y5595061D01*
X1992122Y5583377D01*
X1986838Y5570829D01*
X1983232Y5557723D01*
X1981403Y5544210D01*
X1981403Y5530646D01*
X1982368Y5522620D01*
X1982165Y5138521D01*
X1981606Y5135270D01*
X1980742Y5132730D01*
X1978050Y5119166D01*
X1977186Y5105400D01*
X1978050Y5091633D01*
X1980742Y5078069D01*
X1985213Y5064963D01*
X1991309Y5052568D01*
X1996998Y5044033D01*
X1998624Y5040020D01*
X1998370Y5035651D01*
X1996287Y5031790D01*
X1992833Y5029200D01*
X1988566Y5028234D01*
X1950923Y5028234D01*
X1947011Y5029047D01*
X1943709Y5031232D01*
X1932432Y5042509D01*
X1930247Y5045811D01*
X1929434Y5049723D01*
X1929434Y5072329D01*
X1929993Y5075580D01*
X1930857Y5078069D01*
X1933549Y5091633D01*
X1934413Y5105400D01*
X1933549Y5119166D01*
X1930857Y5132730D01*
X1929993Y5135168D01*
X1929485Y5138420D01*
X1929688Y5521655D01*
X1930857Y5537403D01*
X1929942Y5551017D01*
X1927250Y5564327D01*
X1922780Y5577179D01*
X1916633Y5589320D01*
X1908911Y5600547D01*
X1899818Y5610606D01*
X1889404Y5619394D01*
X1877974Y5626709D01*
X1865630Y5632450D01*
X1852625Y5636463D01*
X1839214Y5638749D01*
X1825599Y5639206D01*
X1812086Y5637834D01*
X1798828Y5634685D01*
X1786128Y5629808D01*
X1774240Y5623255D01*
X1763268Y5615178D01*
X1753514Y5605729D01*
X1745081Y5595061D01*
X1738122Y5583377D01*
X1732838Y5570829D01*
X1729232Y5557723D01*
X1727403Y5544210D01*
X1727403Y5530646D01*
X1728368Y5522620D01*
X1728165Y5138521D01*
X1727606Y5135270D01*
X1726742Y5132730D01*
X1724050Y5119166D01*
X1723186Y5105400D01*
X1724050Y5091633D01*
X1726742Y5078069D01*
X1727606Y5075580D01*
X1728165Y5072329D01*
X1728165Y5004155D01*
X1729028Y4990642D01*
X1731619Y4977536D01*
X1731568Y4973218D01*
X1729739Y4969357D01*
X1726488Y4966563D01*
X1722323Y4965395D01*
X1718106Y4966004D01*
X1714500Y4968341D01*
X1678432Y5004409D01*
X1676247Y5007711D01*
X1675434Y5011623D01*
X1675434Y5072329D01*
X1675993Y5075580D01*
X1676857Y5078069D01*
X1679549Y5091633D01*
X1680413Y5105400D01*
X1679549Y5119166D01*
X1676857Y5132730D01*
X1675993Y5135168D01*
X1675485Y5138420D01*
X1675688Y5521655D01*
X1676857Y5537403D01*
X1675942Y5551017D01*
X1673250Y5564327D01*
X1668780Y5577179D01*
X1662633Y5589320D01*
X1654911Y5600547D01*
X1645818Y5610606D01*
X1635404Y5619394D01*
X1623974Y5626709D01*
X1611630Y5632450D01*
X1598625Y5636463D01*
X1585214Y5638749D01*
X1571599Y5639206D01*
X1558086Y5637834D01*
X1544828Y5634685D01*
X1532128Y5629808D01*
X1520240Y5623255D01*
X1509268Y5615178D01*
X1499514Y5605729D01*
X1491081Y5595061D01*
X1484122Y5583377D01*
X1478838Y5570829D01*
X1475232Y5557723D01*
X1473403Y5544210D01*
X1473403Y5530646D01*
X1474368Y5522620D01*
X1474165Y5138521D01*
X1473606Y5135270D01*
X1472742Y5132730D01*
X1470050Y5119166D01*
X1469186Y5105400D01*
X1470050Y5091633D01*
X1472742Y5078069D01*
X1473606Y5075580D01*
X1474165Y5072329D01*
X1474165Y4966055D01*
X1475028Y4952542D01*
X1477619Y4939639D01*
X1481836Y4927193D01*
X1487627Y4915408D01*
X1494942Y4904435D01*
X1503883Y4894275D01*
X1795475Y4602683D01*
X1805635Y4593742D01*
X1816607Y4586427D01*
X1828393Y4580636D01*
X1840839Y4576419D01*
X1853742Y4573828D01*
X1867255Y4572965D01*
X5079492Y4572863D01*
G37*
G36*
X4415129Y3627729D02*
G01*
X4463491Y3627729D01*
X4460290Y3634232D01*
X4452620Y3645712D01*
X4443476Y3656076D01*
X4433112Y3665220D01*
X4421632Y3672890D01*
X4415129Y3676091D01*
G37*
G36*
X4274108Y3627729D02*
G01*
X4322470Y3627729D01*
X4322470Y3676091D01*
X4315968Y3672890D01*
X4304487Y3665220D01*
X4294124Y3656076D01*
X4284980Y3645712D01*
X4277309Y3634232D01*
G37*
G36*
X4133138Y2756662D02*
G01*
X4175963Y2756662D01*
X4175963Y2799435D01*
X4169460Y2796286D01*
X4158996Y2789224D01*
X4149598Y2780741D01*
X4141470Y2771089D01*
X4134764Y2760370D01*
G37*
G36*
X4253636Y2756662D02*
G01*
X4296511Y2756662D01*
X4291634Y2765806D01*
X4284218Y2776067D01*
X4275429Y2785160D01*
X4265472Y2792933D01*
X4254550Y2799232D01*
X4253636Y2799588D01*
G37*
G36*
X4322470Y3486708D02*
G01*
X4322470Y3535070D01*
X4274108Y3535070D01*
X4277309Y3528568D01*
X4284980Y3517087D01*
X4294124Y3506724D01*
X4304487Y3497579D01*
X4315968Y3489909D01*
G37*
G36*
X4415129Y3486708D02*
G01*
X4421632Y3489909D01*
X4433112Y3497579D01*
X4443476Y3506724D01*
X4452620Y3517087D01*
X4460290Y3528568D01*
X4463491Y3535070D01*
X4415129Y3535070D01*
G37*
G36*
X1324000Y3047593D02*
G01*
X1337513Y3048965D01*
X1350772Y3052114D01*
X1363472Y3056991D01*
X1375359Y3063544D01*
X1386332Y3071622D01*
X1396085Y3081070D01*
X1404518Y3091738D01*
X1411478Y3103422D01*
X1416761Y3115970D01*
X1420368Y3129076D01*
X1422196Y3142589D01*
X1422196Y3156153D01*
X1421231Y3164179D01*
X1421434Y3548278D01*
X1421993Y3551529D01*
X1422857Y3554069D01*
X1425549Y3567633D01*
X1426413Y3581400D01*
X1425549Y3595166D01*
X1422857Y3608730D01*
X1418386Y3621836D01*
X1412290Y3634232D01*
X1404620Y3645712D01*
X1395476Y3656076D01*
X1385112Y3665220D01*
X1373632Y3672890D01*
X1361236Y3678986D01*
X1348130Y3683457D01*
X1334566Y3686149D01*
X1320800Y3687013D01*
X1307033Y3686149D01*
X1293469Y3683457D01*
X1280363Y3678986D01*
X1267968Y3672890D01*
X1256487Y3665220D01*
X1246124Y3656076D01*
X1236980Y3645712D01*
X1229309Y3634232D01*
X1223213Y3621836D01*
X1218742Y3608730D01*
X1216050Y3595166D01*
X1215186Y3581400D01*
X1216050Y3567633D01*
X1218742Y3554069D01*
X1219606Y3551631D01*
X1220114Y3548379D01*
X1219911Y3165144D01*
X1218742Y3149346D01*
X1219657Y3135782D01*
X1222349Y3122472D01*
X1226820Y3109620D01*
X1232966Y3097479D01*
X1240688Y3086252D01*
X1249781Y3076194D01*
X1260195Y3067405D01*
X1271625Y3060090D01*
X1283970Y3054350D01*
X1296974Y3050336D01*
X1310386Y3048050D01*
G37*
G36*
X3102000Y3047593D02*
G01*
X3115513Y3048965D01*
X3128772Y3052114D01*
X3141472Y3056991D01*
X3153359Y3063544D01*
X3164332Y3071622D01*
X3174085Y3081070D01*
X3182518Y3091738D01*
X3189478Y3103422D01*
X3194761Y3115970D01*
X3198368Y3129076D01*
X3200196Y3142589D01*
X3200196Y3156153D01*
X3199231Y3164179D01*
X3199434Y3548278D01*
X3199993Y3551529D01*
X3200857Y3554069D01*
X3203549Y3567633D01*
X3204413Y3581400D01*
X3203549Y3595166D01*
X3200857Y3608730D01*
X3196386Y3621836D01*
X3190290Y3634232D01*
X3182620Y3645712D01*
X3173476Y3656076D01*
X3163112Y3665220D01*
X3151632Y3672890D01*
X3139236Y3678986D01*
X3126130Y3683457D01*
X3112566Y3686149D01*
X3098800Y3687013D01*
X3085033Y3686149D01*
X3071469Y3683457D01*
X3058363Y3678986D01*
X3045968Y3672890D01*
X3034487Y3665220D01*
X3024124Y3656076D01*
X3014980Y3645712D01*
X3007309Y3634232D01*
X3001213Y3621836D01*
X2996742Y3608730D01*
X2994050Y3595166D01*
X2993186Y3581400D01*
X2994050Y3567633D01*
X2996742Y3554069D01*
X2997606Y3551631D01*
X2998114Y3548379D01*
X2997911Y3165144D01*
X2996742Y3149346D01*
X2997657Y3135782D01*
X3000349Y3122472D01*
X3004820Y3109620D01*
X3010966Y3097479D01*
X3018688Y3086252D01*
X3027781Y3076194D01*
X3038195Y3067405D01*
X3049625Y3060090D01*
X3061970Y3054350D01*
X3074974Y3050336D01*
X3088386Y3048050D01*
G37*
G36*
X4118000Y3047593D02*
G01*
X4131513Y3048965D01*
X4144772Y3052114D01*
X4157472Y3056991D01*
X4169359Y3063544D01*
X4180332Y3071622D01*
X4190085Y3081070D01*
X4198518Y3091738D01*
X4205478Y3103422D01*
X4210761Y3115970D01*
X4214368Y3129076D01*
X4216196Y3142589D01*
X4216196Y3156153D01*
X4215231Y3164179D01*
X4215434Y3548278D01*
X4215993Y3551529D01*
X4216857Y3554069D01*
X4219549Y3567633D01*
X4220413Y3581400D01*
X4219549Y3595166D01*
X4216857Y3608730D01*
X4212386Y3621836D01*
X4206290Y3634232D01*
X4198620Y3645712D01*
X4189476Y3656076D01*
X4179112Y3665220D01*
X4167632Y3672890D01*
X4155236Y3678986D01*
X4142130Y3683457D01*
X4128566Y3686149D01*
X4114800Y3687013D01*
X4101033Y3686149D01*
X4087469Y3683457D01*
X4074363Y3678986D01*
X4061968Y3672890D01*
X4050487Y3665220D01*
X4040124Y3656076D01*
X4030979Y3645712D01*
X4023309Y3634232D01*
X4017213Y3621836D01*
X4012742Y3608730D01*
X4010050Y3595166D01*
X4009186Y3581400D01*
X4010050Y3567633D01*
X4012742Y3554069D01*
X4013606Y3551631D01*
X4014114Y3548379D01*
X4013911Y3165144D01*
X4012742Y3149346D01*
X4013657Y3135782D01*
X4016349Y3122472D01*
X4020820Y3109620D01*
X4026966Y3097479D01*
X4034688Y3086252D01*
X4043781Y3076194D01*
X4054195Y3067405D01*
X4065625Y3060090D01*
X4077970Y3054350D01*
X4090974Y3050336D01*
X4104386Y3048050D01*
G37*
G36*
X1832000Y3047593D02*
G01*
X1845513Y3048965D01*
X1858772Y3052114D01*
X1871472Y3056991D01*
X1883359Y3063544D01*
X1894332Y3071622D01*
X1904085Y3081070D01*
X1912518Y3091738D01*
X1919478Y3103422D01*
X1924761Y3115970D01*
X1928368Y3129076D01*
X1930196Y3142589D01*
X1930196Y3156153D01*
X1929231Y3164179D01*
X1929434Y3548278D01*
X1929993Y3551529D01*
X1930857Y3554069D01*
X1933549Y3567633D01*
X1934413Y3581400D01*
X1933549Y3595166D01*
X1930857Y3608730D01*
X1926386Y3621836D01*
X1920290Y3634232D01*
X1912620Y3645712D01*
X1903475Y3656076D01*
X1893112Y3665220D01*
X1881632Y3672890D01*
X1869236Y3678986D01*
X1856130Y3683457D01*
X1842566Y3686149D01*
X1828800Y3687013D01*
X1815033Y3686149D01*
X1801469Y3683457D01*
X1788363Y3678986D01*
X1775968Y3672890D01*
X1764487Y3665220D01*
X1754124Y3656076D01*
X1744980Y3645712D01*
X1737309Y3634232D01*
X1731213Y3621836D01*
X1726742Y3608730D01*
X1724050Y3595166D01*
X1723186Y3581400D01*
X1724050Y3567633D01*
X1726742Y3554069D01*
X1727606Y3551631D01*
X1728114Y3548379D01*
X1727911Y3165144D01*
X1726742Y3149346D01*
X1727657Y3135782D01*
X1730349Y3122472D01*
X1734820Y3109620D01*
X1740966Y3097479D01*
X1748688Y3086252D01*
X1757781Y3076194D01*
X1768195Y3067405D01*
X1779625Y3060090D01*
X1791970Y3054350D01*
X1804974Y3050336D01*
X1818386Y3048050D01*
G37*
G36*
X3356000Y3047593D02*
G01*
X3369513Y3048965D01*
X3382772Y3052114D01*
X3395472Y3056991D01*
X3407359Y3063544D01*
X3418332Y3071622D01*
X3428085Y3081070D01*
X3436518Y3091738D01*
X3443478Y3103422D01*
X3448761Y3115970D01*
X3452368Y3129076D01*
X3454196Y3142589D01*
X3454196Y3156153D01*
X3453231Y3164179D01*
X3453434Y3548278D01*
X3453993Y3551529D01*
X3454857Y3554069D01*
X3457549Y3567633D01*
X3458413Y3581400D01*
X3457549Y3595166D01*
X3454857Y3608730D01*
X3450386Y3621836D01*
X3444290Y3634232D01*
X3436620Y3645712D01*
X3427476Y3656076D01*
X3417112Y3665220D01*
X3405632Y3672890D01*
X3393236Y3678986D01*
X3380130Y3683457D01*
X3366566Y3686149D01*
X3352800Y3687013D01*
X3339033Y3686149D01*
X3325469Y3683457D01*
X3312363Y3678986D01*
X3299968Y3672890D01*
X3288487Y3665220D01*
X3278124Y3656076D01*
X3268979Y3645712D01*
X3261309Y3634232D01*
X3255213Y3621836D01*
X3250742Y3608730D01*
X3248050Y3595166D01*
X3247186Y3581400D01*
X3248050Y3567633D01*
X3250742Y3554069D01*
X3251606Y3551631D01*
X3252114Y3548379D01*
X3251911Y3165144D01*
X3250742Y3149346D01*
X3251657Y3135782D01*
X3254349Y3122472D01*
X3258820Y3109620D01*
X3264966Y3097479D01*
X3272688Y3086252D01*
X3281781Y3076194D01*
X3292195Y3067405D01*
X3303625Y3060090D01*
X3315970Y3054350D01*
X3328974Y3050336D01*
X3342386Y3048050D01*
G37*
G36*
X3610000Y3047593D02*
G01*
X3623513Y3048965D01*
X3636772Y3052114D01*
X3649472Y3056991D01*
X3661359Y3063544D01*
X3672332Y3071622D01*
X3682085Y3081070D01*
X3690518Y3091738D01*
X3697478Y3103422D01*
X3702761Y3115970D01*
X3706368Y3129076D01*
X3708196Y3142589D01*
X3708196Y3156153D01*
X3707231Y3164179D01*
X3707434Y3548278D01*
X3707993Y3551529D01*
X3708857Y3554069D01*
X3711549Y3567633D01*
X3712413Y3581400D01*
X3711549Y3595166D01*
X3708857Y3608730D01*
X3704386Y3621836D01*
X3698290Y3634232D01*
X3690620Y3645712D01*
X3681476Y3656076D01*
X3671112Y3665220D01*
X3659632Y3672890D01*
X3647236Y3678986D01*
X3634130Y3683457D01*
X3620566Y3686149D01*
X3606800Y3687013D01*
X3593033Y3686149D01*
X3579469Y3683457D01*
X3566363Y3678986D01*
X3553968Y3672890D01*
X3542487Y3665220D01*
X3532124Y3656076D01*
X3522979Y3645712D01*
X3515309Y3634232D01*
X3509213Y3621836D01*
X3504742Y3608730D01*
X3502050Y3595166D01*
X3501186Y3581400D01*
X3502050Y3567633D01*
X3504742Y3554069D01*
X3505606Y3551631D01*
X3506114Y3548379D01*
X3505911Y3165144D01*
X3504742Y3149346D01*
X3505657Y3135782D01*
X3508349Y3122472D01*
X3512820Y3109620D01*
X3518966Y3097479D01*
X3526688Y3086252D01*
X3535781Y3076194D01*
X3546195Y3067405D01*
X3557625Y3060090D01*
X3569970Y3054350D01*
X3582974Y3050336D01*
X3596386Y3048050D01*
G37*
G36*
X1578000Y3047593D02*
G01*
X1591513Y3048965D01*
X1604772Y3052114D01*
X1617472Y3056991D01*
X1629359Y3063544D01*
X1640332Y3071622D01*
X1650085Y3081070D01*
X1658518Y3091738D01*
X1665478Y3103422D01*
X1670761Y3115970D01*
X1674368Y3129076D01*
X1676196Y3142589D01*
X1676196Y3156153D01*
X1675231Y3164179D01*
X1675434Y3548278D01*
X1675993Y3551529D01*
X1676857Y3554069D01*
X1679549Y3567633D01*
X1680413Y3581400D01*
X1679549Y3595166D01*
X1676857Y3608730D01*
X1672386Y3621836D01*
X1666290Y3634232D01*
X1658620Y3645712D01*
X1649475Y3656076D01*
X1639112Y3665220D01*
X1627632Y3672890D01*
X1615236Y3678986D01*
X1602130Y3683457D01*
X1588566Y3686149D01*
X1574800Y3687013D01*
X1561033Y3686149D01*
X1547469Y3683457D01*
X1534363Y3678986D01*
X1521968Y3672890D01*
X1510487Y3665220D01*
X1500124Y3656076D01*
X1490980Y3645712D01*
X1483309Y3634232D01*
X1477213Y3621836D01*
X1472742Y3608730D01*
X1470050Y3595166D01*
X1469186Y3581400D01*
X1470050Y3567633D01*
X1472742Y3554069D01*
X1473606Y3551631D01*
X1474114Y3548379D01*
X1473911Y3165144D01*
X1472742Y3149346D01*
X1473657Y3135782D01*
X1476349Y3122472D01*
X1480820Y3109620D01*
X1486966Y3097479D01*
X1494688Y3086252D01*
X1503781Y3076194D01*
X1514195Y3067405D01*
X1525625Y3060090D01*
X1537970Y3054350D01*
X1550974Y3050336D01*
X1564386Y3048050D01*
G37*
G36*
X2340000Y3047593D02*
G01*
X2353513Y3048965D01*
X2366772Y3052114D01*
X2379472Y3056991D01*
X2391359Y3063544D01*
X2402332Y3071622D01*
X2412085Y3081070D01*
X2420518Y3091738D01*
X2427478Y3103422D01*
X2432761Y3115970D01*
X2436368Y3129076D01*
X2438196Y3142589D01*
X2438196Y3156153D01*
X2437231Y3164179D01*
X2437434Y3548278D01*
X2437993Y3551529D01*
X2438857Y3554069D01*
X2441549Y3567633D01*
X2442413Y3581400D01*
X2441549Y3595166D01*
X2438857Y3608730D01*
X2434386Y3621836D01*
X2428290Y3634232D01*
X2420620Y3645712D01*
X2411476Y3656076D01*
X2401112Y3665220D01*
X2389632Y3672890D01*
X2377236Y3678986D01*
X2364130Y3683457D01*
X2350566Y3686149D01*
X2336800Y3687013D01*
X2323033Y3686149D01*
X2309469Y3683457D01*
X2296363Y3678986D01*
X2283968Y3672890D01*
X2272487Y3665220D01*
X2262124Y3656076D01*
X2252980Y3645712D01*
X2245309Y3634232D01*
X2239213Y3621836D01*
X2234742Y3608730D01*
X2232050Y3595166D01*
X2231186Y3581400D01*
X2232050Y3567633D01*
X2234742Y3554069D01*
X2235606Y3551631D01*
X2236114Y3548379D01*
X2235911Y3165144D01*
X2234742Y3149346D01*
X2235657Y3135782D01*
X2238349Y3122472D01*
X2242820Y3109620D01*
X2248966Y3097479D01*
X2256688Y3086252D01*
X2265781Y3076194D01*
X2276195Y3067405D01*
X2287625Y3060090D01*
X2299970Y3054350D01*
X2312974Y3050336D01*
X2326386Y3048050D01*
G37*
G36*
X2848000Y3047593D02*
G01*
X2861513Y3048965D01*
X2874772Y3052114D01*
X2887472Y3056991D01*
X2899359Y3063544D01*
X2910332Y3071622D01*
X2920085Y3081070D01*
X2928518Y3091738D01*
X2935478Y3103422D01*
X2940761Y3115970D01*
X2944368Y3129076D01*
X2946196Y3142589D01*
X2946196Y3156153D01*
X2945231Y3164179D01*
X2945434Y3548278D01*
X2945993Y3551529D01*
X2946857Y3554069D01*
X2949549Y3567633D01*
X2950413Y3581400D01*
X2949549Y3595166D01*
X2946857Y3608730D01*
X2942386Y3621836D01*
X2936290Y3634232D01*
X2928620Y3645712D01*
X2919476Y3656076D01*
X2909112Y3665220D01*
X2897632Y3672890D01*
X2885236Y3678986D01*
X2872130Y3683457D01*
X2858566Y3686149D01*
X2844800Y3687013D01*
X2831033Y3686149D01*
X2817469Y3683457D01*
X2804363Y3678986D01*
X2791968Y3672890D01*
X2780487Y3665220D01*
X2770124Y3656076D01*
X2760980Y3645712D01*
X2753309Y3634232D01*
X2747213Y3621836D01*
X2742742Y3608730D01*
X2740050Y3595166D01*
X2739186Y3581400D01*
X2740050Y3567633D01*
X2742742Y3554069D01*
X2743606Y3551631D01*
X2744114Y3548379D01*
X2743911Y3165144D01*
X2742742Y3149346D01*
X2743657Y3135782D01*
X2746349Y3122472D01*
X2750820Y3109620D01*
X2756966Y3097479D01*
X2764688Y3086252D01*
X2773781Y3076194D01*
X2784195Y3067405D01*
X2795625Y3060090D01*
X2807970Y3054350D01*
X2820974Y3050336D01*
X2834386Y3048050D01*
G37*
G36*
X2594000Y3047593D02*
G01*
X2607513Y3048965D01*
X2620772Y3052114D01*
X2633472Y3056991D01*
X2645359Y3063544D01*
X2656332Y3071622D01*
X2666085Y3081070D01*
X2674518Y3091738D01*
X2681478Y3103422D01*
X2686761Y3115970D01*
X2690368Y3129076D01*
X2692196Y3142589D01*
X2692196Y3156153D01*
X2691231Y3164179D01*
X2691434Y3548278D01*
X2691993Y3551529D01*
X2692857Y3554069D01*
X2695549Y3567633D01*
X2696413Y3581400D01*
X2695549Y3595166D01*
X2692857Y3608730D01*
X2688386Y3621836D01*
X2682290Y3634232D01*
X2674620Y3645712D01*
X2665476Y3656076D01*
X2655112Y3665220D01*
X2643632Y3672890D01*
X2631236Y3678986D01*
X2618130Y3683457D01*
X2604566Y3686149D01*
X2590800Y3687013D01*
X2577033Y3686149D01*
X2563469Y3683457D01*
X2550363Y3678986D01*
X2537968Y3672890D01*
X2526487Y3665220D01*
X2516124Y3656076D01*
X2506980Y3645712D01*
X2499309Y3634232D01*
X2493213Y3621836D01*
X2488742Y3608730D01*
X2486050Y3595166D01*
X2485186Y3581400D01*
X2486050Y3567633D01*
X2488742Y3554069D01*
X2489606Y3551631D01*
X2490114Y3548379D01*
X2489911Y3165144D01*
X2488742Y3149346D01*
X2489657Y3135782D01*
X2492349Y3122472D01*
X2496820Y3109620D01*
X2502966Y3097479D01*
X2510688Y3086252D01*
X2519781Y3076194D01*
X2530195Y3067405D01*
X2541625Y3060090D01*
X2553970Y3054350D01*
X2566974Y3050336D01*
X2580386Y3048050D01*
G37*
G36*
X2086000Y3047593D02*
G01*
X2099513Y3048965D01*
X2112772Y3052114D01*
X2125472Y3056991D01*
X2137359Y3063544D01*
X2148332Y3071622D01*
X2158085Y3081070D01*
X2166518Y3091738D01*
X2173478Y3103422D01*
X2178761Y3115970D01*
X2182368Y3129076D01*
X2184196Y3142589D01*
X2184196Y3156153D01*
X2183231Y3164179D01*
X2183434Y3548278D01*
X2183993Y3551529D01*
X2184857Y3554069D01*
X2187549Y3567633D01*
X2188413Y3581400D01*
X2187549Y3595166D01*
X2184857Y3608730D01*
X2180386Y3621836D01*
X2174290Y3634232D01*
X2166620Y3645712D01*
X2157476Y3656076D01*
X2147112Y3665220D01*
X2135632Y3672890D01*
X2123236Y3678986D01*
X2110130Y3683457D01*
X2096566Y3686149D01*
X2082800Y3687013D01*
X2069033Y3686149D01*
X2055469Y3683457D01*
X2042363Y3678986D01*
X2029968Y3672890D01*
X2018487Y3665220D01*
X2008124Y3656076D01*
X1998980Y3645712D01*
X1991309Y3634232D01*
X1985213Y3621836D01*
X1980742Y3608730D01*
X1978050Y3595166D01*
X1977186Y3581400D01*
X1978050Y3567633D01*
X1980742Y3554069D01*
X1981606Y3551631D01*
X1982114Y3548379D01*
X1981911Y3165144D01*
X1980742Y3149346D01*
X1981657Y3135782D01*
X1984349Y3122472D01*
X1988820Y3109620D01*
X1994966Y3097479D01*
X2002688Y3086252D01*
X2011781Y3076194D01*
X2022195Y3067405D01*
X2033625Y3060090D01*
X2045970Y3054350D01*
X2058974Y3050336D01*
X2072386Y3048050D01*
G37*
G36*
X3651250Y2512110D02*
G01*
X3651250Y2559050D01*
X3604310Y2559050D01*
X3606393Y2554579D01*
X3613708Y2543098D01*
X3622497Y2532684D01*
X3632606Y2523591D01*
X3643782Y2515870D01*
G37*
G36*
X5137150Y3448050D02*
G01*
X5194554Y3448050D01*
X5194554Y3479241D01*
X5193842Y3485489D01*
X5191963Y3490925D01*
X5188915Y3495751D01*
X5184851Y3499815D01*
X5180025Y3502863D01*
X5174589Y3504742D01*
X5168341Y3505454D01*
X5137150Y3505454D01*
G37*
G36*
X4413046Y3057855D02*
G01*
X4423359Y3063544D01*
X4434332Y3071622D01*
X4444085Y3081070D01*
X4452518Y3091738D01*
X4459478Y3103422D01*
X4460087Y3104896D01*
X4413046Y3104896D01*
G37*
G36*
X4324146Y3058007D02*
G01*
X4324146Y3104896D01*
X4277207Y3104896D01*
X4280966Y3097479D01*
X4288688Y3086252D01*
X4297781Y3076194D01*
X4308195Y3067405D01*
X4319625Y3060090D01*
G37*
G36*
X4277207Y3193796D02*
G01*
X4324146Y3193796D01*
X4324146Y3240735D01*
X4319625Y3238652D01*
X4308195Y3231337D01*
X4297781Y3222548D01*
X4288688Y3212490D01*
X4280966Y3201263D01*
G37*
G36*
X4413046Y3193796D02*
G01*
X4460087Y3193796D01*
X4459478Y3195320D01*
X4452518Y3207004D01*
X4444085Y3217672D01*
X4434332Y3227120D01*
X4423359Y3235198D01*
X4413046Y3240887D01*
G37*
G36*
X5017058Y3301746D02*
G01*
X5048250Y3301746D01*
X5048250Y3359150D01*
X4990846Y3359150D01*
X4990846Y3327958D01*
X4991557Y3321710D01*
X4993436Y3316274D01*
X4996484Y3311448D01*
X5000548Y3307384D01*
X5005374Y3304336D01*
X5010810Y3302457D01*
G37*
G36*
X5137150Y3301746D02*
G01*
X5168341Y3301746D01*
X5174589Y3302457D01*
X5180025Y3304336D01*
X5184851Y3307384D01*
X5188915Y3311448D01*
X5191963Y3316274D01*
X5193842Y3321710D01*
X5194554Y3327958D01*
X5194554Y3359150D01*
X5137150Y3359150D01*
G37*
G36*
X4990846Y3448050D02*
G01*
X5048250Y3448050D01*
X5048250Y3505454D01*
X5017058Y3505454D01*
X5010810Y3504742D01*
X5005374Y3502863D01*
X5000548Y3499815D01*
X4996484Y3495751D01*
X4993436Y3490925D01*
X4991557Y3485489D01*
X4990846Y3479241D01*
G37*

%LPD*%
D11*
X5092700Y3657600D02*
G01*
X5016500Y3657600D01*
X4864100Y3810000D01*
X3975100Y3810000D01*
X3860800Y3695700D01*
X3860800Y3581400D01*
X1320800Y5105400D02*
G01*
X1320800Y4889500D01*
X1790700Y4419600D01*
X5092700Y4419600D01*
X1066800Y5105400D02*
G01*
X1066800Y4826000D01*
X1663700Y4229100D01*
X5029200Y4229100D01*
X5092700Y4165600D01*
X1066800Y3581400D02*
G01*
X1066800Y3746500D01*
X1346200Y4025900D01*
X4978400Y4025900D01*
X5092700Y3911600D01*
X5092700Y4927600D02*
G01*
X1905000Y4927600D01*
X1828800Y5003800D01*
X1828800Y5105400D01*
X1574800Y5105400D02*
G01*
X1574800Y4965700D01*
X1866900Y4673600D01*
X5092700Y4673600D01*
X3695700Y2857500D02*
G01*
X3875100Y2857500D01*
X4014800Y2717800D01*
X3860571Y3149371D02*
G01*
X3860571Y3009671D01*
X3708400Y2857500D01*
X3695700Y2857500D01*
X3403600Y2603500D02*
G01*
X3111500Y2603500D01*
X3695700Y2603500D02*
G01*
X3403600Y2603500D01*
X3403600Y2857500D02*
G01*
X3695700Y2857500D01*
X3111500Y2857500D02*
G01*
X3403600Y2857500D01*
X4622545Y3149345D02*
G01*
X4622800Y3581400D01*
X4368800Y3581400D02*
G01*
X4368545Y3149345D01*
X4114545Y3149345D02*
G01*
X4114800Y3581400D01*
X3860800Y3581400D02*
G01*
X3860545Y3149345D01*
X3606545Y3149345D02*
G01*
X3606800Y3581400D01*
X3352800Y3581400D02*
G01*
X3352545Y3149345D01*
X3098545Y3149345D02*
G01*
X3098800Y3581400D01*
X2844800Y3581400D02*
G01*
X2844545Y3149345D01*
X2590800Y3581400D02*
G01*
X2590545Y3149345D01*
X2336800Y3581400D02*
G01*
X2336545Y3149345D01*
X2082800Y3581400D02*
G01*
X2082545Y3149345D01*
X1828800Y3581400D02*
G01*
X1828545Y3149345D01*
X1574800Y3581400D02*
G01*
X1574545Y3149345D01*
X1320800Y3581400D02*
G01*
X1320545Y3149345D01*
X1066800Y3581400D02*
G01*
X1066545Y3149345D01*
X4623054Y5537454D02*
G01*
X4622800Y5105400D01*
X4369054Y5537454D02*
G01*
X4368800Y5105400D01*
X4115054Y5537454D02*
G01*
X4114800Y5105400D01*
X3861054Y5537454D02*
G01*
X3860800Y5105400D01*
X3607054Y5537454D02*
G01*
X3606800Y5105400D01*
X3353054Y5537454D02*
G01*
X3352800Y5105400D01*
X3099054Y5537454D02*
G01*
X3098800Y5105400D01*
X2845054Y5537454D02*
G01*
X2844800Y5105400D01*
X2591054Y5537454D02*
G01*
X2590800Y5105400D01*
X2337054Y5537454D02*
G01*
X2336800Y5105400D01*
X2083054Y5537454D02*
G01*
X2082800Y5105400D01*
X1829054Y5537454D02*
G01*
X1828800Y5105400D01*
X1575054Y5537454D02*
G01*
X1574800Y5105400D01*
X1321054Y5537454D02*
G01*
X1320800Y5105400D01*
X1067054Y5537454D02*
G01*
X1066800Y5105400D01*
D12*
G01*
X5092700Y3403600D03*
D13*
G01*
X5092700Y3657600D03*
G01*
X5092700Y3911600D03*
G01*
X5092700Y4165600D03*
G01*
X5092700Y4419600D03*
G01*
X5092700Y4673600D03*
G01*
X5092700Y4927600D03*
D14*
G01*
X4014800Y2717800D03*
G01*
X4214799Y2717800D03*
D12*
G01*
X3111500Y2857500D03*
D13*
G01*
X3111500Y2603500D03*
D12*
G01*
X3695700Y2857500D03*
D13*
G01*
X3695700Y2603500D03*
D12*
G01*
X3403600Y2857500D03*
D13*
G01*
X3403600Y2603500D03*
D15*
G01*
X4622800Y3581400D03*
D16*
G01*
X4368800Y3581400D03*
G01*
X4114800Y3581400D03*
G01*
X3860800Y3581400D03*
G01*
X3606800Y3581400D03*
G01*
X3352800Y3581400D03*
G01*
X3098800Y3581400D03*
G01*
X2844800Y3581400D03*
G01*
X2590800Y3581400D03*
G01*
X2336800Y3581400D03*
G01*
X2082800Y3581400D03*
G01*
X1828800Y3581400D03*
G01*
X1574800Y3581400D03*
G01*
X1320800Y3581400D03*
G01*
X1066800Y3581400D03*
G01*
X1066800Y5105400D03*
G01*
X1320800Y5105400D03*
G01*
X1574800Y5105400D03*
G01*
X1828800Y5105400D03*
G01*
X2082800Y5105400D03*
G01*
X2336800Y5105400D03*
G01*
X2590800Y5105400D03*
G01*
X2844800Y5105400D03*
G01*
X3098800Y5105400D03*
G01*
X3352800Y5105400D03*
G01*
X3606800Y5105400D03*
G01*
X3860800Y5105400D03*
G01*
X4114800Y5105400D03*
G01*
X4368800Y5105400D03*
G01*
X4622800Y5105400D03*
D13*
G01*
X1067028Y5537428D03*
G01*
X1321028Y5537428D03*
G01*
X1575028Y5537428D03*
G01*
X1829028Y5537428D03*
G01*
X2083028Y5537428D03*
G01*
X2337028Y5537428D03*
G01*
X2591028Y5537428D03*
G01*
X2845028Y5537428D03*
G01*
X3099028Y5537428D03*
G01*
X3353028Y5537428D03*
G01*
X3607028Y5537428D03*
G01*
X3861028Y5537428D03*
G01*
X4115028Y5537428D03*
G01*
X4369028Y5537428D03*
G01*
X4623028Y5537428D03*
G01*
X4622571Y3149371D03*
G01*
X4368571Y3149371D03*
G01*
X4114571Y3149371D03*
G01*
X3860571Y3149371D03*
G01*
X3606571Y3149371D03*
G01*
X3352571Y3149371D03*
G01*
X3098571Y3149371D03*
G01*
X2844571Y3149371D03*
G01*
X2590571Y3149371D03*
G01*
X2336571Y3149371D03*
G01*
X2082571Y3149371D03*
G01*
X1828571Y3149371D03*
G01*
X1574571Y3149371D03*
G01*
X1320571Y3149371D03*
G01*
X1066571Y3149371D03*
M02*
