G04 Layer: BottomSolderMaskLayer*
G04 EasyEDA v6.4.19.4, 2021-04-27T12:02:32+05:30*
G04 545d4b8ce55c4096bfffc31d6a5384ca,10*
G04 Gerber Generator version 0.2*
G04 Scale: 100 percent, Rotated: No, Reflected: No *
G04 Dimensions in millimeters *
G04 leading zeros omitted , absolute positions ,4 integer and 5 decimal *
%FSLAX45Y45*%
%MOMM*%

%ADD19R,1.7272X1.7272*%
%ADD20C,1.7272*%
%ADD21C,1.4016*%
%ADD23C,1.8032*%

%LPD*%
D19*
G01*
X5092700Y3403600D03*
D20*
G01*
X5092700Y3657600D03*
G01*
X5092700Y3911600D03*
G01*
X5092700Y4165600D03*
G01*
X5092700Y4419600D03*
G01*
X5092700Y4673600D03*
G01*
X5092700Y4927600D03*
D21*
G01*
X4014800Y2717800D03*
G01*
X4214799Y2717800D03*
G36*
X3025140Y2771139D02*
G01*
X3025140Y2943860D01*
X3197859Y2943860D01*
X3197859Y2771139D01*
G37*
D20*
G01*
X3111500Y2603500D03*
G36*
X3609340Y2771139D02*
G01*
X3609340Y2943860D01*
X3782059Y2943860D01*
X3782059Y2771139D01*
G37*
G01*
X3695700Y2603500D03*
G36*
X3317240Y2771139D02*
G01*
X3317240Y2943860D01*
X3489959Y2943860D01*
X3489959Y2771139D01*
G37*
G01*
X3403600Y2603500D03*
G36*
X4532629Y3491229D02*
G01*
X4532629Y3671570D01*
X4712970Y3671570D01*
X4712970Y3491229D01*
G37*
D23*
G01*
X4368800Y3581400D03*
G01*
X4114800Y3581400D03*
G01*
X3860800Y3581400D03*
G01*
X3606800Y3581400D03*
G01*
X3352800Y3581400D03*
G01*
X3098800Y3581400D03*
G01*
X2844800Y3581400D03*
G01*
X2590800Y3581400D03*
G01*
X2336800Y3581400D03*
G01*
X2082800Y3581400D03*
G01*
X1828800Y3581400D03*
G01*
X1574800Y3581400D03*
G01*
X1320800Y3581400D03*
G01*
X1066800Y3581400D03*
G01*
X1066800Y5105400D03*
G01*
X1320800Y5105400D03*
G01*
X1574800Y5105400D03*
G01*
X1828800Y5105400D03*
G01*
X2082800Y5105400D03*
G01*
X2336800Y5105400D03*
G01*
X2590800Y5105400D03*
G01*
X2844800Y5105400D03*
G01*
X3098800Y5105400D03*
G01*
X3352800Y5105400D03*
G01*
X3606800Y5105400D03*
G01*
X3860800Y5105400D03*
G01*
X4114800Y5105400D03*
G01*
X4368800Y5105400D03*
G01*
X4622800Y5105400D03*
D20*
G01*
X1067028Y5537428D03*
G01*
X1321028Y5537428D03*
G01*
X1575028Y5537428D03*
G01*
X1829028Y5537428D03*
G01*
X2083028Y5537428D03*
G01*
X2337028Y5537428D03*
G01*
X2591028Y5537428D03*
G01*
X2845028Y5537428D03*
G01*
X3099028Y5537428D03*
G01*
X3353028Y5537428D03*
G01*
X3607028Y5537428D03*
G01*
X3861028Y5537428D03*
G01*
X4115028Y5537428D03*
G01*
X4369028Y5537428D03*
G01*
X4623028Y5537428D03*
G01*
X4622571Y3149371D03*
G01*
X4368571Y3149371D03*
G01*
X4114571Y3149371D03*
G01*
X3860571Y3149371D03*
G01*
X3606571Y3149371D03*
G01*
X3352571Y3149371D03*
G01*
X3098571Y3149371D03*
G01*
X2844571Y3149371D03*
G01*
X2590571Y3149371D03*
G01*
X2336571Y3149371D03*
G01*
X2082571Y3149371D03*
G01*
X1828571Y3149371D03*
G01*
X1574571Y3149371D03*
G01*
X1320571Y3149371D03*
G01*
X1066571Y3149371D03*
M02*
