G04 Layer: TopSilkLayer*
G04 EasyEDA v6.4.19.4, 2021-04-27T12:02:32+05:30*
G04 545d4b8ce55c4096bfffc31d6a5384ca,10*
G04 Gerber Generator version 0.2*
G04 Scale: 100 percent, Rotated: No, Reflected: No *
G04 Dimensions in millimeters *
G04 leading zeros omitted , absolute positions ,4 integer and 5 decimal *
%FSLAX45Y45*%
%MOMM*%

%ADD10C,0.2540*%
%ADD17C,0.3000*%
%ADD18C,0.1524*%

%LPD*%
D18*
X4824984Y4165600D02*
G01*
X4933950Y4165600D01*
X4824984Y4165600D02*
G01*
X4933950Y4238244D01*
X4824984Y4238244D02*
G01*
X4933950Y4238244D01*
X4824984Y4272534D02*
G01*
X4933950Y4272534D01*
X4824984Y4272534D02*
G01*
X4824984Y4319270D01*
X4830063Y4335018D01*
X4835397Y4340097D01*
X4845811Y4345431D01*
X4856225Y4345431D01*
X4866640Y4340097D01*
X4871720Y4335018D01*
X4876800Y4319270D01*
X4876800Y4272534D01*
X4876800Y4309110D02*
G01*
X4933950Y4345431D01*
X4824984Y4379721D02*
G01*
X4933950Y4379721D01*
X4824984Y4379721D02*
G01*
X4824984Y4447286D01*
X4876800Y4379721D02*
G01*
X4876800Y4421123D01*
X4850891Y4486655D02*
G01*
X4845811Y4486655D01*
X4835397Y4491989D01*
X4830063Y4497070D01*
X4824984Y4507484D01*
X4824984Y4528312D01*
X4830063Y4538726D01*
X4835397Y4543805D01*
X4845811Y4549139D01*
X4856225Y4549139D01*
X4866640Y4543805D01*
X4882134Y4533392D01*
X4933950Y4481576D01*
X4933950Y4554220D01*
X4824984Y4640579D02*
G01*
X4897627Y4588510D01*
X4897627Y4666487D01*
X4824984Y4640579D02*
G01*
X4933950Y4640579D01*
X4824984Y4700778D02*
G01*
X4933950Y4700778D01*
X4933950Y4700778D02*
G01*
X4933950Y4763007D01*
X4824984Y4828539D02*
G01*
X4830063Y4813045D01*
X4845811Y4802631D01*
X4871720Y4797297D01*
X4887213Y4797297D01*
X4913375Y4802631D01*
X4928870Y4813045D01*
X4933950Y4828539D01*
X4933950Y4838954D01*
X4928870Y4854447D01*
X4913375Y4864862D01*
X4887213Y4870195D01*
X4871720Y4870195D01*
X4845811Y4864862D01*
X4830063Y4854447D01*
X4824984Y4838954D01*
X4824984Y4828539D01*
X4845811Y4904486D02*
G01*
X4840477Y4914900D01*
X4824984Y4930394D01*
X4933950Y4930394D01*
X4170578Y3086607D02*
G01*
X4165244Y3097021D01*
X4154830Y3107436D01*
X4144670Y3112515D01*
X4123842Y3112515D01*
X4113428Y3107436D01*
X4103014Y3097021D01*
X4097680Y3086607D01*
X4092600Y3070860D01*
X4092600Y3044952D01*
X4097680Y3029457D01*
X4103014Y3019044D01*
X4113428Y3008629D01*
X4123842Y3003550D01*
X4144670Y3003550D01*
X4154830Y3008629D01*
X4165244Y3019044D01*
X4170578Y3029457D01*
X4204868Y3091687D02*
G01*
X4215282Y3097021D01*
X4230776Y3112515D01*
X4230776Y3003550D01*
X3379215Y2668270D02*
G01*
X3379215Y2720086D01*
X3332479Y2725420D01*
X3337559Y2720086D01*
X3342893Y2704592D01*
X3342893Y2688844D01*
X3337559Y2673350D01*
X3327400Y2662936D01*
X3311652Y2657855D01*
X3301238Y2657855D01*
X3285743Y2662936D01*
X3275329Y2673350D01*
X3270250Y2688844D01*
X3270250Y2704592D01*
X3275329Y2720086D01*
X3280409Y2725420D01*
X3290824Y2730500D01*
X3379215Y2623565D02*
G01*
X3270250Y2581910D01*
X3379215Y2540254D02*
G01*
X3270250Y2581910D01*
X3233674Y2505963D02*
G01*
X3233674Y2412492D01*
X3358388Y2378202D02*
G01*
X3363722Y2367787D01*
X3379215Y2352294D01*
X3270250Y2352294D01*
X3963415Y2668270D02*
G01*
X3963415Y2720086D01*
X3916679Y2725420D01*
X3921759Y2720086D01*
X3927093Y2704592D01*
X3927093Y2688844D01*
X3921759Y2673350D01*
X3911600Y2662936D01*
X3895852Y2657855D01*
X3885438Y2657855D01*
X3869943Y2662936D01*
X3859529Y2673350D01*
X3854450Y2688844D01*
X3854450Y2704592D01*
X3859529Y2720086D01*
X3864609Y2725420D01*
X3875024Y2730500D01*
X3963415Y2623565D02*
G01*
X3854450Y2581910D01*
X3963415Y2540254D02*
G01*
X3854450Y2581910D01*
X3817874Y2505963D02*
G01*
X3817874Y2412492D01*
X3963415Y2367787D02*
G01*
X3963415Y2310637D01*
X3921759Y2341879D01*
X3921759Y2326386D01*
X3916679Y2315971D01*
X3911600Y2310637D01*
X3895852Y2305557D01*
X3885438Y2305557D01*
X3869943Y2310637D01*
X3859529Y2321052D01*
X3854450Y2336800D01*
X3854450Y2352294D01*
X3859529Y2367787D01*
X3864609Y2373121D01*
X3875024Y2378202D01*
X3671315Y2668270D02*
G01*
X3671315Y2720086D01*
X3624579Y2725420D01*
X3629659Y2720086D01*
X3634993Y2704592D01*
X3634993Y2688844D01*
X3629659Y2673350D01*
X3619500Y2662936D01*
X3603752Y2657855D01*
X3593338Y2657855D01*
X3577843Y2662936D01*
X3567429Y2673350D01*
X3562350Y2688844D01*
X3562350Y2704592D01*
X3567429Y2720086D01*
X3572509Y2725420D01*
X3582924Y2730500D01*
X3671315Y2623565D02*
G01*
X3562350Y2581910D01*
X3671315Y2540254D02*
G01*
X3562350Y2581910D01*
X3525774Y2505963D02*
G01*
X3525774Y2412492D01*
X3645408Y2373121D02*
G01*
X3650488Y2373121D01*
X3660902Y2367787D01*
X3666236Y2362707D01*
X3671315Y2352294D01*
X3671315Y2331465D01*
X3666236Y2321052D01*
X3660902Y2315971D01*
X3650488Y2310637D01*
X3640074Y2310637D01*
X3629659Y2315971D01*
X3614165Y2326386D01*
X3562350Y2378202D01*
X3562350Y2305557D01*
X5017515Y4301744D02*
G01*
X4908550Y4343400D01*
X5017515Y4301744D02*
G01*
X4908550Y4260342D01*
X4944872Y4327905D02*
G01*
X4944872Y4275836D01*
X5017515Y4226052D02*
G01*
X4908550Y4226052D01*
X5017515Y4226052D02*
G01*
X5017515Y4179315D01*
X5012436Y4163568D01*
X5007102Y4158487D01*
X4996688Y4153154D01*
X4986274Y4153154D01*
X4975859Y4158487D01*
X4970779Y4163568D01*
X4965700Y4179315D01*
X4965700Y4226052D01*
X4965700Y4189729D02*
G01*
X4908550Y4153154D01*
X5017515Y4118863D02*
G01*
X4908550Y4118863D01*
X5017515Y4118863D02*
G01*
X5017515Y4082542D01*
X5012436Y4067047D01*
X5002022Y4056634D01*
X4991608Y4051300D01*
X4975859Y4046220D01*
X4949952Y4046220D01*
X4934458Y4051300D01*
X4924043Y4056634D01*
X4913629Y4067047D01*
X4908550Y4082542D01*
X4908550Y4118863D01*
X5017515Y4011929D02*
G01*
X4939538Y4011929D01*
X4924043Y4006850D01*
X4913629Y3996436D01*
X4908550Y3980687D01*
X4908550Y3970273D01*
X4913629Y3954779D01*
X4924043Y3944365D01*
X4939538Y3939286D01*
X5017515Y3939286D01*
X5017515Y3904995D02*
G01*
X4908550Y3904995D01*
X5017515Y3870705D02*
G01*
X4908550Y3870705D01*
X5017515Y3870705D02*
G01*
X4908550Y3797807D01*
X5017515Y3797807D02*
G01*
X4908550Y3797807D01*
X5017515Y3732529D02*
G01*
X5012436Y3742689D01*
X5002022Y3753104D01*
X4991608Y3758437D01*
X4975859Y3763518D01*
X4949952Y3763518D01*
X4934458Y3758437D01*
X4924043Y3753104D01*
X4913629Y3742689D01*
X4908550Y3732529D01*
X4908550Y3711702D01*
X4913629Y3701287D01*
X4924043Y3690873D01*
X4934458Y3685539D01*
X4949952Y3680460D01*
X4975859Y3680460D01*
X4991608Y3685539D01*
X5002022Y3690873D01*
X5012436Y3701287D01*
X5017515Y3711702D01*
X5017515Y3732529D01*
X4871974Y3646170D02*
G01*
X4871974Y3552697D01*
X5017515Y3518407D02*
G01*
X4908550Y3518407D01*
X5017515Y3518407D02*
G01*
X4908550Y3445510D01*
X5017515Y3445510D02*
G01*
X4908550Y3445510D01*
X5017515Y3369818D02*
G01*
X4908550Y3411220D01*
X5017515Y3369818D02*
G01*
X4908550Y3328162D01*
X4944872Y3395726D02*
G01*
X4944872Y3343910D01*
X5017515Y3293871D02*
G01*
X4908550Y3293871D01*
X5017515Y3293871D02*
G01*
X4908550Y3221228D01*
X5017515Y3221228D02*
G01*
X4908550Y3221228D01*
X5017515Y3155695D02*
G01*
X5012436Y3166110D01*
X5002022Y3176523D01*
X4991608Y3181604D01*
X4975859Y3186937D01*
X4949952Y3186937D01*
X4934458Y3181604D01*
X4924043Y3176523D01*
X4913629Y3166110D01*
X4908550Y3155695D01*
X4908550Y3134868D01*
X4913629Y3124454D01*
X4924043Y3114039D01*
X4934458Y3108960D01*
X4949952Y3103879D01*
X4975859Y3103879D01*
X4991608Y3108960D01*
X5002022Y3114039D01*
X5012436Y3124454D01*
X5017515Y3134868D01*
X5017515Y3155695D01*
X2876041Y5830315D02*
G01*
X2865627Y5825236D01*
X2855213Y5814821D01*
X2849879Y5804407D01*
X2844800Y5788660D01*
X2844800Y5762752D01*
X2849879Y5747257D01*
X2855213Y5736844D01*
X2865627Y5726429D01*
X2876041Y5721350D01*
X2896870Y5721350D01*
X2907029Y5726429D01*
X2917443Y5736844D01*
X2922777Y5747257D01*
X2927858Y5762752D01*
X2927858Y5788660D01*
X2922777Y5804407D01*
X2917443Y5814821D01*
X2907029Y5825236D01*
X2896870Y5830315D01*
X2876041Y5830315D01*
X2962147Y5830315D02*
G01*
X2962147Y5752337D01*
X2967481Y5736844D01*
X2977895Y5726429D01*
X2993390Y5721350D01*
X3003804Y5721350D01*
X3019297Y5726429D01*
X3029711Y5736844D01*
X3035045Y5752337D01*
X3035045Y5830315D01*
X3105658Y5830315D02*
G01*
X3105658Y5721350D01*
X3069336Y5830315D02*
G01*
X3141979Y5830315D01*
X3176270Y5684773D02*
G01*
X3269741Y5684773D01*
X3304031Y5809487D02*
G01*
X3314445Y5814821D01*
X3329940Y5830315D01*
X3329940Y5721350D01*
X2813558Y2856484D02*
G01*
X2823972Y2861563D01*
X2834386Y2871978D01*
X2839720Y2882392D01*
X2844800Y2898139D01*
X2844800Y2924047D01*
X2839720Y2939542D01*
X2834386Y2949955D01*
X2823972Y2960370D01*
X2813558Y2965450D01*
X2792729Y2965450D01*
X2782570Y2960370D01*
X2772156Y2949955D01*
X2766822Y2939542D01*
X2761741Y2924047D01*
X2761741Y2898139D01*
X2766822Y2882392D01*
X2772156Y2871978D01*
X2782570Y2861563D01*
X2792729Y2856484D01*
X2813558Y2856484D01*
X2727452Y2856484D02*
G01*
X2727452Y2934462D01*
X2722118Y2949955D01*
X2711704Y2960370D01*
X2696209Y2965450D01*
X2685795Y2965450D01*
X2670302Y2960370D01*
X2659888Y2949955D01*
X2654554Y2934462D01*
X2654554Y2856484D01*
X2583941Y2856484D02*
G01*
X2583941Y2965450D01*
X2620263Y2856484D02*
G01*
X2547620Y2856484D01*
X2513329Y3002026D02*
G01*
X2419858Y3002026D01*
X2380234Y2882392D02*
G01*
X2380234Y2877312D01*
X2375154Y2866897D01*
X2369820Y2861563D01*
X2359659Y2856484D01*
X2338831Y2856484D01*
X2328418Y2861563D01*
X2323084Y2866897D01*
X2318004Y2877312D01*
X2318004Y2887726D01*
X2323084Y2898139D01*
X2333497Y2913634D01*
X2385568Y2965450D01*
X2312670Y2965450D01*
G36*
X4294225Y2882900D02*
G01*
X4294225Y2552700D01*
X4303776Y2562453D01*
X4312767Y2572715D01*
X4321149Y2583535D01*
X4328871Y2594813D01*
X4335881Y2606548D01*
X4342180Y2618689D01*
X4347718Y2631186D01*
X4352544Y2643987D01*
X4356557Y2657043D01*
X4359808Y2670302D01*
X4362246Y2683764D01*
X4363872Y2697327D01*
X4364685Y2710942D01*
X4364685Y2724658D01*
X4363872Y2738272D01*
X4362246Y2751836D01*
X4359808Y2765298D01*
X4356557Y2778556D01*
X4352544Y2791612D01*
X4347718Y2804414D01*
X4342180Y2816910D01*
X4335881Y2829052D01*
X4328871Y2840786D01*
X4321149Y2852064D01*
X4312767Y2862884D01*
X4303776Y2873146D01*
G37*
D10*
X5092700Y3276600D02*
G01*
X4965700Y3276600D01*
X4965700Y5054600D01*
X5219700Y5054600D01*
X5219700Y3276600D01*
X5092700Y3276600D01*
X3963187Y2867787D02*
G01*
X4064787Y2867787D01*
X4014800Y2917799D02*
G01*
X4014800Y2816199D01*
X3238500Y2984500D02*
G01*
X3238500Y2476500D01*
X2984500Y2476500D01*
X2984500Y2984500D01*
X3238500Y2984500D01*
X3822700Y2984500D02*
G01*
X3822700Y2476500D01*
X3568700Y2476500D01*
X3568700Y2984500D01*
X3822700Y2984500D01*
X3530600Y2984500D02*
G01*
X3530600Y2476500D01*
X3276600Y2476500D01*
X3276600Y2984500D01*
X3530600Y2984500D01*
X4876800Y5359400D02*
G01*
X4876800Y3327400D01*
X812800Y3327400D01*
X812800Y5359400D01*
X4876800Y5359400D01*
X940064Y5663463D02*
G01*
X940064Y5409463D01*
X4767541Y5661944D02*
G01*
X4767541Y5407944D01*
X940064Y5664454D02*
G01*
X4765540Y5663945D01*
X942070Y5409463D02*
G01*
X4766541Y5408945D01*
X4749535Y3023336D02*
G01*
X4749535Y3277336D01*
X922058Y3024855D02*
G01*
X922058Y3278855D01*
X4749535Y3022345D02*
G01*
X924059Y3022854D01*
X4747529Y3277336D02*
G01*
X923058Y3277854D01*
D17*
G75*
G01
X4364812Y2717800D02*
G03X4364812Y2717800I-250012J0D01*
M02*
